<?xml version="1.0" encoding="UTF-8"?>
<svg version="1.1" xmlns="http://www.w3.org/2000/svg" width="68" height="61">
<path d="M0 0 C1.10214844 -0.01933594 2.20429688 -0.03867188 3.33984375 -0.05859375 C7.0625 0.4375 7.0625 0.4375 17.0625 4.4375 C17.0625 16.9775 17.0625 29.5175 17.0625 42.4375 C20.3625 41.1175 23.6625 39.7975 27.0625 38.4375 C31.21484375 38.01171875 31.21484375 38.01171875 35 38.125 C36.26714844 38.14949219 37.53429688 38.17398438 38.83984375 38.19921875 C42.0625 38.4375 42.0625 38.4375 45.0625 39.4375 C45.0625 27.2275 45.0625 15.0175 45.0625 2.4375 C50.0625 3.4375 50.0625 3.4375 52.0625 5.4375 C52.30300903 7.27249146 52.30300903 7.27249146 52.28955078 9.52001953 C52.28939972 10.36074005 52.28924866 11.20146057 52.28909302 12.06765747 C52.27877045 12.97603363 52.26844788 13.88440979 52.2578125 14.8203125 C52.2549826 15.74971649 52.25215271 16.67912048 52.24923706 17.63668823 C52.23802069 20.6120885 52.2129136 23.58719035 52.1875 26.5625 C52.17747208 28.57681858 52.1683459 30.59114186 52.16015625 32.60546875 C52.13807661 37.54959456 52.10353693 42.49349665 52.0625 47.4375 C50.28125 48.5234375 50.28125 48.5234375 48.0625 49.4375 C46.19302891 48.70306493 44.3253778 47.96321893 42.47265625 47.1875 C36.73012484 45.40052102 29.79408206 45.30333013 24.3125 47.9375 C20.36072598 49.7613957 17.3454631 50.10564224 13.0625 49.4375 C11.40494557 48.67247488 9.74771861 47.90644043 8.1015625 47.1171875 C0.47990862 44.57663621 -7.76466515 46.39447915 -14.9375 49.4375 C-15.9375 48.4375 -15.9375 48.4375 -16.05775452 46.60887146 C-16.05553391 45.81167191 -16.05331329 45.01447235 -16.05102539 44.19311523 C-16.05094986 43.29225693 -16.05087433 42.39139862 -16.05079651 41.46324158 C-16.04563522 40.48408279 -16.04047394 39.50492401 -16.03515625 38.49609375 C-16.0337413 37.49868668 -16.03232635 36.5012796 -16.03086853 35.47364807 C-16.02525114 32.27406876 -16.01269571 29.07455831 -16 25.875 C-15.99498724 23.71158955 -15.99042395 21.54817801 -15.98632812 19.38476562 C-15.97527607 14.06898675 -15.95852104 8.75324829 -15.9375 3.4375 C-14.51378784 2.94220196 -13.08820562 2.45227733 -11.66186523 1.96459961 C-10.86820053 1.69119247 -10.07453583 1.41778534 -9.25682068 1.13609314 C-6.12952477 0.19413307 -3.25891704 0.0038027 0 0 Z M-10.9375 9.4375 C-10.9375 19.3375 -10.9375 29.2375 -10.9375 39.4375 C-4.0075 39.4375 2.9225 39.4375 10.0625 39.4375 C10.0625 29.5375 10.0625 19.6375 10.0625 9.4375 C5.61675017 7.65920007 3.57357816 7.16437192 -1 7.1875 C-2.53333984 7.17976563 -2.53333984 7.17976563 -4.09765625 7.171875 C-7.25443001 7.29432058 -7.25443001 7.29432058 -10.9375 9.4375 Z " fill="#2E3031" transform="translate(15.9375,11.5625)"/>
<path d="M0 0 C0.12400035 4.32322461 0.21452256 8.64549602 0.2746582 12.9699707 C0.29973644 14.43955525 0.33380856 15.90901587 0.37719727 17.37817383 C0.43815499 19.49591681 0.46627316 21.61200576 0.48828125 23.73046875 C0.51446533 25.00301514 0.54064941 26.27556152 0.56762695 27.58666992 C-0.14819054 31.89111909 -1.71110977 33.24155602 -5 36 C-6.03833984 37.07314453 -6.03833984 37.07314453 -7.09765625 38.16796875 C-7.74605469 38.83441406 -8.39445312 39.50085937 -9.0625 40.1875 C-10.03896484 41.19876953 -10.03896484 41.19876953 -11.03515625 42.23046875 C-12.95816894 43.9623271 -14.68029573 44.90093866 -17 46 C-19.60245591 17.49042916 -19.60245591 17.49042916 -13.73046875 9.6015625 C-4.79296608 0 -4.79296608 0 0 0 Z " fill="#333234" transform="translate(56,1)"/>
<path d="M0 0 C5 1 5 1 7 3 C7.24050903 4.83499146 7.24050903 4.83499146 7.22705078 7.08251953 C7.22689972 7.92324005 7.22674866 8.76396057 7.22659302 9.63015747 C7.21627045 10.53853363 7.20594788 11.44690979 7.1953125 12.3828125 C7.1924826 13.31221649 7.18965271 14.24162048 7.18673706 15.19918823 C7.17552069 18.1745885 7.1504136 21.14969035 7.125 24.125 C7.11497208 26.13931858 7.1058459 28.15364186 7.09765625 30.16796875 C7.07557661 35.11209456 7.04103693 40.05599665 7 45 C3.9905475 46.74502474 3.34246728 47.07196776 -0.234375 46.3203125 C-1.39453125 45.92585938 -2.5546875 45.53140625 -3.75 45.125 C-4.92046875 44.73570313 -6.0909375 44.34640625 -7.296875 43.9453125 C-8.18890625 43.63335937 -9.0809375 43.32140625 -10 43 C-10 41.68 -10 40.36 -10 39 C-9.01 38.505 -9.01 38.505 -8 38 C-8.99 37.34 -9.98 36.68 -11 36 C-9.741875 35.979375 -8.48375 35.95875 -7.1875 35.9375 C-6.12595703 35.92009766 -6.12595703 35.92009766 -5.04296875 35.90234375 C-3 36 -3 36 0 37 C0 24.79 0 12.58 0 0 Z " fill="#353738" transform="translate(61,14)"/>
<path d="M0 0 C0.33 0.66 0.66 1.32 1 2 C0.01 2.33 -0.98 2.66 -2 3 C-2.33 3.66 -2.66 4.32 -3 5 C-4.98 5.33 -6.96 5.66 -9 6 C-9.33 16.56 -9.66 27.12 -10 38 C-8.515 37.505 -8.515 37.505 -7 37 C-5.10529184 36.9314505 -3.2083166 36.91519628 -1.3125 36.9375 C-0.31863281 36.94652344 0.67523438 36.95554688 1.69921875 36.96484375 C2.83810547 36.98224609 2.83810547 36.98224609 4 37 C4 40 4 40 3 43 C0.453125 43.87890625 0.453125 43.87890625 -2.75 44.5625 C-6.68742052 45.42078009 -10.29568452 46.40165647 -14 48 C-15 47 -15 47 -15.12025452 45.17137146 C-15.11803391 44.37417191 -15.11581329 43.57697235 -15.11352539 42.75561523 C-15.11344986 41.85475693 -15.11337433 40.95389862 -15.11329651 40.02574158 C-15.10813522 39.04658279 -15.10297394 38.06742401 -15.09765625 37.05859375 C-15.0962413 36.06118668 -15.09482635 35.0637796 -15.09336853 34.03614807 C-15.08775114 30.83656876 -15.07519571 27.63705831 -15.0625 24.4375 C-15.05748724 22.27408955 -15.05292395 20.11067801 -15.04882812 17.94726562 C-15.03777607 12.63148675 -15.02102104 7.31574829 -15 2 C-13.43883181 1.66048381 -11.87598662 1.32867456 -10.3125 1 C-9.44238281 0.814375 -8.57226562 0.62875 -7.67578125 0.4375 C-5.06287036 0.01027953 -2.64186962 -0.07616201 0 0 Z " fill="#333536" transform="translate(15,13)"/>
<path d="M0 0 C-3.96 1.98 -3.96 1.98 -8 4 C-8 4.33 -8 4.66 -8 5 C-13.94 5.495 -13.94 5.495 -20 6 C-16 3 -16 3 -14 2 C-13.34 1.34 -12.68 0.68 -12 0 C-16.37934119 0.51958285 -20.68803391 1.05675742 -25 2 C-24 0 -24 0 -21.3125 -1.125 C-14.7899527 -2.84074313 -5.69481601 -3.796544 0 0 Z " fill="#252426" transform="translate(26,14)"/>
<path d="M0 0 C0.33 3.3 0.66 6.6 1 10 C0.34 9.01 -0.32 8.02 -1 7 C-2.94832935 5.99831469 -2.94832935 5.99831469 -5.125 5.3125 C-5.84945313 5.06113281 -6.57390625 4.80976563 -7.3203125 4.55078125 C-7.87460937 4.36902344 -8.42890625 4.18726563 -9 4 C-3.7826087 0 -3.7826087 0 0 0 Z " fill="#3B3B3D" transform="translate(26,14)"/>
<path d="M0 0 C0.33 0 0.66 0 1 0 C1 2.64 1 5.28 1 8 C1.99 7.67 2.98 7.34 4 7 C4.25 10.3125 4.25 10.3125 4 14 C2.68 14.99 1.36 15.98 0 17 C0 11.39 0 5.78 0 0 Z " fill="#2E2A29" transform="translate(26,32)"/>
<path d="M0 0 C2.31 0.33 4.62 0.66 7 1 C6.67 2.32 6.34 3.64 6 5 C4.35 5.33 2.7 5.66 1 6 C0.67 4.02 0.34 2.04 0 0 Z " fill="#323434" transform="translate(42,51)"/>
</svg>
