<?xml version="1.0" encoding="UTF-8"?>
<svg version="1.1" xmlns="http://www.w3.org/2000/svg" width="48" height="48">
<path d="M0 0 C1.32 0.66 2.64 1.32 4 2 C2.02 4.31 0.04 6.62 -2 9 C17.305 9.495 17.305 9.495 37 10 C37 11.32 37 12.64 37 14 C24.13 14.33 11.26 14.66 -2 15 C-0.02 17.31 1.96 19.62 4 22 C2.02 22.99 2.02 22.99 0 24 C-3.63 20.37 -7.26 16.74 -11 13 C-9.07859132 9.15718264 -7.4073184 7.19568073 -4.375 4.25 C-3.55773437 3.45078125 -2.74046875 2.6515625 -1.8984375 1.828125 C-0.95871094 0.92320313 -0.95871094 0.92320313 0 0 Z " fill="#000000" transform="translate(11,12)"/>
</svg>
