<?xml version="1.0" encoding="UTF-8"?>
<svg version="1.1" xmlns="http://www.w3.org/2000/svg" width="169" height="146">
<path d="M0 0 C1.96012303 0.05673998 3.92042652 0.10756934 5.88085938 0.15234375 C19.98207351 0.54457351 19.98207351 0.54457351 21.3125 1.875 C21.38563567 4.40549402 21.40497527 6.90804837 21.375 9.4375 C21.37048828 10.14841797 21.36597656 10.85933594 21.36132812 11.59179688 C21.34950864 13.35290013 21.33157263 15.11396036 21.3125 16.875 C20.26908447 16.85816162 19.22566895 16.84132324 18.15063477 16.82397461 C14.24184456 16.77295463 10.33499861 16.78182415 6.42602539 16.80786133 C4.74140754 16.81092456 3.05667832 16.7982107 1.37231445 16.76879883 C-8.63144235 16.39704756 -8.63144235 16.39704756 -17.75048828 19.80908203 C-20.02027102 22.05310837 -21.87226168 24.2555596 -23.6875 26.875 C-24.6775 28.195 -25.6675 29.515 -26.6875 30.875 C-35.9275 30.875 -45.1675 30.875 -54.6875 30.875 C-54.6875 57.605 -54.6875 84.335 -54.6875 111.875 C-18.7175 111.875 17.2525 111.875 54.3125 111.875 C53.9825 111.215 53.6525 110.555 53.3125 109.875 C53.21641936 108.03716054 53.18454108 106.19581744 53.18310547 104.35546875 C53.17995331 103.20087158 53.17680115 102.04627441 53.17355347 100.85668945 C53.17658981 98.97856567 53.17658981 98.97856567 53.1796875 97.0625 C53.17873077 95.78270264 53.17777405 94.50290527 53.17678833 93.18432617 C53.17531311 90.47410884 53.17746027 87.76392445 53.18212891 85.05371094 C53.18782611 81.57658771 53.18454616 78.09954166 53.17855644 74.62242126 C53.1740779 71.31077462 53.17721184 67.99914884 53.1796875 64.6875 C53.17766327 63.43541748 53.17563904 62.18333496 53.17355347 60.89331055 C53.17828171 59.16141479 53.17828171 59.16141479 53.18310547 57.39453125 C53.18390106 56.37464111 53.18469666 55.35475098 53.18551636 54.30395508 C53.3125 51.875 53.3125 51.875 54.3125 49.875 C56.79173801 49.84814905 59.2706884 49.82823453 61.75 49.8125 C62.45705078 49.80412109 63.16410156 49.79574219 63.89257812 49.78710938 C65.69943559 49.77846412 67.50637603 49.82279989 69.3125 49.875 C71.1122001 51.6747001 70.46831646 54.40003462 70.48950195 56.82836914 C70.50875481 58.74154686 70.50875481 58.74154686 70.52839661 60.69337463 C70.5365674 62.09896456 70.54401048 63.50455888 70.55078125 64.91015625 C70.55485678 65.61637053 70.5589323 66.3225848 70.56313133 67.05019951 C70.58402325 70.7941242 70.59830661 74.53801198 70.60766602 78.28198242 C70.6186866 82.13655764 70.65302587 85.99054852 70.69283772 89.84491825 C70.71909484 92.8176525 70.72736625 95.79025014 70.73094749 98.76309013 C70.73579669 100.18276312 70.7473629 101.6024307 70.76598549 103.02198982 C70.96256079 119.01138107 70.96256079 119.01138107 66.3125 123.875 C60.22672819 128.41365066 55.01303615 128.44268057 47.58154297 128.37670898 C45.83641418 128.38481346 45.83641418 128.38481346 44.05603027 128.39308167 C40.22198823 128.40555847 36.38869847 128.3890857 32.5546875 128.37109375 C29.88623029 128.37124874 27.21779987 128.37268396 24.54934692 128.37550354 C18.96265928 128.37820051 13.37618714 128.36477195 7.78955078 128.34155273 C1.3370615 128.31491997 -5.11506824 128.31320597 -11.56759369 128.3249411 C-17.78638998 128.33572974 -24.00505662 128.32952503 -30.22384262 128.31538582 C-32.8656565 128.31086775 -35.50748096 128.31053761 -38.14929581 128.31445122 C-41.83819588 128.31735843 -45.52650641 128.30087963 -49.21533203 128.27905273 C-50.30844696 128.28355438 -51.40156189 128.28805603 -52.52780151 128.29269409 C-59.27321212 128.22631182 -62.82137376 127.42266777 -67.9375 122.875 C-71.45889863 118.85054442 -70.84828856 114.25604026 -70.86450195 109.20019531 C-70.87107315 108.31367279 -70.87764435 107.42715027 -70.88441467 106.51376343 C-70.90414167 103.57688309 -70.91580921 100.64005389 -70.92578125 97.703125 C-70.92985678 96.69961754 -70.9339323 95.69611008 -70.93813133 94.6621933 C-70.95898993 89.35031846 -70.97329234 84.03846943 -70.98266602 78.7265625 C-70.9937275 73.24432994 -71.02812517 67.7625036 -71.06783772 62.28041458 C-71.09400275 58.06129205 -71.10235779 53.8422663 -71.10594749 49.62306976 C-71.11081404 47.60249845 -71.12242996 45.58193148 -71.14098549 43.56143951 C-71.16537335 40.72976135 -71.16441244 37.89913419 -71.1574707 35.06738281 C-71.17028076 34.23699493 -71.18309082 33.40660706 -71.19628906 32.55105591 C-71.14558839 26.86030011 -69.9197491 23.57833303 -66.6875 18.875 C-61.00019884 13.68383548 -53.61261262 14.63961626 -46.4375 14.9375 C-44.85388672 15.05641602 -44.85388672 15.05641602 -43.23828125 15.17773438 C-39.66538277 15.22802609 -37.07226127 15.0667241 -33.6875 13.875 C-31.71420371 11.73680281 -29.99047457 9.66894901 -28.24609375 7.36328125 C-20.74997394 -2.18266664 -11.21351329 -0.62271008 0 0 Z " fill="#F7A805" transform="translate(83.6875,15.125)"/>
<path d="M0 0 C6.57178632 5.63989343 12.14980235 11.2774601 13.45703125 20.08203125 C14.27795619 31.10395797 13.29957406 39.67898094 6.20703125 48.39453125 C0.52646635 54.41568676 -6.29789184 58.57529233 -14.65625 59.3828125 C-26.203947 59.42511176 -34.12550056 57.29380942 -42.54296875 49.08203125 C-49.1810748 40.92623856 -51.13874585 33.45710404 -50.984375 22.98046875 C-50.02309755 14.49060243 -45.70334839 7.16984053 -39.38671875 1.4765625 C-28.00281443 -7.13372106 -11.74025147 -8.8547826 0 0 Z M-30.19140625 14.515625 C-34.33751769 19.3208004 -34.89530812 23.47332514 -34.82421875 29.578125 C-34.27042528 34.50842522 -31.52673867 37.19423888 -27.98046875 40.39453125 C-23.44397168 43.53518307 -18.89467106 43.75099404 -13.54296875 43.08203125 C-8.67662358 40.51113191 -4.3193587 37.4112011 -2.54296875 32.08203125 C-2.04117622 26.84200102 -1.89394375 22.45496874 -4.16796875 17.64453125 C-7.71715441 13.81514672 -10.80298586 11.57447924 -15.85546875 10.14453125 C-21.15500654 10.05470858 -26.08744937 10.94654402 -30.19140625 14.515625 Z " fill="#F7A806" transform="translate(101.54296875,59.91796875)"/>
<path d="M0 0 C4.95 0 9.9 0 15 0 C17.02903697 4.05807395 16.0467948 9.60128877 16 14 C19.96 14 23.92 14 28 14 C29.70203166 18.25507914 30.25811931 19.96148195 30.1875 24.25 C30.18105469 25.12140625 30.17460937 25.9928125 30.16796875 26.890625 C30 29 30 29 29 30 C26.81360547 30.07258946 24.62499611 30.08373783 22.4375 30.0625 C20.64119141 30.04896484 20.64119141 30.04896484 18.80859375 30.03515625 C17.88175781 30.02355469 16.95492187 30.01195313 16 30 C16.01160156 30.92683594 16.02320313 31.85367188 16.03515625 32.80859375 C16.04417969 34.00613281 16.05320313 35.20367187 16.0625 36.4375 C16.07410156 37.63246094 16.08570313 38.82742187 16.09765625 40.05859375 C16 43 16 43 15 44 C12.48863896 44.09975032 10.01096585 44.13882183 7.5 44.125 C6.79746094 44.12886719 6.09492188 44.13273437 5.37109375 44.13671875 C0.12661378 44.12661378 0.12661378 44.12661378 -1 43 C-1.16499805 38.71005077 -0.84964745 35.24823725 0 31 C-4.29 31 -8.58 31 -13 31 C-15.12968873 26.74062253 -15.14928541 25.38028095 -14.6875 20.8125 C-14.58824219 19.74644531 -14.48898438 18.68039063 -14.38671875 17.58203125 C-14 15 -14 15 -13 14 C-10.81360547 13.92741054 -8.62499611 13.91626217 -6.4375 13.9375 C-4.64119141 13.95103516 -4.64119141 13.95103516 -2.80859375 13.96484375 C-1.88175781 13.97644531 -0.95492187 13.98804688 0 14 C-0.16242188 13.42507813 -0.32484375 12.85015625 -0.4921875 12.2578125 C-1.37852333 8.31702705 -1.83132172 3.66264345 0 0 Z " fill="#F7A908" transform="translate(138,2)"/>
<path d="M0 0 C0.66 0 1.32 0 2 0 C2 26.73 2 53.46 2 81 C37.97 81 73.94 81 111 81 C110.67 80.34 110.34 79.68 110 79 C109.90391936 77.16216054 109.87204108 75.32081744 109.87060547 73.48046875 C109.86745331 72.32587158 109.86430115 71.17127441 109.86105347 69.98168945 C109.86408981 68.10356567 109.86408981 68.10356567 109.8671875 66.1875 C109.86623077 64.90770264 109.86527405 63.62790527 109.86428833 62.30932617 C109.86281311 59.59910884 109.86496027 56.88892445 109.86962891 54.17871094 C109.87532611 50.70158771 109.87204616 47.22454166 109.86605644 43.74742126 C109.8615779 40.43577462 109.86471184 37.12414884 109.8671875 33.8125 C109.86516327 32.56041748 109.86313904 31.30833496 109.86105347 30.01831055 C109.86578171 28.28641479 109.86578171 28.28641479 109.87060547 26.51953125 C109.87140106 25.49964111 109.87219666 24.47975098 109.87301636 23.42895508 C110 21 110 21 111 19 C113.47923801 18.97314905 115.9581884 18.95323453 118.4375 18.9375 C119.14455078 18.92912109 119.85160156 18.92074219 120.58007812 18.91210938 C122.38693559 18.90346412 124.19387603 18.94779989 126 19 C127 20 127 20 127.11352539 23.32641602 C127.11336629 24.80225556 127.10767314 26.27810069 127.09765625 27.75390625 C127.09553383 28.91707619 127.09553383 28.91707619 127.09336853 30.10374451 C127.08775345 32.59003494 127.07519846 35.0762366 127.0625 37.5625 C127.05748694 39.24413933 127.0529237 40.92578006 127.04882812 42.60742188 C127.03777913 46.73831566 127.02050445 50.86914276 127 55 C126.67 55 126.34 55 126 55 C126 43.78 126 32.56 126 21 C121.38 21 116.76 21 112 21 C111.97533967 28.65380618 111.95715896 36.3075894 111.94506836 43.96142578 C111.9400297 46.56689863 111.9331987 49.17236863 111.92456055 51.77783203 C111.91247456 55.51595764 111.90676712 59.25404597 111.90234375 62.9921875 C111.89718246 64.16304901 111.89202118 65.33391052 111.88670349 66.54025269 C111.88659019 68.161707 111.88659019 68.161707 111.88647461 69.81591797 C111.884254 70.77078094 111.88203339 71.72564392 111.87974548 72.70944214 C111.8485755 75.030239 111.8485755 75.030239 113 77 C112.34 78.98 111.68 80.96 111 83 C74.04 83 37.08 83 -1 83 C-0.67 55.61 -0.34 28.22 0 0 Z " fill="#EBAD3C" transform="translate(27,46)"/>
<path d="M0 0 C0.66 0.33 1.32 0.66 2 1 C2.33 1.99 2.66 2.98 3 4 C41.61 4 80.22 4 120 4 C120.33 3.34 120.66 2.68 121 2 C123.97 2.33 126.94 2.66 130 3 C126.27782222 6.72217778 124.15204216 7.12333837 119.11721802 7.14044189 C118.11062134 7.14615204 117.10402466 7.15186218 116.06692505 7.15774536 C114.96347748 7.15886322 113.86002991 7.15998108 112.72314453 7.16113281 C110.97889191 7.16858017 110.97889191 7.16858017 109.19940186 7.17617798 C105.3438661 7.19081053 101.48837148 7.19760308 97.6328125 7.203125 C95.63425213 7.20742237 93.63569176 7.21172026 91.63713157 7.2160995 C86.0684529 7.22790952 80.49978421 7.23544759 74.93109429 7.2388947 C67.73174725 7.24337588 60.53259003 7.26092805 53.33330071 7.2898953 C47.76632522 7.31151646 42.19940312 7.32159919 36.63238609 7.32293582 C33.30832775 7.32398347 29.98448857 7.33132887 26.66046524 7.34775543 C22.95204458 7.36477489 19.2440882 7.36294551 15.53564453 7.35644531 C14.43624542 7.3656601 13.33684631 7.37487488 12.20413208 7.3843689 C2.81060908 7.33268732 2.81060908 7.33268732 -1 4 C-1.66 3.01 -2.32 2.02 -3 1 C-2.01 0.67 -1.02 0.34 0 0 Z " fill="#E8AC31" transform="translate(19,136)"/>
<path d="M0 0 C1.38630363 0.00493217 1.38630363 0.00493217 2.8006134 0.00996399 C4.74987857 0.02037322 6.69911299 0.0403035 8.64819336 0.0690918 C11.64388903 0.11327178 14.63878412 0.13054212 17.63476562 0.14257812 C19.52735541 0.15599762 21.41993527 0.17091933 23.3125 0.1875 C24.21348923 0.19488693 25.11447845 0.20227386 26.04277039 0.20988464 C32.33874517 0.30749517 32.33874517 0.30749517 33.45703125 1.42578125 C33.53016692 3.95627527 33.54950652 6.45882962 33.51953125 8.98828125 C33.51501953 9.69919922 33.51050781 10.41011719 33.50585938 11.14257812 C33.49403989 12.90368138 33.47610388 14.66474161 33.45703125 16.42578125 C32.40837891 16.41417969 31.35972656 16.40257812 30.27929688 16.390625 C26.35748459 16.35788829 22.43736396 16.37807311 18.515625 16.41357422 C16.82422669 16.42164387 15.13269736 16.41570108 13.44140625 16.39501953 C3.55116489 16.00745568 3.55116489 16.00745568 -5.484375 19.2734375 C-7.43915921 21.22822171 -9.05327701 23.10260302 -10.54296875 25.42578125 C-11.2300443 22.93513237 -11.54296875 21.04691833 -11.54296875 18.42578125 C-9.89296875 18.42578125 -8.24296875 18.42578125 -6.54296875 18.42578125 C-6.21296875 17.10578125 -5.88296875 15.78578125 -5.54296875 14.42578125 C12.77203125 14.92078125 12.77203125 14.92078125 31.45703125 15.42578125 C31.45703125 11.13578125 31.45703125 6.84578125 31.45703125 2.42578125 C25.72717338 2.44522906 19.99884545 2.49703059 14.26953125 2.57836914 C12.32202498 2.6015152 10.37439414 2.61593688 8.42675781 2.62133789 C5.62095823 2.63065234 2.81710871 2.67169631 0.01171875 2.71875 C-0.85413849 2.71481735 -1.71999573 2.7108847 -2.61209106 2.70683289 C-8.62961295 2.85091273 -11.32042924 4.11014165 -15.54296875 8.42578125 C-12.13578997 0.47569743 -8.02317569 -0.15696487 0 0 Z " fill="#EFB133" transform="translate(71.54296875,15.57421875)"/>
<path d="M0 0 C4.29 0.33 8.58 0.66 13 1 C14.70203166 5.25507914 15.25811931 6.96148195 15.1875 11.25 C15.18105469 12.12140625 15.17460937 12.9928125 15.16796875 13.890625 C15 16 15 16 14 17 C11.81360547 17.07258946 9.62499611 17.08373783 7.4375 17.0625 C5.64119141 17.04896484 5.64119141 17.04896484 3.80859375 17.03515625 C2.88175781 17.02355469 1.95492187 17.01195313 1 17 C1.01160156 17.92683594 1.02320313 18.85367188 1.03515625 19.80859375 C1.04417969 21.00613281 1.05320313 22.20367187 1.0625 23.4375 C1.07410156 24.63246094 1.08570313 25.82742187 1.09765625 27.05859375 C1 30 1 30 0 31 C-2.53049402 31.07313567 -5.03304837 31.09247527 -7.5625 31.0625 C-8.27341797 31.05798828 -8.98433594 31.05347656 -9.71679688 31.04882812 C-11.47790013 31.03700864 -13.23896036 31.01907263 -15 31 C-15.33 29.35 -15.66 27.7 -16 26 C-15.34 26 -14.68 26 -14 26 C-14 27.32 -14 28.64 -14 30 C-10.04 29.67 -6.08 29.34 -2 29 C-1.67 24.71 -1.34 20.42 -1 16 C3.29 16 7.58 16 12 16 C12.33 11.71 12.66 7.42 13 3 C8.38 3 3.76 3 -1 3 C-0.67 2.01 -0.34 1.02 0 0 Z " fill="#F3B325" transform="translate(153,15)"/>
<path d="M0 0 C0.33 0 0.66 0 1 0 C1.39328149 11.3319458 1.72265433 22.66464258 2 34 C2.01887268 34.74040527 2.03774536 35.48081055 2.05718994 36.24365234 C2.17719505 41.03742068 2.25479494 45.83007024 2.3125 50.625 C2.34214844 51.85492676 2.37179688 53.08485352 2.40234375 54.35205078 C2.44961751 61.41061463 1.76729003 65.98125262 -2 72 C-2.66 70.68 -3.32 69.36 -4 68 C-3.01 68 -2.02 68 -1 68 C-0.67 45.56 -0.34 23.12 0 0 Z " fill="#F9B727" transform="translate(152,67)"/>
<path d="M0 0 C7.72688965 2.57562988 13.23189394 7.72386968 17.4375 14.6875 C19.87270755 19.85014001 20.15711876 24.38120758 20.1875 30.0625 C20.20167969 31.27035156 20.21585938 32.47820312 20.23046875 33.72265625 C20 37 20 37 18 41 C18 33.74 18 26.48 18 19 C17.34 19 16.68 19 16 19 C16 17.68 16 16.36 16 15 C15.2575 15 14.515 15 13.75 15 C11 14 11 14 9.953125 12.22265625 C9.31482169 10.77600982 8.67942853 9.32807603 8.046875 7.87890625 C7.06059765 5.71558979 7.06059765 5.71558979 4.25 4.5 C3.13625 4.2525 3.13625 4.2525 2 4 C2 3.34 2 2.68 2 2 C1.34 2 0.68 2 0 2 C0 1.34 0 0.68 0 0 Z " fill="#E8B237" transform="translate(95,57)"/>
<path d="M0 0 C0.99 0.33 1.98 0.66 3 1 C2.67 1.99 2.34 2.98 2 4 C1.47240452 9.02513073 1.43007534 12.88050512 3.75 17.4375 C6.66568868 20.75814544 8.80437946 22.60145982 13 24 C14.89470816 24.0685495 16.7916834 24.08480372 18.6875 24.0625 C19.68136719 24.05347656 20.67523438 24.04445313 21.69921875 24.03515625 C22.45847656 24.02355469 23.21773437 24.01195313 24 24 C23.67 24.66 23.34 25.32 23 26 C21.27119018 26.05449838 19.54187288 26.09301688 17.8125 26.125 C16.84957031 26.14820312 15.88664062 26.17140625 14.89453125 26.1953125 C9.54180836 25.83413012 5.85489197 23.65200292 2 20 C-1.94441685 14.55942504 -1.50238635 8.45373238 -1 2 C-0.67 1.34 -0.34 0.68 0 0 Z " fill="#DDAB36" transform="translate(66,78)"/>
<path d="M0 0 C0.66 0 1.32 0 2 0 C2.02685412 2.31243792 2.04632841 4.6249627 2.0625 6.9375 C2.07410156 8.22527344 2.08570313 9.51304688 2.09765625 10.83984375 C2 14 2 14 1 15 C-1.53049402 15.07313567 -4.03304837 15.09247527 -6.5625 15.0625 C-7.62887695 15.05573242 -7.62887695 15.05573242 -8.71679688 15.04882812 C-10.47790013 15.03700864 -12.23896036 15.01907263 -14 15 C-14.33 13.35 -14.66 11.7 -15 10 C-14.34 10 -13.68 10 -13 10 C-13 11.32 -13 12.64 -13 14 C-7.06 13.505 -7.06 13.505 -1 13 C-0.67 8.71 -0.34 4.42 0 0 Z " fill="#EBB32E" transform="translate(152,31)"/>
<path d="M0 0 C3.125 0.375 3.125 0.375 6 1 C4.64002446 7.04433574 1.14348206 10.63494136 -3 15 C-3.33 14.01 -3.66 13.02 -4 12 C-2.68 11.01 -1.36 10.02 0 9 C-0.57584432 6.61435923 -1.22227595 4.33317216 -2 2 C-1.34 1.34 -0.68 0.68 0 0 Z " fill="#F2AD22" transform="translate(107,97)"/>
<path d="M0 0 C-1.97854258 0.19397476 -3.9578648 0.38001321 -5.9375 0.5625 C-7.59072266 0.71912109 -7.59072266 0.71912109 -9.27734375 0.87890625 C-10.17582031 0.91886719 -11.07429688 0.95882812 -12 1 C-12.33 0.67 -12.66 0.34 -13 0 C-15.02408755 0.09002398 -17.04544287 0.24641038 -19.0625 0.4375 C-20.16722656 0.53933594 -21.27195312 0.64117187 -22.41015625 0.74609375 C-23.26480469 0.82988281 -24.11945313 0.91367187 -25 1 C-17.88925791 -3.74049473 -7.27546515 -4.8503101 0 0 Z " fill="#EBAD2B" transform="translate(94,57)"/>
<path d="M0 0 C6.2252208 2.0750736 11.21933584 5.52853882 15 11 C14.71875 13.25390625 14.71875 13.25390625 14 15 C11 14 11 14 10.0078125 12.22265625 C9.71648437 11.50980469 9.42515625 10.79695313 9.125 10.0625 C7.52099913 6.58040762 7.52099913 6.58040762 4.25 4.5 C3.13625 4.2525 3.13625 4.2525 2 4 C2 3.34 2 2.68 2 2 C1.34 2 0.68 2 0 2 C0 1.34 0 0.68 0 0 Z " fill="#F0AA1F" transform="translate(95,57)"/>
<path d="M0 0 C0.33 0 0.66 0 1 0 C1.38133299 1.9914056 1.71325582 3.99279077 2 6 C1.67 6.33 1.34 6.66 1 7 C0.76321284 9.69235776 0.57801975 12.36498156 0.4375 15.0625 C0.39431641 15.82111328 0.35113281 16.57972656 0.30664062 17.36132812 C0.20026367 19.24065438 0.09960066 21.12030244 0 23 C-2.50874465 19.23688303 -2.26763214 17.11237925 -2.25 12.625 C-2.25515625 11.31789063 -2.2603125 10.01078125 -2.265625 8.6640625 C-2.02038462 5.28118782 -1.46995257 3.02156916 0 0 Z " fill="#E9AF2E" transform="translate(53,74)"/>
<path d="M0 0 C2.4375 0.375 2.4375 0.375 5 1 C5.33 1.66 5.66 2.32 6 3 C6.99 3.33 7.98 3.66 9 4 C9.98600987 8.10837446 10.13389122 11.96861834 10.125 16.1875 C10.12757812 17.41855469 10.13015625 18.64960937 10.1328125 19.91796875 C10 23 10 23 9 25 C8.34 24.67 7.68 24.34 7 24 C7.33 23.01 7.66 22.02 8 21 C8.50712636 15.70427061 8.69406829 11.36334843 6.25 6.5625 C4.24140489 4.27493334 2.2309198 2.07156839 0 0 Z " fill="#EAAE34" transform="translate(90,71)"/>
<path d="M0 0 C-0.66 2.97 -1.32 5.94 -2 9 C-2.33 8.34 -2.66 7.68 -3 7 C-4.65 7.33 -6.3 7.66 -8 8 C-6.48291727 4.46014029 -4.24676932 0 0 0 Z " fill="#F0AD1C" transform="translate(65,61)"/>
<path d="M0 0 C1.11375 0.495 1.11375 0.495 2.25 1 C5.13883312 2.22782871 5.13883312 2.22782871 9 2 C9.99 2 10.98 2 12 2 C12.33 3.32 12.66 4.64 13 6 C7.77895216 6.63671315 5.32292214 5.23234994 1.3203125 2.19140625 C0.88460937 1.79824219 0.44890625 1.40507813 0 1 C0 0.67 0 0.34 0 0 Z " fill="#F1A71F" transform="translate(61,110)"/>
<path d="M0 0 C0.66 0.33 1.32 0.66 2 1 C2.33 1.99 2.66 2.98 3 4 C5.97 4.495 5.97 4.495 9 5 C9 5.33 9 5.66 9 6 C3.71502591 6.44041451 3.71502591 6.44041451 1 6 C-1.5 3.5 -1.5 3.5 -3 1 C-2.01 0.67 -1.02 0.34 0 0 Z " fill="#EBA926" transform="translate(19,136)"/>
<path d="M0 0 C0.66 0 1.32 0 2 0 C2.9765625 1.79036458 3.953125 3.58072917 4.9296875 5.37109375 C5.91410024 7.16618315 5.91410024 7.16618315 8 8 C7.67 9.32 7.34 10.64 7 12 C6.01287122 10.75627811 5.03560095 9.50472782 4.0625 8.25 C3.51722656 7.55390625 2.97195312 6.8578125 2.41015625 6.140625 C1.02574346 4.03907872 0.43713013 2.45678201 0 0 Z " fill="#ECB12C" transform="translate(53,98)"/>
<path d="M0 0 C0.99 0.33 1.98 0.66 3 1 C2.5359375 2.2684375 2.5359375 2.2684375 2.0625 3.5625 C0.98461179 7.0497854 0.43418696 10.38177535 0 14 C-0.33 14 -0.66 14 -1 14 C-1.02694851 12.04174127 -1.04637218 10.08337774 -1.0625 8.125 C-1.07410156 7.03445312 -1.08570312 5.94390625 -1.09765625 4.8203125 C-1 2 -1 2 0 0 Z " fill="#EFAE22" transform="translate(66,78)"/>
<path d="M0 0 C0.66 0.33 1.32 0.66 2 1 C1.67 1.66 1.34 2.32 1 3 C0.34 3 -0.32 3 -1 3 C-1.103125 3.639375 -1.20625 4.27875 -1.3125 4.9375 C-1.539375 5.618125 -1.76625 6.29875 -2 7 C-2.99 7.33 -3.98 7.66 -5 8 C-4.64950425 4.75791433 -4.43778819 3.38472296 -1.9375 1.1875 C-1.298125 0.795625 -0.65875 0.40375 0 0 Z " fill="#EDAD25" transform="translate(20,32)"/>
<path d="M0 0 C7.57142857 2.85714286 7.57142857 2.85714286 10 7 C4.25 5.125 4.25 5.125 2 4 C2 3.34 2 2.68 2 2 C1.34 2 0.68 2 0 2 C0 1.34 0 0.68 0 0 Z " fill="#EAA92E" transform="translate(95,57)"/>
<path d="M0 0 C1.32 0.33 2.64 0.66 4 1 C3.6875 2.875 3.6875 2.875 3 5 C2.01 5.66 1.02 6.32 0 7 C0 4.69 0 2.38 0 0 Z " fill="#F1AD26" transform="translate(60,34)"/>
</svg>
