<?xml version="1.0" encoding="UTF-8"?>
<svg version="1.1" xmlns="http://www.w3.org/2000/svg" width="64" height="64">
<path d="M0 0 C17.16 0 34.32 0 52 0 C52 11.88 52 23.76 52 36 C47.4625 35.95875 42.925 35.9175 38.25 35.875 C25.68426564 35.87472385 25.68426564 35.87472385 15.25 42.0625 C13.78455223 43.66505254 12.34750341 45.29707711 11 47 C10.67 47 10.34 47 10 47 C10 43.37 10 39.74 10 36 C6.7 36 3.4 36 0 36 C0 24.12 0 12.24 0 0 Z M4 4 C4 13.24 4 22.48 4 32 C7.3 32 10.6 32 14 32 C14 33.65 14 35.3 14 37 C14.69351562 36.35546875 15.38703125 35.7109375 16.1015625 35.046875 C21.42057313 31.50086791 28.2289251 32.31897004 34.375 32.25 C38.87125 32.1675 43.3675 32.085 48 32 C48 22.76 48 13.52 48 4 C33.48 4 18.96 4 4 4 Z " fill="#FFB800" transform="translate(6,10)"/>
<path d="M0 0 C10.56 0 21.12 0 32 0 C32 1.32 32 2.64 32 4 C21.44 4 10.88 4 0 4 C0 2.68 0 1.36 0 0 Z " fill="#FFB800" transform="translate(16,22)"/>
<path d="M0 0 C6.6 0 13.2 0 20 0 C20 1.32 20 2.64 20 4 C13.4 4 6.8 4 0 4 C0 2.68 0 1.36 0 0 Z " fill="#FFB800" transform="translate(16,30)"/>
</svg>
