<?xml version="1.0" encoding="UTF-8"?>
<svg version="1.1" xmlns="http://www.w3.org/2000/svg" width="48" height="48">
<path d="M0 0 C0.77915771 0.00202423 1.55831543 0.00404846 2.36108398 0.00613403 C3.15635498 0.00517731 3.95162598 0.00422058 4.77099609 0.00323486 C6.45564859 0.0025531 8.1403037 0.00440711 9.82495117 0.00857544 C12.41257595 0.01392378 15.00002714 0.00863034 17.58764648 0.00222778 C19.22045937 0.00288857 20.85327215 0.00416973 22.48608398 0.00613403 C23.2652417 0.0041098 24.04439941 0.00208557 24.84716797 0 C30.30863294 0.02399549 30.30863294 0.02399549 31.42358398 1.13894653 C31.52304851 2.90753846 31.55438616 4.68006104 31.55639648 6.45144653 C31.55833008 8.06406372 31.55833008 8.06406372 31.56030273 9.70925903 C31.55643555 10.84105591 31.55256836 11.97285278 31.54858398 13.13894653 C31.55438477 14.83664185 31.55438477 14.83664185 31.56030273 16.56863403 C31.55901367 17.64371216 31.55772461 18.71879028 31.55639648 19.82644653 C31.55526855 20.82031372 31.55414063 21.81418091 31.55297852 22.83816528 C31.42358398 25.13894653 31.42358398 25.13894653 30.42358398 26.13894653 C27.76902205 26.23990218 25.14103223 26.27865652 22.48608398 26.27175903 C21.29317749 26.27319412 21.29317749 26.27319412 20.07617188 26.2746582 C18.39151938 26.27533996 16.70686427 26.27348596 15.0222168 26.26931763 C12.43459202 26.26396929 9.84714083 26.26926272 7.25952148 26.27566528 C5.6267086 26.2750045 3.99389582 26.27372334 2.36108398 26.27175903 C1.58192627 26.27378326 0.80276855 26.2758075 0 26.27789307 C-5.46146497 26.25389758 -5.46146497 26.25389758 -6.57641602 25.13894653 C-6.67588054 23.3703546 -6.70721819 21.59783202 -6.70922852 19.82644653 C-6.71051758 18.75136841 -6.71180664 17.67629028 -6.71313477 16.56863403 C-6.70733398 14.87093872 -6.70733398 14.87093872 -6.70141602 13.13894653 C-6.7052832 12.00714966 -6.70915039 10.87535278 -6.71313477 9.70925903 C-6.7118457 8.63418091 -6.71055664 7.55910278 -6.70922852 6.45144653 C-6.70810059 5.45757935 -6.70697266 4.46371216 -6.70581055 3.43972778 C-6.45432325 -1.03200101 -3.86936553 0.01700044 0 0 Z " fill="#FFFFFF" transform="translate(11.576416015625,8.861053466796875)"/>
<path d="M0 0 C15.18 0 30.36 0 46 0 C46 0.99 46 1.98 46 3 C30.82 3 15.64 3 0 3 C0 2.01 0 1.02 0 0 Z " fill="#FFFFFF" transform="translate(1,38)"/>
</svg>
