<?xml version="1.0" encoding="UTF-8"?>
<svg version="1.1" xmlns="http://www.w3.org/2000/svg" width="48" height="48">
<path d="M0 0 C4.68796317 2.8950501 8.77605467 6.42344712 10.234375 11.89453125 C11.16656452 18.74158704 11.3930195 24.99387098 7.671875 31.01953125 C3.66347868 35.99068326 0.31000422 38.47580101 -6.0078125 39.3359375 C-13.1275177 39.69575056 -18.34453314 39.19135672 -23.98828125 34.640625 C-29.08369757 29.63479842 -30.03494232 26.05750776 -30.390625 19.01953125 C-30.17838344 12.13997715 -28.58962241 7.80486419 -23.765625 2.89453125 C-17.29271618 -2.6344117 -7.84970384 -3.13766411 0 0 Z M-23.140625 10.51953125 C-25.30997969 15.02511407 -25.30598094 18.96931975 -24.765625 23.89453125 C-24.435625 24.55453125 -24.105625 25.21453125 -23.765625 25.89453125 C-22.899375 25.56453125 -22.033125 25.23453125 -21.140625 24.89453125 C-13.08334029 22.5924499 -3.58488391 22.91576595 4.234375 25.89453125 C6.091679 22.17992325 5.67720406 17.94860007 5.234375 13.89453125 C2.90468569 9.05594577 0.07296048 6.22422056 -4.765625 3.89453125 C-12.84880968 2.60438125 -17.62097896 4.41886984 -23.140625 10.51953125 Z M-19.765625 30.89453125 C-15.68722828 34.15724862 -12.17239276 34.33419068 -7.1484375 34.19921875 C-4.13120323 33.81340847 -2.13087135 32.78672833 0.234375 30.89453125 C-3.07231181 27.88989756 -5.34372074 27.48636697 -9.765625 27.51953125 C-11.3125 27.50792969 -11.3125 27.50792969 -12.890625 27.49609375 C-16.05673868 27.93487581 -17.42939597 28.77170776 -19.765625 30.89453125 Z " fill="#FFFFFF" transform="translate(33.765625,5.10546875)"/>
<path d="M0 0 C2.375 1.625 2.375 1.625 4 4 C4.61195145 7.6717087 4.48706506 9.28813568 2.375 12.375 C-0.71186432 14.48706506 -2.3282913 14.61195145 -6 14 C-8.375 12.375 -8.375 12.375 -10 10 C-10.61195145 6.3282913 -10.48706506 4.71186432 -8.375 1.625 C-5.28813568 -0.48706506 -3.6717087 -0.61195145 0 0 Z M-4 5 C-4 6.32 -4 7.64 -4 9 C-3.01 8.67 -2.02 8.34 -1 8 C-1.33 7.01 -1.66 6.02 -2 5 C-2.66 5 -3.32 5 -4 5 Z " fill="#FFFFFF" transform="translate(27,11)"/>
</svg>
