<?xml version="1.0" encoding="UTF-8"?>
<svg version="1.1" xmlns="http://www.w3.org/2000/svg" width="24" height="24">
<path d="M0 0 C6.76722297 3.29685222 6.76722297 3.29685222 8.4375 6.1875 C8.95510839 10.894001 8.78206327 15.47208789 8.4375 20.1875 C5.7975 20.1875 3.1575 20.1875 0.4375 20.1875 C0.4375 17.8775 0.4375 15.5675 0.4375 13.1875 C-0.2225 13.1875 -0.8825 13.1875 -1.5625 13.1875 C-1.5625 15.4975 -1.5625 17.8075 -1.5625 20.1875 C-4.2025 20.1875 -6.8425 20.1875 -9.5625 20.1875 C-10.6190126 7.94536984 -10.6190126 7.94536984 -8.1796875 3.88671875 C-5.524334 1.47850854 -3.60032797 0.26343863 0 0 Z M-6.296875 6.41015625 C-8.77086811 9.8844367 -7.98880665 14.12179773 -7.5625 18.1875 C-6.2425 18.1875 -4.9225 18.1875 -3.5625 18.1875 C-3.5625 15.8775 -3.5625 13.5675 -3.5625 11.1875 C-1.5825 11.1875 0.3975 11.1875 2.4375 11.1875 C2.4375 13.4975 2.4375 15.8075 2.4375 18.1875 C3.7575 18.1875 5.0775 18.1875 6.4375 18.1875 C7.25483738 12.00311721 7.25483738 12.00311721 5.171875 6.41015625 C0.47202991 2.47460636 -1.59702991 2.47460636 -6.296875 6.41015625 Z " fill="#000000" transform="translate(12.5625,1.8125)"/>
</svg>
