<?xml version="1.0" encoding="UTF-8"?>
<svg version="1.1" xmlns="http://www.w3.org/2000/svg" width="522" height="478">
<path d="M0 0 C6.39937755 4.56326922 5.6706735 8.34675648 7.7890625 16.8203125 C7.7890625 32.3303125 7.7890625 47.8403125 7.7890625 63.8203125 C68.8390625 63.8203125 129.8890625 63.8203125 192.7890625 63.8203125 C192.7890625 49.6303125 192.7890625 35.4403125 192.7890625 20.8203125 C195.20951705 6.29758523 195.20951705 6.29758523 200.9765625 0.6953125 C208.98677163 -4.64482692 216.09600705 -6.53084068 225.7890625 -5.1796875 C232.30843098 -3.10092007 237.14834256 0.01791509 240.7890625 5.8203125 C243.36861353 13.34325402 242.98215976 20.8251593 242.8515625 28.6953125 C242.73594505 37.27669689 242.77571864 45.77151734 243.29077148 54.33642578 C243.33834343 55.15768448 243.38591537 55.97894318 243.43492889 56.8250885 C243.55097843 58.82361334 243.66973378 60.82198077 243.7890625 62.8203125 C244.90770691 62.82839935 246.02635132 62.83648621 247.17889404 62.84481812 C257.71450968 62.92225992 268.24999586 63.00999432 278.78544235 63.10783958 C284.20198753 63.15781264 289.61851311 63.20414269 295.03515625 63.2421875 C300.26126289 63.27902741 305.48720596 63.32538402 310.71317291 63.37837601 C312.70825586 63.39692681 314.70337389 63.41203222 316.69850922 63.42365646 C319.49025774 63.44050706 322.28163107 63.46953941 325.07324219 63.50146484 C326.31402023 63.50470512 326.31402023 63.50470512 327.5798645 63.50801086 C334.92293541 63.61547966 334.92293541 63.61547966 337.7890625 65.8203125 C339.02719594 69.53471281 338.80378029 72.86489515 338.66893005 76.72087097 C338.61964253 78.45339944 338.57090117 80.18594351 338.52260685 81.91849995 C338.49485774 82.85969862 338.46710863 83.80089729 338.43851864 84.77061713 C337.80647708 106.89482253 337.69012684 129.01088592 337.70727539 151.1418457 C337.70781266 151.93609352 337.70834993 152.73034135 337.70890348 153.54865728 C337.71608693 163.66969649 337.73136131 173.79071547 337.74904904 183.91174101 C337.76432221 192.90339406 337.77171829 201.89504925 337.7783417 210.88671222 C337.79016701 226.91300393 337.80507711 242.93929067 337.82348633 258.96557617 C337.82457645 259.91640401 337.82566657 260.86723185 337.82678973 261.84687265 C337.83912419 272.51050675 337.85271183 283.17413842 337.86810303 293.83776855 C337.86949748 294.80418826 337.87089193 295.77060797 337.87232864 296.76631312 C337.8751478 298.71724452 337.87796746 300.66817593 337.8807876 302.61910733 C337.88218092 303.58357877 337.88357423 304.5480502 337.88500977 305.54174805 C337.8864033 306.50501679 337.88779683 307.46828553 337.88923258 308.46074424 C337.91222955 324.49711436 337.9275618 340.53348089 337.93656915 356.56986493 C337.94241642 366.42536771 337.95477218 376.28082 337.97554194 386.13630285 C337.98920156 392.85352047 337.99574026 399.57072036 337.99655206 406.28795175 C337.99725828 410.16289262 338.00130791 414.03775801 338.0140152 417.91267967 C338.02768516 422.10245844 338.02606632 426.2920881 338.02284241 430.48188782 C338.02935021 431.7163426 338.03585801 432.95079738 338.04256302 434.22265989 C338.03751492 435.89376129 338.03751492 435.89376129 338.03236485 437.59862232 C338.03366636 438.56573385 338.03496787 439.53284538 338.03630883 440.52926332 C337.7890625 442.8203125 337.7890625 442.8203125 335.7890625 444.8203125 C332.78706264 445.08202553 332.78706264 445.08202553 328.83409119 445.0987854 C327.7418302 445.1074748 327.7418302 445.1074748 326.62750334 445.11633974 C324.1603978 445.13346788 321.6934788 445.13623285 319.22631836 445.13916016 C317.44763808 445.1484639 315.66896212 445.1586258 313.89029121 445.16957569 C308.97269994 445.19720529 304.0551378 445.21214996 299.1374886 445.22499156 C293.81863296 445.24091875 288.49983195 445.26800658 283.18101501 445.29347229 C272.70030494 445.34162083 262.21958338 445.37819768 251.73881358 445.41048473 C243.19201116 445.43691902 234.64523029 445.46719081 226.09844971 445.49990845 C188.99539255 445.64102257 151.89229495 445.74145143 114.7890625 445.8203125 C114.08156211 445.82182395 113.37406173 445.82333539 112.64512193 445.82489264 C72.20646951 445.91124637 31.76784415 445.97089771 -8.67089274 445.99689454 C-18.46973764 446.00322893 -28.26857165 446.01332049 -38.06741012 446.0261397 C-50.73834073 446.04268571 -63.40924412 446.05217408 -76.08018881 446.05016297 C-82.22306837 446.0492989 -88.36590431 446.05155325 -94.50877571 446.06216621 C-100.14404577 446.07173953 -105.7792359 446.07204916 -111.4145087 446.0647819 C-113.46392338 446.06375936 -115.51334298 446.06615749 -117.56274903 446.07219243 C-120.33669989 446.07984191 -123.11036379 446.0753155 -125.88430786 446.06755066 C-126.69363709 446.07269403 -127.50296631 446.07783739 -128.33682066 446.08313662 C-132.16391699 446.05925953 -133.9483581 445.99536543 -137.2109375 443.8203125 C-137.58583432 441.22264475 -137.58583432 441.22264475 -137.58566761 437.85216427 C-137.59287415 436.57184289 -137.6000807 435.29152151 -137.60750562 433.97240251 C-137.60032731 432.53815445 -137.59286836 431.10390778 -137.5851593 429.66966248 C-137.58789735 428.15642122 -137.59194723 426.64318185 -137.59720296 425.12994725 C-137.60783697 420.95598838 -137.59963038 416.78224219 -137.58845246 412.60829246 C-137.57964124 408.11253459 -137.58804522 403.61680549 -137.59431458 399.12104797 C-137.60382428 390.30569604 -137.59718287 381.49042571 -137.58505163 372.67507982 C-137.57145275 362.41179867 -137.57306776 352.14853713 -137.57518496 341.88524926 C-137.57837831 323.56923468 -137.56668957 305.25325892 -137.54711914 286.93725586 C-137.52813303 269.16348079 -137.52102609 251.38975128 -137.52661133 233.6159668 C-137.53267138 214.27393589 -137.5324864 194.93192503 -137.5211255 175.58989578 C-137.51991819 173.52636691 -137.51871221 171.46283803 -137.51750755 169.39930916 C-137.51690401 168.38397296 -137.51630048 167.36863677 -137.51567865 166.32253281 C-137.51180039 159.1693036 -137.51219285 152.01608185 -137.5140934 144.8628521 C-137.51621735 136.13932281 -137.51097665 127.4158334 -137.49647985 118.69231533 C-137.48924322 114.24165814 -137.48515251 109.79105897 -137.48972321 105.34039688 C-137.49380812 101.26347813 -137.48860992 97.18667904 -137.47609713 93.10977841 C-137.47317612 91.63728145 -137.47359202 90.16477316 -137.47774021 88.69227915 C-137.49710454 81.12992209 -137.41782719 74.09319083 -135.2109375 66.8203125 C-127.52953306 61.05925917 -111.67682644 63.69270131 -102.390625 63.72265625 C-100.67855877 63.72452465 -98.96649201 63.72594656 -97.25442505 63.72694397 C-92.779607 63.7307359 -88.30482215 63.74053726 -83.83001709 63.75164795 C-79.25126596 63.76193407 -74.67250939 63.76645692 -70.09375 63.77148438 C-61.13279803 63.78216297 -52.17187054 63.79919877 -43.2109375 63.8203125 C-43.20729187 63.21611481 -43.20364624 62.61191711 -43.19989014 61.9894104 C-43.15785618 55.66166666 -43.08836594 49.33463419 -43.00341797 43.00732422 C-42.97531204 40.650626 -42.95404627 38.29383532 -42.93994141 35.93701172 C-42.91836832 32.53565493 -42.87164279 29.13539763 -42.8203125 25.734375 C-42.81908386 24.69229889 -42.81785522 23.65022278 -42.81658936 22.5765686 C-42.65599415 14.42992955 -41.01947398 7.51153187 -36.0234375 0.9453125 C-24.48237763 -7.7745994 -12.46634701 -6.65165512 0 0 Z M-86.2109375 114.8203125 C-85.8809375 118.1203125 -85.5509375 121.4203125 -85.2109375 124.8203125 C-85.10780297 127.27059552 -85.03774136 129.72256254 -85.00561523 132.17480469 C-84.9957213 132.84662403 -84.98582737 133.51844337 -84.97563362 134.21062088 C-84.94422776 136.42944236 -84.91921253 138.64828178 -84.89453125 140.8671875 C-84.87369614 142.4778678 -84.85260619 144.08854483 -84.83128357 145.69921875 C-84.77508053 150.07298193 -84.72558162 154.44679547 -84.67830658 158.82066345 C-84.64825935 161.58671213 -84.61687405 164.35274317 -84.58526611 167.11877441 C-83.89618425 228.1786749 -83.72974134 289.2459802 -85.04833984 350.29753113 C-85.25255275 360.11744282 -85.32459155 369.93595633 -85.3359375 379.7578125 C-85.33843506 380.49993988 -85.34093262 381.24206726 -85.34350586 382.00668335 C-85.34923047 384.01616616 -85.34677995 386.02566757 -85.34375 388.03515625 C-85.34262207 389.13980225 -85.34149414 390.24444824 -85.34033203 391.38256836 C-85.48613943 393.76798809 -85.48613943 393.76798809 -84.2109375 394.8203125 C-82.2407123 394.92311947 -80.26674532 394.95432306 -78.29384518 394.9589777 C-76.99951437 394.96445214 -75.70518356 394.96992659 -74.37163061 394.97556692 C-72.91644989 394.97664334 -71.4612691 394.97762799 -70.00608826 394.97853088 C-68.47492294 394.98309241 -66.94375887 394.98809182 -65.41259629 394.99349445 C-61.18487449 395.00713167 -56.95716078 395.01450998 -52.72942269 395.02092111 C-48.17792248 395.02890065 -43.62643923 395.04260678 -39.07495117 395.05563354 C-31.18247951 395.07743114 -23.29000617 395.09556357 -15.39752007 395.11123848 C-3.98617219 395.13390729 7.42515694 395.1620542 18.83648895 395.19155776 C37.34858529 395.23927041 55.86068926 395.2825246 74.37280273 395.32299805 C92.360439 395.36233431 110.34806846 395.40375603 128.33569336 395.44799805 C129.443606 395.45072232 130.55151863 395.45344659 131.69300438 395.45625342 C137.25082426 395.46993259 142.80864405 395.48365292 148.36646378 395.49739373 C194.50731584 395.61141618 240.64818262 395.71821274 286.7890625 395.8203125 C286.81708029 368.08568235 286.80242838 340.35330085 286.57330132 312.61952972 C286.53279782 307.69878718 286.4964753 302.77801773 286.46070862 297.85723877 C286.35893168 283.91080864 286.25487989 269.96440246 286.14086914 256.01806641 C286.07709028 248.21218694 286.01808685 240.40628533 285.96400696 232.6003325 C285.93560786 228.52870181 285.90512575 224.45711738 285.86852837 220.38555145 C285.66159142 197.17579902 286.04577892 174.0186799 286.7890625 150.8203125 C286.84185962 149.14034431 286.84185962 149.14034431 286.89572334 147.42643738 C287.08473861 141.42070431 287.27501604 135.41494713 287.4921875 129.41015625 C287.56723322 127.31262828 287.63579121 125.21497511 287.703125 123.1171875 C287.7438916 121.94510742 287.7846582 120.77302734 287.82666016 119.56542969 C287.98858685 116.85692574 287.98858685 116.85692574 286.7890625 114.8203125 C163.6990625 114.8203125 40.6090625 114.8203125 -86.2109375 114.8203125 Z " fill="#FAFBFC" transform="translate(160.2109375,16.1796875)"/>
<path d="M0 0 C1.52981901 -0.00043654 3.05963795 -0.00131298 4.5894565 -0.00258917 C8.77631272 -0.00481777 12.96314321 -0.00083527 17.14999616 0.0041889 C21.67135259 0.00851673 26.19270763 0.00704532 30.71406555 0.00628662 C38.54201665 0.00576287 46.3699594 0.00889419 54.1979084 0.01452446 C65.51573906 0.02265953 76.83356569 0.02525674 88.15139895 0.02651245 C106.51487026 0.02869981 124.87833713 0.03535135 143.24180603 0.04481506 C161.0777433 0.05399734 178.91367937 0.06107419 196.74961853 0.06532288 C197.84945539 0.0655856 198.94929224 0.06584832 200.08245749 0.06611901 C205.60014407 0.06742407 211.11783065 0.06868777 216.63551724 0.06993091 C262.39336203 0.08029369 308.15120196 0.09790343 353.90904236 0.12025452 C355.1221548 2.54647939 355.03328894 4.07449042 355.03209019 6.78606606 C355.03408124 7.7758491 355.03607228 8.76563215 355.03812367 9.78540862 C355.03521083 10.8807213 355.03229798 11.97603399 355.02929688 13.10453796 C355.03057851 14.84056922 355.03057851 14.84056922 355.03188604 16.61167181 C355.03325265 19.83381334 355.0301111 23.05591504 355.02510798 26.27805185 C355.02080222 29.74907845 355.02224999 33.22010308 355.02301025 36.69113159 C355.02353541 42.70814584 355.02038949 48.72514927 355.01477242 54.7421608 C355.00665627 63.44182186 355.00404208 72.14147767 355.00278442 80.8411421 C355.00059409 94.95469035 354.99393449 109.06823284 354.98448181 123.18177795 C354.97530723 136.89434276 354.96822662 150.60690601 354.963974 164.31947327 C354.96357991 165.58666472 354.96357991 165.58666472 354.96317787 166.879456 C354.96187286 171.11740688 354.96060914 175.35535778 354.95936596 179.59330869 C354.94899391 214.76896141 354.93137609 249.94460743 354.90904236 285.12025452 C352.14320963 286.50317088 349.91898329 286.24433811 346.82205009 286.24330235 C345.51527805 286.24529339 344.20850601 286.24728444 342.86213481 286.24933583 C341.39810537 286.2464824 339.9340761 286.24353679 338.470047 286.24050903 C336.92564537 286.24094472 335.38124381 286.24181958 333.83684266 286.2430982 C329.57716338 286.24534365 325.31750905 286.24132118 321.05783296 286.23632014 C316.47023152 286.23201655 311.88263158 286.233462 307.29502869 286.23422241 C299.34145141 286.23474771 291.38788232 286.23160034 283.4343071 286.22598457 C271.93465901 286.2178703 260.4350149 286.21525443 248.93536426 286.21399658 C230.27961539 286.21180595 211.62387089 286.20514555 192.96812439 286.19569397 C174.84182253 286.18652015 156.71552185 286.17943917 138.58921814 286.17518616 C136.91430179 286.17479207 136.91430179 286.17479207 135.20554875 286.17439003 C129.60404738 286.17308502 124.00254599 286.17182131 118.40104461 286.17057812 C71.9037075 286.16020515 25.40637515 286.14258653 -21.09095764 286.12025452 C-21.09095764 285.46025452 -21.09095764 284.80025452 -21.09095764 284.12025452 C-21.75095764 284.12025452 -22.41095764 284.12025452 -23.09095764 284.12025452 C-24.29375694 281.71465591 -24.22224689 280.20992229 -24.23241615 277.52249908 C-24.2385073 276.54788302 -24.24459844 275.57326695 -24.25087416 274.56911707 C-24.25253439 273.49073242 -24.25419461 272.41234776 -24.25590515 271.30128479 C-24.26154869 270.16167596 -24.26719224 269.02206714 -24.2730068 267.84792471 C-24.28769181 264.67526576 -24.2978939 261.50262811 -24.3062253 258.32994723 C-24.31626671 254.91203778 -24.33200199 251.49415399 -24.34701538 248.07626343 C-24.37550685 241.37687599 -24.39860534 234.6774802 -24.41979314 227.97806609 C-24.43710205 222.53523593 -24.45633497 217.09241576 -24.47695541 211.64959717 C-24.47988401 210.87611981 -24.4828126 210.10264245 -24.48582994 209.30572638 C-24.49178678 207.73461789 -24.49774799 206.16350942 -24.50371353 204.59240097 C-24.55947483 189.84633766 -24.60912905 175.10025856 -24.65671854 160.35416692 C-24.697731 147.69040112 -24.74399188 135.02666333 -24.79408264 122.3629303 C-24.85219323 107.67106112 -24.90704489 92.97918576 -24.95668352 78.28728533 C-24.96198181 76.72182749 -24.96728442 75.15636967 -24.9725914 73.59091187 C-24.97520123 72.8205965 -24.97781107 72.05028114 -24.98049999 71.25662288 C-24.99915374 65.81782273 -25.02015617 60.37903453 -25.04205704 54.94024658 C-25.06866981 48.3157937 -25.09171903 41.69134004 -25.11014201 35.06685913 C-25.11963992 31.68438653 -25.13077553 28.30193991 -25.14624596 24.91948891 C-25.16212751 21.25939699 -25.17187242 17.5993404 -25.17997742 13.93922424 C-25.18609909 12.86083959 -25.19222076 11.78245494 -25.19852793 10.67139196 C-25.19940358 9.6967759 -25.20027923 8.72215983 -25.20118141 7.71800995 C-25.20405682 6.87231776 -25.20693223 6.02662557 -25.20989478 5.15530634 C-25.09095764 3.12025452 -25.09095764 3.12025452 -24.09095764 1.12025452 C-16.11931735 -0.23977103 -8.06401664 -0.01715586 0 0 Z M-21.09095764 3.12025452 C-20.76095764 6.42025452 -20.43095764 9.72025452 -20.09095764 13.12025452 C-19.98782311 15.57053754 -19.9177615 18.02250456 -19.88563538 20.4747467 C-19.87574144 21.14656605 -19.86584751 21.81838539 -19.85565376 22.5105629 C-19.8242479 24.72938437 -19.79923267 26.94822379 -19.77455139 29.16712952 C-19.75371628 30.77780982 -19.73262633 32.38848684 -19.71130371 33.99916077 C-19.65510067 38.37292394 -19.60560177 42.74673749 -19.55832672 47.12060547 C-19.52827949 49.88665415 -19.49689419 52.65268518 -19.46528625 55.41871643 C-18.77620439 116.47861692 -18.60976149 177.54592221 -19.92835999 238.59747314 C-20.13257289 248.41738484 -20.20461169 258.23589835 -20.21595764 268.05775452 C-20.2184552 268.7998819 -20.22095276 269.54200928 -20.223526 270.30662537 C-20.22925062 272.31610818 -20.22680009 274.32560958 -20.22377014 276.33509827 C-20.22264221 277.43974426 -20.22151428 278.54439026 -20.22035217 279.68251038 C-20.36615957 282.06793011 -20.36615957 282.06793011 -19.09095764 283.12025452 C-17.12073244 283.22306148 -15.14676546 283.25426508 -13.17386532 283.25891972 C-11.87953451 283.26439416 -10.5852037 283.2698686 -9.25165075 283.27550894 C-7.79647003 283.27658535 -6.34128924 283.27757 -4.8861084 283.2784729 C-3.35494308 283.28303442 -1.82377901 283.28803383 -0.29261643 283.29343647 C3.93510537 283.30707369 8.16281908 283.314452 12.39055717 283.32086313 C16.94205738 283.32884267 21.49354063 283.34254879 26.04502869 283.35557556 C33.93750035 283.37737316 41.82997369 283.39550558 49.72245979 283.4111805 C61.13380767 283.43384931 72.5451368 283.46199622 83.95646881 283.49149977 C102.46856515 283.53921243 120.98066912 283.58246662 139.49278259 283.62294006 C157.48041886 283.66227633 175.46804832 283.70369804 193.45567322 283.74794006 C194.56358585 283.75066434 195.67149849 283.75338861 196.81298424 283.75619543 C202.37080412 283.7698746 207.9286239 283.78359494 213.48644364 283.79733574 C259.6272957 283.9113582 305.76816248 284.01815475 351.90904236 284.12025452 C351.93706015 256.38562436 351.92240824 228.65324287 351.69328117 200.91947174 C351.65277768 195.99872919 351.61645516 191.07795975 351.58068848 186.15718079 C351.47891154 172.21075065 351.37485975 158.26434448 351.260849 144.31800842 C351.19707014 136.51212895 351.13806671 128.70622735 351.08398682 120.90027452 C351.05558772 116.82864383 351.02510561 112.7570594 350.98850822 108.68549347 C350.78157128 85.47574104 351.16575877 62.31862191 351.90904236 39.12025452 C351.96183948 37.44028633 351.96183948 37.44028633 352.0157032 35.72637939 C352.20471847 29.72064632 352.3949959 23.71488914 352.61216736 17.71009827 C352.68721308 15.61257029 352.75577107 13.51491713 352.82310486 11.41712952 C352.86387146 10.24504944 352.90463806 9.07296936 352.94664001 7.8653717 C353.10856671 5.15686776 353.10856671 5.15686776 351.90904236 3.12025452 C228.81904236 3.12025452 105.72904236 3.12025452 -21.09095764 3.12025452 Z " fill="#E0E0E1" transform="translate(95.09095764160156,127.87974548339844)"/>
<path d="M0 0 C0.87107895 -0.00637985 1.7421579 -0.0127597 2.63963318 -0.01933289 C3.58234573 -0.02044571 4.52505829 -0.02155853 5.49633789 -0.02270508 C6.46301895 -0.02603348 7.42970001 -0.02936188 8.42567444 -0.03279114 C10.47258019 -0.0378595 12.51949423 -0.04019949 14.56640625 -0.04003906 C17.70269343 -0.04222497 20.83862864 -0.06038008 23.97485352 -0.0793457 C25.96118043 -0.08227972 27.94750903 -0.08426446 29.93383789 -0.08520508 C30.87452621 -0.09239059 31.81521454 -0.09957611 32.78440857 -0.10697937 C33.65863968 -0.10390274 34.53287079 -0.10082611 35.43359375 -0.09765625 C36.58703529 -0.09979378 36.58703529 -0.09979378 37.76377869 -0.10197449 C39.78149414 0.14526367 39.78149414 0.14526367 42.78149414 2.14526367 C43.15571594 4.07395935 43.15571594 4.07395935 43.15380859 6.45556641 C43.16315178 7.79221596 43.16315178 7.79221596 43.17268372 9.15586853 C43.16347397 10.12045486 43.15426422 11.0850412 43.14477539 12.07885742 C43.14552315 13.56217308 43.14552315 13.56217308 43.14628601 15.07545471 C43.14394267 17.16946417 43.13419891 19.26347629 43.11767578 21.35742188 C43.09411535 24.56625529 43.09710895 27.77425658 43.10375977 30.9831543 C43.09818215 33.0150603 43.09107174 35.0469628 43.08227539 37.07885742 C43.0836425 38.52270058 43.0836425 38.52270058 43.08503723 39.99571228 C43.07550522 40.88996414 43.06597321 41.784216 43.05615234 42.70556641 C43.05154495 43.49229233 43.04693756 44.27901825 43.04219055 45.08958435 C42.78149414 47.14526367 42.78149414 47.14526367 40.78149414 50.14526367 C38.85279846 50.51275635 38.85279846 50.51275635 36.47119141 50.50170898 C35.13454185 50.50621063 35.13454185 50.50621063 33.77088928 50.51080322 C32.80630295 50.49845642 31.84171661 50.48610962 30.84790039 50.47338867 C29.85902328 50.4715155 28.87014618 50.46964233 27.8513031 50.4677124 C25.75727983 50.4609817 23.66326935 50.44704715 21.56933594 50.42651367 C18.36063984 50.39542495 15.15243513 50.38555039 11.94360352 50.37963867 C9.91169648 50.37046614 7.87979444 50.36008957 5.84790039 50.34838867 C4.40405724 50.34201385 4.40405724 50.34201385 2.93104553 50.33551025 C2.03679367 50.32590271 1.14254181 50.31629517 0.22119141 50.30639648 C-0.56553452 50.29956848 -1.35226044 50.29274048 -2.16282654 50.28570557 C-4.21850586 50.14526367 -4.21850586 50.14526367 -7.21850586 49.14526367 C-8.11756953 46.44807267 -8.34889526 44.87360289 -8.36376953 42.10449219 C-8.37014938 41.29677872 -8.37652924 40.48906525 -8.38310242 39.65687561 C-8.38421524 38.78808273 -8.38532806 37.91928986 -8.38647461 37.02416992 C-8.38980301 36.12786362 -8.39313141 35.23155731 -8.39656067 34.30809021 C-8.40162275 32.4125927 -8.40396922 30.51708629 -8.40380859 28.62158203 C-8.4059948 25.72242552 -8.42415728 22.82364971 -8.44311523 19.92456055 C-8.44604935 18.08276497 -8.44803403 16.24096759 -8.44897461 14.39916992 C-8.45616013 13.53240128 -8.46334564 12.66563263 -8.4707489 11.77259827 C-8.46767227 10.96173264 -8.46459564 10.150867 -8.46142578 9.31542969 C-8.4628508 8.60500015 -8.46427582 7.89457062 -8.46574402 7.16261292 C-8.17336561 4.77694006 -7.47550845 3.18609336 -6.21850586 1.14526367 C-3.90808955 -0.00994448 -2.57084923 0.01275709 0 0 Z " fill="#F9FAFB" transform="translate(149.218505859375,292.854736328125)"/>
<path d="M0 0 C1.17731176 2.35462352 1.13891008 3.79240822 1.16113281 6.41796875 C1.17074036 7.33231689 1.1803479 8.24666504 1.19024658 9.1887207 C1.19449646 10.17831787 1.19874634 11.16791504 1.203125 12.1875 C1.20882507 13.20094482 1.21452515 14.21438965 1.22039795 15.25854492 C1.22985331 17.40379795 1.23638405 19.54906553 1.24023438 21.69433594 C1.24996036 24.98658308 1.28098722 28.27821144 1.3125 31.5703125 C1.3190278 33.65103795 1.32427914 35.73176787 1.328125 37.8125 C1.3404718 38.80209717 1.3528186 39.79169434 1.36553955 40.8112793 C1.36253845 41.72562744 1.35953735 42.63997559 1.35644531 43.58203125 C1.36191376 44.79209839 1.36191376 44.79209839 1.36749268 46.02661133 C1.24622009 46.67782959 1.12494751 47.32904785 1 48 C-2.13883832 50.09255888 -2.8648127 50.25155871 -6.43969727 50.25878906 C-7.33394913 50.26509338 -8.22820099 50.27139771 -9.14955139 50.27789307 C-10.11211349 50.2738446 -11.0746756 50.26979614 -12.06640625 50.265625 C-13.551157 50.26849518 -13.551157 50.26849518 -15.06590271 50.27142334 C-17.15811416 50.27278438 -19.25033407 50.26909362 -21.3425293 50.26074219 C-24.55341446 50.25003031 -27.76374153 50.26064618 -30.97460938 50.2734375 C-33.00520957 50.27211611 -35.03580942 50.26955415 -37.06640625 50.265625 C-38.51328575 50.27169769 -38.51328575 50.27169769 -39.98939514 50.27789307 C-40.88049484 50.27158875 -41.77159454 50.26528442 -42.68969727 50.25878906 C-43.47562759 50.25719788 -44.26155792 50.25560669 -45.07130432 50.25396729 C-47 50 -47 50 -49 48 C-49.25396729 46.16069031 -49.25396729 46.16069031 -49.25878906 43.9050293 C-49.26509338 43.06042648 -49.27139771 42.21582367 -49.27789307 41.34562683 C-49.2738446 40.43106216 -49.26979614 39.5164975 -49.265625 38.57421875 C-49.26753845 37.63447708 -49.2694519 36.69473541 -49.27142334 35.72651672 C-49.27278612 33.73507419 -49.26908324 31.7436228 -49.26074219 29.75219727 C-49.25007972 26.71024445 -49.26061586 23.66888705 -49.2734375 20.62695312 C-49.27211522 18.69270703 -49.26955141 16.75846131 -49.265625 14.82421875 C-49.26967346 13.91572678 -49.27372192 13.0072348 -49.27789307 12.07121277 C-49.24494986 7.6083289 -49.11326339 4.05286983 -47 0 C-4.79479063 -1.59826354 -4.79479063 -1.59826354 0 0 Z " fill="#F9FAFB" transform="translate(379,199)"/>
<path d="M0 0 C0.87100342 -0.00945648 1.74200684 -0.01891296 2.6394043 -0.02865601 C3.57695557 -0.02258331 4.51450684 -0.01651062 5.48046875 -0.01025391 C6.44573486 -0.01312408 7.41100098 -0.01599426 8.40551758 -0.01895142 C10.44645779 -0.02099302 12.48741752 -0.01545648 14.52832031 -0.00292969 C17.65604315 0.01312239 20.78247371 -0.00277536 23.91015625 -0.02197266 C25.89192994 -0.01999024 27.87370283 -0.0161466 29.85546875 -0.01025391 C30.79302002 -0.0163266 31.73057129 -0.02239929 32.6965332 -0.02865601 C33.56753662 -0.01919952 34.43854004 -0.00974304 35.3359375 0 C36.10188232 0.00238678 36.86782715 0.00477356 37.65698242 0.00723267 C40.26304748 0.50091225 41.13235332 1.2403969 42.66796875 3.38818359 C43.04891968 5.44386292 43.04891968 5.44386292 43.05615234 7.82788086 C43.06560883 8.72213272 43.07506531 9.61638458 43.08480835 10.53773499 C43.07873566 11.50029709 43.07266296 12.46285919 43.06640625 13.45458984 C43.06927643 14.44442368 43.07214661 15.43425751 43.07510376 16.4540863 C43.07714532 18.54630099 43.07160908 20.63853472 43.05908203 22.73071289 C43.04301302 25.94183774 43.05893671 29.15170709 43.078125 32.36279297 C43.07614292 34.39339472 43.07229997 36.42399568 43.06640625 38.45458984 C43.07551529 39.90146935 43.07551529 39.90146935 43.08480835 41.37757874 C43.07535187 42.26867844 43.06589539 43.15977814 43.05615234 44.07788086 C43.05376556 44.86381119 43.05137878 45.64974152 43.04891968 46.45948792 C42.92320587 47.09595749 42.79749207 47.73242706 42.66796875 48.38818359 C39.52913043 50.48074247 38.80315605 50.6397423 35.22827148 50.64697266 C34.33401962 50.65327698 33.43976776 50.6595813 32.51841736 50.66607666 C31.55585526 50.6620282 30.59329315 50.65797974 29.6015625 50.65380859 C28.11681175 50.65667877 28.11681175 50.65667877 26.60206604 50.65960693 C24.50985459 50.66096797 22.41763468 50.65727722 20.32543945 50.64892578 C17.11455429 50.6382139 13.90422722 50.64882977 10.69335938 50.66162109 C8.66275918 50.66029971 6.63215933 50.65773775 4.6015625 50.65380859 C3.154683 50.65988129 3.154683 50.65988129 1.67857361 50.66607666 C0.78747391 50.65977234 -0.10362579 50.65346802 -1.02172852 50.64697266 C-1.80765884 50.64538147 -2.59358917 50.64379028 -3.40333557 50.64215088 C-5.33203125 50.38818359 -5.33203125 50.38818359 -7.33203125 48.38818359 C-7.59272766 46.45948792 -7.59272766 46.45948792 -7.60668945 44.07788086 C-7.62098747 42.74123131 -7.62098747 42.74123131 -7.63557434 41.37757874 C-7.63466293 40.4129924 -7.63375153 39.44840607 -7.6328125 38.45458984 C-7.63709763 37.46571274 -7.64138275 36.47683563 -7.64579773 35.45799255 C-7.65154762 33.3640113 -7.65203646 31.27001006 -7.64770508 29.17602539 C-7.64454741 25.96710199 -7.66798843 22.75910212 -7.69335938 19.55029297 C-7.69563247 17.51839309 -7.69633582 15.48649073 -7.6953125 13.45458984 C-7.70452225 12.49202774 -7.71373199 11.52946564 -7.72322083 10.53773499 C-7.71699203 9.64348312 -7.71076324 8.74923126 -7.7043457 7.82788086 C-7.70497513 7.04115494 -7.70560455 6.25442902 -7.70625305 5.44386292 C-6.89252995 0.97391022 -4.20721995 0.01311022 0 0 Z " fill="#F7F8F9" transform="translate(337.33203125,292.61181640625)"/>
<path d="M0 0 C0.84775497 -0.00953201 1.69550995 -0.01906403 2.56895447 -0.02888489 C3.4814949 -0.02797348 4.39403534 -0.02706207 5.33422852 -0.02612305 C6.27492691 -0.03040817 7.21562531 -0.0346933 8.18482971 -0.03910828 C10.17448115 -0.04485165 12.16415359 -0.04535178 14.15380859 -0.04101562 C17.19803709 -0.03785746 20.24129221 -0.06130851 23.28540039 -0.08666992 C25.21834187 -0.08894309 27.15128597 -0.08964633 29.08422852 -0.08862305 C29.99474472 -0.09783279 30.90526093 -0.10704254 31.84336853 -0.11653137 C32.69427567 -0.11030258 33.5451828 -0.10407379 34.421875 -0.09765625 C35.16783432 -0.09828568 35.91379364 -0.0989151 36.68235779 -0.0995636 C39.44571468 0.39445053 40.79340761 1.29810467 42.77563477 3.2746582 C43.27684021 5.33033752 43.27684021 5.33033752 43.27734375 7.71435547 C43.2867247 8.60860733 43.29610565 9.50285919 43.30577087 10.42420959 C43.2945369 11.3867717 43.28330292 12.3493338 43.27172852 13.34106445 C43.27318375 14.33089828 43.27463898 15.32073212 43.27613831 16.34056091 C43.27447823 18.43279972 43.26290491 20.52505061 43.2421875 22.6171875 C43.21321374 25.82840531 43.22158011 29.03797516 43.23461914 32.24926758 C43.22838258 34.2798746 43.21999228 36.31047638 43.20922852 38.34106445 C43.21216415 39.30565079 43.21509979 40.27023712 43.21812439 41.26405334 C43.19909813 42.6007029 43.19909813 42.6007029 43.1796875 43.96435547 C43.17428452 44.7502858 43.16888153 45.53621613 43.16331482 46.34596252 C42.77563477 48.2746582 42.77563477 48.2746582 39.77563477 50.2746582 C37.76464844 50.52862549 37.76464844 50.52862549 35.44360352 50.53344727 C34.5726001 50.53975159 33.70159668 50.54605591 32.80419922 50.55255127 C31.86664795 50.54850281 30.92909668 50.54445435 29.96313477 50.5402832 C28.99786865 50.54219666 28.03260254 50.54411011 27.03808594 50.54608154 C24.99714904 50.54744261 22.95620347 50.54375165 20.9152832 50.53540039 C17.78780711 50.52469985 14.66090545 50.53529842 11.53344727 50.5480957 C9.55167516 50.54677409 7.56990342 50.54421167 5.58813477 50.5402832 C4.6505835 50.54433167 3.71303223 50.54838013 2.74707031 50.55255127 C1.87606689 50.54624695 1.00506348 50.53994263 0.10766602 50.53344727 C-0.65827881 50.53185608 -1.42422363 50.53026489 -2.21337891 50.52862549 C-4.22436523 50.2746582 -4.22436523 50.2746582 -7.22436523 48.2746582 C-7.60531616 46.30126953 -7.60531616 46.30126953 -7.61254883 43.85668945 C-7.62200531 42.94234131 -7.63146179 42.02799316 -7.64120483 41.0859375 C-7.63513214 40.09634033 -7.62905945 39.10674316 -7.62280273 38.0871582 C-7.62567291 37.07371338 -7.62854309 36.06026855 -7.63150024 35.01611328 C-7.6335441 32.87084394 -7.62799184 30.72555609 -7.61547852 28.58032227 C-7.59942982 25.28790805 -7.61531678 21.99672153 -7.63452148 18.7043457 C-7.63253911 16.62361381 -7.62869556 14.54288269 -7.62280273 12.4621582 C-7.63191177 10.97776245 -7.63191177 10.97776245 -7.64120483 9.46337891 C-7.63174835 8.54903076 -7.62229187 7.63468262 -7.61254883 6.69262695 C-7.61016205 5.88591553 -7.60777527 5.0792041 -7.60531616 4.24804688 C-7.41674545 3.27121948 -7.41674545 3.27121948 -7.22436523 2.2746582 C-4.14381624 0.22095887 -3.48261073 0.02153319 0 0 Z " fill="#FDFDFD" transform="translate(243.224365234375,198.725341796875)"/>
<path d="M0 0 C0.7527269 -0.0033284 1.5054538 -0.0066568 2.2809906 -0.01008606 C3.86171869 -0.01511752 5.44245727 -0.01749556 7.02319336 -0.01733398 C9.43035365 -0.0195283 11.83706069 -0.03774521 14.24414062 -0.05664062 C15.78775887 -0.05957387 17.33137926 -0.06155913 18.875 -0.0625 C19.58765518 -0.06968552 20.30031036 -0.07687103 21.03456116 -0.08427429 C25.3563914 -0.0646534 28.85253942 0.5838555 32.87109375 2.16796875 C32.94707124 8.52165072 32.99966272 14.87521584 33.03588867 21.22924805 C33.05098819 23.39140196 33.07146946 25.55352518 33.09741211 27.71557617 C33.13374392 30.82087775 33.15080837 33.92577489 33.1640625 37.03125 C33.17954636 38.00008621 33.19503021 38.96892242 33.21098328 39.96711731 C33.21120987 40.86782455 33.21143646 41.7685318 33.21166992 42.6965332 C33.21833176 43.48929153 33.22499359 44.28204987 33.2318573 45.09883118 C32.76857126 47.7559803 32.062385 48.6172495 29.87109375 50.16796875 C27.81541443 50.53546143 27.81541443 50.53546143 25.43139648 50.52441406 C24.09001869 50.52891571 24.09001869 50.52891571 22.72154236 50.5335083 C21.75898026 50.5211615 20.79641815 50.5088147 19.8046875 50.49609375 C18.81485367 50.49422058 17.82501984 50.49234741 16.80519104 50.49041748 C14.71294791 50.48369469 12.62071739 50.46977571 10.52856445 50.44921875 C7.31775293 50.41805764 4.10743213 50.40824758 0.89648438 50.40234375 C-1.1341206 50.39317411 -3.16472056 50.38279846 -5.1953125 50.37109375 C-6.15989883 50.36684387 -7.12448517 50.36259399 -8.11830139 50.35821533 C-9.00940109 50.34860779 -9.90050079 50.33900024 -10.81860352 50.32910156 C-11.60453384 50.32227356 -12.39046417 50.31544556 -13.20021057 50.30841064 C-15.12890625 50.16796875 -15.12890625 50.16796875 -17.12890625 49.16796875 C-17.17950015 42.6535167 -17.21459481 36.13911507 -17.23876953 29.62451172 C-17.2488445 27.40704454 -17.26250484 25.1895907 -17.27978516 22.97216797 C-17.30396788 19.79000563 -17.31537422 16.60801851 -17.32421875 13.42578125 C-17.33454132 12.42990997 -17.34486389 11.4340387 -17.35549927 10.4079895 C-17.35565033 9.48718597 -17.35580139 8.56638245 -17.35595703 7.61767578 C-17.36039825 6.80493195 -17.36483948 5.99218811 -17.36941528 5.15481567 C-17.12890625 3.16796875 -17.12890625 3.16796875 -15.12890625 1.16796875 C-10.09682167 0.17589881 -5.11261635 0.00800618 0 0 Z " fill="#FEFEFE" transform="translate(253.12890625,292.83203125)"/>
<path d="M0 0 C1.31134666 -0.00461494 1.31134666 -0.00461494 2.64918518 -0.00932312 C4.06021767 0.00145515 4.06021767 0.00145515 5.49975586 0.01245117 C6.46739365 0.01290939 7.43503143 0.01336761 8.43199158 0.01383972 C10.47713447 0.01686061 12.52227509 0.02474204 14.56738281 0.03710938 C17.70573025 0.05536832 20.84378272 0.05761902 23.98217773 0.05737305 C25.96720634 0.06228819 27.95223294 0.0681165 29.93725586 0.07495117 C30.87996841 0.076064 31.82268097 0.07717682 32.79396057 0.07832336 C33.66503952 0.08470322 34.53611847 0.09108307 35.43359375 0.09765625 C36.5858419 0.10337395 36.5858419 0.10337395 37.7613678 0.10920715 C39.65209961 0.24291992 39.65209961 0.24291992 41.65209961 1.24291992 C42.41365447 12.40785821 42.77977225 23.55146515 42.83959961 34.74291992 C42.85249023 35.92990479 42.86538086 37.11688965 42.87866211 38.33984375 C42.8805957 40.00889771 42.8805957 40.00889771 42.88256836 41.71166992 C42.88667725 42.70618164 42.89078613 43.70069336 42.89501953 44.7253418 C42.65209961 47.24291992 42.65209961 47.24291992 40.65209961 50.24291992 C38.68544006 50.61714172 38.68544006 50.61714172 36.25 50.61523438 C35.33887955 50.62146317 34.42775909 50.62769196 33.48902893 50.6341095 C32.50256882 50.62489975 31.5161087 50.61569 30.49975586 50.60620117 C29.48868271 50.60669968 28.47760956 50.60719818 27.43589783 50.60771179 C25.29481037 50.60536835 23.1537203 50.59562405 21.01269531 50.57910156 C17.73143917 50.55554084 14.45099676 50.55853472 11.16967773 50.56518555 C9.09219892 50.55960795 7.01472354 50.55249756 4.93725586 50.54370117 C3.95281998 50.54461258 2.96838409 50.54552399 1.95411682 50.54646301 C1.03984421 50.536931 0.12557159 50.52739899 -0.81640625 50.51757812 C-1.62089706 50.51297073 -2.42538788 50.50836334 -3.2542572 50.50361633 C-5.34790039 50.24291992 -5.34790039 50.24291992 -8.34790039 48.24291992 C-8.7043457 46.16186523 -8.7043457 46.16186523 -8.67602539 43.57104492 C-8.67175537 42.60634277 -8.66748535 41.64164063 -8.66308594 40.64770508 C-8.64157471 39.60662598 -8.62006348 38.56554687 -8.59790039 37.49291992 C-8.58476807 36.42992676 -8.57163574 35.36693359 -8.55810547 34.27172852 C-8.50742957 30.92810803 -8.43008893 27.58590227 -8.34790039 24.24291992 C-8.32711426 23.16880859 -8.30632812 22.09469727 -8.28491211 20.98803711 C-8.22146036 17.9470531 -8.13399043 14.90794898 -8.03540039 11.86791992 C-8.0020459 10.46074707 -8.0020459 10.46074707 -7.96801758 9.02514648 C-7.93224609 8.16115234 -7.89647461 7.2971582 -7.85961914 6.40698242 C-7.83343506 5.64853027 -7.80725098 4.89007813 -7.78027344 4.10864258 C-6.84707221 0.08180813 -3.48496847 -0.00645825 0 0 Z " fill="#F8F9FA" transform="translate(149.347900390625,198.757080078125)"/>
<path d="M0 0 C121.77 0 243.54 0 369 0 C370.21311244 2.42622488 370.12424658 3.9542359 370.12304783 6.66581154 C370.12503888 7.65559458 370.12702993 8.64537763 370.12908131 9.6651541 C370.12616847 10.76046678 370.12325563 11.85577947 370.12025452 12.98428345 C370.12153615 14.7203147 370.12153615 14.7203147 370.12284368 16.49141729 C370.12421029 19.71355882 370.12106874 22.93566052 370.11606562 26.15779734 C370.11175986 29.62882393 370.11320764 33.09984856 370.1139679 36.57087708 C370.11449305 42.58789132 370.11134713 48.60489475 370.10573006 54.62190628 C370.09761391 63.32156734 370.09499972 72.02122315 370.09374207 80.72088759 C370.09155173 94.83443584 370.08489213 108.94797832 370.07543945 123.06152344 C370.06626487 136.77408825 370.05918426 150.48665149 370.05493164 164.19921875 C370.05453756 165.4664102 370.05453756 165.4664102 370.05413551 166.75920148 C370.0528305 170.99715237 370.05156679 175.23510327 370.05032361 179.47305417 C370.03995156 214.64870689 370.02233373 249.82435292 370 285 C367.23416728 286.38291636 365.00994093 286.12408359 361.91300774 286.12304783 C360.60623569 286.12503888 359.29946365 286.12702993 357.95309246 286.12908131 C356.48906301 286.12622788 355.02503374 286.12328228 353.56100464 286.12025452 C352.01660301 286.1206902 350.47220146 286.12156506 348.9278003 286.12284368 C344.66812102 286.12508914 340.40846669 286.12106666 336.1487906 286.11606562 C331.56118916 286.11176203 326.97358922 286.11320748 322.38598633 286.1139679 C314.43240905 286.11449319 306.47883996 286.11134583 298.52526474 286.10573006 C287.02561666 286.09761578 275.52597254 286.09499991 264.0263219 286.09374207 C245.37057303 286.09155143 226.71482853 286.08489104 208.05908203 286.07543945 C189.93278017 286.06626563 171.80647949 286.05918465 153.68017578 286.05493164 C152.00525943 286.05453756 152.00525943 286.05453756 150.29650639 286.05413551 C144.69500502 286.05283051 139.09350364 286.05156679 133.49200225 286.05032361 C86.99466514 286.03995064 40.4973328 286.02233201 -6 286 C-6 285.67 -6 285.34 -6 285 C-4.84061098 284.99739563 -4.84061098 284.99739563 -3.65779996 284.99473864 C42.1196308 284.89178186 87.89704694 284.78368483 133.67444961 284.66888306 C139.16708089 284.65511295 144.65971229 284.64138594 150.15234375 284.62768555 C151.7926174 284.62359309 151.7926174 284.62359309 153.46602789 284.61941796 C171.18806879 284.57530458 188.91011607 284.53468416 206.63216814 284.49534739 C224.8073167 284.45492742 242.98245338 284.41077055 261.15758443 284.36312145 C272.3788066 284.33382165 283.60002787 284.30746066 294.82126549 284.28482103 C302.5088999 284.26903188 310.19651979 284.24962344 317.88413808 284.22733159 C322.32401709 284.21456528 326.7638849 284.20343045 331.20377731 284.19658089 C335.26506801 284.1902803 339.32632009 284.17945549 343.3875896 284.1649667 C344.86005598 284.16052398 346.33252857 284.15777004 347.80500135 284.15683801 C349.80062654 284.15533264 351.79624345 284.14718103 353.79185104 284.1386652 C354.90215329 284.13600716 356.01245553 284.13334911 357.1564033 284.13061053 C359.91929007 284.10180915 359.91929007 284.10180915 362.20050931 283.42883343 C364 283 364 283 367 284 C366.97298004 282.90036926 366.94596008 281.80073853 366.91812134 280.66778564 C365.97069658 241.32243113 365.67180968 201.97689595 365.42604947 162.62226534 C365.38167175 155.603741 365.33008383 148.58528275 365.27696168 141.56681991 C365.22483299 134.6379143 365.17774083 127.70898531 365.13427413 120.78002 C365.10866323 116.70839889 365.08138777 112.6368115 365.0489006 108.56523895 C364.87660689 86.65443623 365.20361795 64.79079196 365.88209915 42.88986778 C366.03516624 37.83977058 366.16104964 32.78924502 366.28125 27.73828125 C366.33586345 25.6069904 366.39162091 23.47573368 366.44775391 21.34448242 C366.48419477 19.9272052 366.51888927 18.50988246 366.55224609 17.0925293 C366.60349834 14.93264689 366.66049462 12.77298456 366.71875 10.61328125 C366.74904297 9.40454346 366.77933594 8.19580566 366.81054688 6.95043945 C367 4 367 4 368 1 C246.56 1 125.12 1 0 1 C0 0.67 0 0.34 0 0 Z " fill="#EEEFF0" transform="translate(80,128)"/>
<path d="M0 0 C0.33 0 0.66 0 1 0 C1.0505894 6.79928419 1.08568667 13.5985201 1.10986328 20.39794922 C1.11993892 22.71242079 1.13359975 25.02687959 1.15087891 27.34130859 C1.17505865 30.66246693 1.1864673 33.9834574 1.1953125 37.3046875 C1.20563507 38.34430634 1.21595764 39.38392517 1.22659302 40.45504761 C1.22674408 41.41589264 1.22689514 42.37673767 1.22705078 43.36669922 C1.231492 44.21497284 1.23593323 45.06324646 1.24050903 45.93722534 C1 48 1 48 -1 50 C-4.02713966 50.26171303 -4.02713966 50.26171303 -8.01553345 50.2784729 C-9.11733736 50.28716203 -9.11733736 50.28716203 -10.24139994 50.29602671 C-12.72949893 50.3131526 -15.217413 50.31591898 -17.70556641 50.31884766 C-19.49865763 50.32815319 -21.29174456 50.33831784 -23.08482647 50.34927177 C-28.03891193 50.37689693 -32.99296842 50.39185175 -37.94711137 50.4046917 C-43.29755066 50.42058604 -48.64793586 50.4476025 -53.99833679 50.47302246 C-64.5241713 50.52102912 -75.05001736 50.55754034 -85.57591039 50.58992171 C-94.15132084 50.6164672 -102.72670713 50.64720128 -111.30209351 50.68060303 C-188.62106574 50.98007124 -265.94038714 51.10063273 -343.25990415 51.12139618 C-349.96890642 51.1232105 -356.67790786 51.12545836 -363.38690948 51.12897491 C-378.73094922 51.13695897 -394.07497448 51.14006075 -409.41901588 51.13444519 C-414.0912792 51.13288256 -418.76353393 51.13351838 -423.43579674 51.13612366 C-428.82240987 51.13898799 -434.20899972 51.13709063 -439.59561038 51.13136172 C-441.54779738 51.13006956 -443.49998635 51.13045469 -445.45217252 51.13267446 C-448.1060663 51.13541 -450.75988368 51.13197317 -453.41377258 51.12698364 C-454.17351889 51.12921417 -454.93326519 51.13144469 -455.71603411 51.13374281 C-460.55695039 51.1161052 -465.20596216 50.68112198 -470 50 C-469.67 49.34 -469.34 48.68 -469 48 C-314.89 48 -160.78 48 -2 48 C-1.67 32.49 -1.34 16.98 -1 1 C-0.67 0.67 -0.34 0.34 0 0 Z " fill="#E2E2E3" transform="translate(497,411)"/>
<path d="M0 0 C1.50113589 -0.00043719 3.00227171 -0.00131481 4.50340712 -0.00258917 C8.58775433 -0.00480512 12.67207488 -0.000853 16.7564187 0.0041889 C21.17611846 0.00853526 25.59581689 0.00704402 30.01551819 0.00628662 C37.65949226 0.00576403 45.30345775 0.00888313 52.94742966 0.01452446 C63.99912761 0.02267539 75.05082145 0.02525836 86.10252209 0.02651245 C104.03617471 0.02869734 121.96982276 0.03534212 139.9034729 0.04481506 C157.31720965 0.05400377 174.73094515 0.06107747 192.14468384 0.06532288 C193.21931111 0.0655856 194.29393839 0.06584832 195.40113012 0.06611901 C200.79259096 0.06742411 206.1840518 0.0686878 211.57551265 0.06993091 C256.25417183 0.08028597 300.93282604 0.09788893 345.61148071 0.12025452 C345.28148071 1.11025452 344.95148071 2.10025452 344.61148071 3.12025452 C306.62493382 3.1433503 268.63838802 3.1608674 230.65183548 3.17131985 C226.12536305 3.17256994 221.59889063 3.17386432 217.07241821 3.17518616 C215.72120884 3.17557962 215.72120884 3.17557962 214.34270231 3.17598104 C199.92490101 3.18028403 185.50710387 3.18814057 171.089305 3.19740731 C156.19768313 3.20689582 141.30606337 3.2123415 126.41443861 3.21434301 C118.09122609 3.2155695 109.76802216 3.21843822 101.44481277 3.22598457 C58.15710607 3.26411634 14.89216159 2.92343192 -28.38851929 2.12025452 C-28.71851929 3.11025452 -29.04851929 4.10025452 -29.38851929 5.12025452 C-29.38851929 3.80025452 -29.38851929 2.48025452 -29.38851929 1.12025452 C-19.56991759 0.28491395 -9.85334658 -0.02167197 0 0 Z " fill="#CECED1" transform="translate(102.38851928710938,128.87974548339844)"/>
<path d="M0 0 C0.33 0 0.66 0 1 0 C1 92.07 1 184.14 1 279 C-1.09635311 274.80729378 -1.33298288 271.86064125 -1.39208984 267.32421875 C-1.40977543 266.52631424 -1.42746101 265.72840973 -1.44568253 264.90632629 C-1.50278227 262.16681384 -1.54469263 259.42729457 -1.5859375 256.6875 C-1.62262972 254.67186979 -1.65961804 252.65624496 -1.6968689 250.640625 C-2.23462172 219.73427748 -2.38190718 188.82033947 -2.57395244 157.91036797 C-2.61825513 150.86694035 -2.66985568 143.8235797 -2.72303832 136.78021431 C-2.77517216 129.8344043 -2.82226696 122.888571 -2.86572587 115.94270134 C-2.89135133 111.85760706 -2.91863582 107.77254616 -2.9510994 103.6875 C-3.12160225 81.9082024 -2.81309984 60.17476717 -2.13554001 38.40534973 C-1.94796923 32.36878447 -1.78098456 26.33164493 -1.61187172 20.29454041 C-1.13759447 3.4127834 -1.13759447 3.4127834 0 0 Z " fill="#DDDDDE" transform="translate(448,133)"/>
<path d="M0 0 C0.7527269 -0.0033284 1.5054538 -0.0066568 2.2809906 -0.01008606 C3.86171869 -0.01511752 5.44245727 -0.01749556 7.02319336 -0.01733398 C9.43035365 -0.0195283 11.83706069 -0.03774521 14.24414062 -0.05664062 C15.78775887 -0.05957387 17.33137926 -0.06155913 18.875 -0.0625 C19.58765518 -0.06968552 20.30031036 -0.07687103 21.03456116 -0.08427429 C25.3563914 -0.0646534 28.85253942 0.5838555 32.87109375 2.16796875 C32.94707124 8.52165072 32.99966272 14.87521584 33.03588867 21.22924805 C33.05098819 23.39140196 33.07146946 25.55352518 33.09741211 27.71557617 C33.13374392 30.82087775 33.15080837 33.92577489 33.1640625 37.03125 C33.17954636 38.00008621 33.19503021 38.96892242 33.21098328 39.96711731 C33.21120987 40.86782455 33.21143646 41.7685318 33.21166992 42.6965332 C33.21833176 43.48929153 33.22499359 44.28204987 33.2318573 45.09883118 C32.76857126 47.7559803 32.062385 48.6172495 29.87109375 50.16796875 C27.81541443 50.53546143 27.81541443 50.53546143 25.43139648 50.52441406 C24.09001869 50.52891571 24.09001869 50.52891571 22.72154236 50.5335083 C21.75898026 50.5211615 20.79641815 50.5088147 19.8046875 50.49609375 C18.81485367 50.49422058 17.82501984 50.49234741 16.80519104 50.49041748 C14.71294791 50.48369469 12.62071739 50.46977571 10.52856445 50.44921875 C7.31775293 50.41805764 4.10743213 50.40824758 0.89648438 50.40234375 C-1.1341206 50.39317411 -3.16472056 50.38279846 -5.1953125 50.37109375 C-6.15989883 50.36684387 -7.12448517 50.36259399 -8.11830139 50.35821533 C-9.00940109 50.34860779 -9.90050079 50.33900024 -10.81860352 50.32910156 C-11.60453384 50.32227356 -12.39046417 50.31544556 -13.20021057 50.30841064 C-15.12890625 50.16796875 -15.12890625 50.16796875 -17.12890625 49.16796875 C-17.17950015 42.6535167 -17.21459481 36.13911507 -17.23876953 29.62451172 C-17.2488445 27.40704454 -17.26250484 25.1895907 -17.27978516 22.97216797 C-17.30396788 19.79000563 -17.31537422 16.60801851 -17.32421875 13.42578125 C-17.33454132 12.42990997 -17.34486389 11.4340387 -17.35549927 10.4079895 C-17.35565033 9.48718597 -17.35580139 8.56638245 -17.35595703 7.61767578 C-17.36039825 6.80493195 -17.36483948 5.99218811 -17.36941528 5.15481567 C-17.12890625 3.16796875 -17.12890625 3.16796875 -15.12890625 1.16796875 C-10.09682167 0.17589881 -5.11261635 0.00800618 0 0 Z M-14.12890625 3.16796875 C-16.06609618 7.84718232 -16.06609618 7.84718232 -16.26416016 12.4074707 C-16.24361572 13.21897583 -16.22307129 14.03048096 -16.2019043 14.86657715 C-16.17008057 15.70466919 -16.13825684 16.54276123 -16.10546875 17.40625 C-16.08379639 18.18754272 -16.06212402 18.96883545 -16.03979492 19.77380371 C-15.95616003 22.67638485 -15.85394184 25.57840656 -15.75390625 28.48046875 C-15.54765625 34.97734375 -15.34140625 41.47421875 -15.12890625 48.16796875 C-0.27890625 48.16796875 14.57109375 48.16796875 29.87109375 48.16796875 C30.20109375 33.31796875 30.53109375 18.46796875 30.87109375 3.16796875 C16.02109375 3.16796875 1.17109375 3.16796875 -14.12890625 3.16796875 Z " fill="#ECECEC" transform="translate(253.12890625,292.83203125)"/>
<path d="M0 0 C1.17731176 2.35462352 1.13891008 3.79240822 1.16113281 6.41796875 C1.17074036 7.33231689 1.1803479 8.24666504 1.19024658 9.1887207 C1.19449646 10.17831787 1.19874634 11.16791504 1.203125 12.1875 C1.20882507 13.20094482 1.21452515 14.21438965 1.22039795 15.25854492 C1.22985331 17.40379795 1.23638405 19.54906553 1.24023438 21.69433594 C1.24996036 24.98658308 1.28098722 28.27821144 1.3125 31.5703125 C1.3190278 33.65103795 1.32427914 35.73176787 1.328125 37.8125 C1.3404718 38.80209717 1.3528186 39.79169434 1.36553955 40.8112793 C1.36253845 41.72562744 1.35953735 42.63997559 1.35644531 43.58203125 C1.36191376 44.79209839 1.36191376 44.79209839 1.36749268 46.02661133 C1.24622009 46.67782959 1.12494751 47.32904785 1 48 C-2.13883832 50.09255888 -2.8648127 50.25155871 -6.43969727 50.25878906 C-7.33394913 50.26509338 -8.22820099 50.27139771 -9.14955139 50.27789307 C-10.11211349 50.2738446 -11.0746756 50.26979614 -12.06640625 50.265625 C-13.551157 50.26849518 -13.551157 50.26849518 -15.06590271 50.27142334 C-17.15811416 50.27278438 -19.25033407 50.26909362 -21.3425293 50.26074219 C-24.55341446 50.25003031 -27.76374153 50.26064618 -30.97460938 50.2734375 C-33.00520957 50.27211611 -35.03580942 50.26955415 -37.06640625 50.265625 C-38.51328575 50.27169769 -38.51328575 50.27169769 -39.98939514 50.27789307 C-40.88049484 50.27158875 -41.77159454 50.26528442 -42.68969727 50.25878906 C-43.47562759 50.25719788 -44.26155792 50.25560669 -45.07130432 50.25396729 C-47 50 -47 50 -49 48 C-49.25396729 46.16069031 -49.25396729 46.16069031 -49.25878906 43.9050293 C-49.26509338 43.06042648 -49.27139771 42.21582367 -49.27789307 41.34562683 C-49.2738446 40.43106216 -49.26979614 39.5164975 -49.265625 38.57421875 C-49.26753845 37.63447708 -49.2694519 36.69473541 -49.27142334 35.72651672 C-49.27278612 33.73507419 -49.26908324 31.7436228 -49.26074219 29.75219727 C-49.25007972 26.71024445 -49.26061586 23.66888705 -49.2734375 20.62695312 C-49.27211522 18.69270703 -49.26955141 16.75846131 -49.265625 14.82421875 C-49.26967346 13.91572678 -49.27372192 13.0072348 -49.27789307 12.07121277 C-49.24494986 7.6083289 -49.11326339 4.05286983 -47 0 C-4.79479063 -1.59826354 -4.79479063 -1.59826354 0 0 Z M-46 2 C-46.91451078 4.74353235 -47.12634375 6.35619521 -47.12939453 9.18017578 C-47.13254669 10.01759308 -47.13569885 10.85501038 -47.13894653 11.71780396 C-47.1369223 12.61788177 -47.13489807 13.51795959 -47.1328125 14.4453125 C-47.13376923 15.37092987 -47.13472595 16.29654724 -47.13571167 17.25021362 C-47.13639197 19.20538399 -47.13454811 21.16055663 -47.13037109 23.11572266 C-47.12500862 26.12016828 -47.13032737 29.12446522 -47.13671875 32.12890625 C-47.13605818 34.026042 -47.13477746 35.92317765 -47.1328125 37.8203125 C-47.13483673 38.72443878 -47.13686096 39.62856506 -47.13894653 40.56008911 C-47.5344858 44.60073627 -47.5344858 44.60073627 -46 48 C-44.65985714 48.09784502 -43.31465651 48.12797977 -41.97094727 48.12939453 C-40.68940514 48.13412277 -40.68940514 48.13412277 -39.38197327 48.13894653 C-38.45283615 48.1369223 -37.52369904 48.13489807 -36.56640625 48.1328125 C-35.61813461 48.13376923 -34.66986298 48.13472595 -33.69285583 48.13571167 C-31.68285048 48.13639363 -29.67284294 48.13453823 -27.6628418 48.13037109 C-24.5792141 48.12502896 -21.49573247 48.1303125 -18.41210938 48.13671875 C-16.46354134 48.13605786 -14.5149734 48.13477646 -12.56640625 48.1328125 C-11.17573692 48.13584885 -11.17573692 48.13584885 -9.75697327 48.13894653 C-8.89945969 48.13579437 -8.04194611 48.13264221 -7.15844727 48.12939453 C-6.02379784 48.12820114 -6.02379784 48.12820114 -4.8662262 48.12698364 C-2.90702559 48.11412229 -2.90702559 48.11412229 -1 47 C-1 32.15 -1 17.3 -1 2 C-15.85 2 -30.7 2 -46 2 Z " fill="#E5E6E6" transform="translate(379,199)"/>
<path d="M0 0 C0.33 0 0.66 0 1 0 C1.20972043 14.7289045 1.39493775 29.45805578 1.5625 44.1875 C1.57523327 45.3056736 1.58796654 46.4238472 1.60108566 47.57590485 C2.03150433 86.01475597 1.96790811 124.43617907 1.5625 162.875 C1.54968616 164.09108822 1.53687233 165.30717644 1.5236702 166.56011581 C1.36605132 181.37362432 1.19180223 196.18689566 1 211 C0.34 211 -0.32 211 -1 211 C-1.03105411 193.83334175 -1.05113471 176.66668263 -1.0625 159.5 C-1.06335602 158.21629391 -1.06421204 156.93258781 -1.06509399 155.60998154 C-1.08759837 117.34148455 -0.93627463 79.07889493 -0.5 40.8125 C-0.48804218 39.76299164 -0.47608437 38.71348328 -0.46376419 37.63217163 C-0.31988942 25.08797542 -0.16588947 12.54392409 0 0 Z " fill="#EBECEC" transform="translate(24,248)"/>
<path d="M0 0 C0.33 0 0.66 0 1 0 C1.72213558 8.9425345 2.160999 17.82707725 2.22119141 26.79760742 C2.2326973 27.99142532 2.24420319 29.18524323 2.25605774 30.41523743 C2.29236452 34.31195645 2.32224652 38.20869133 2.3515625 42.10546875 C2.36857394 44.14696665 2.38615272 46.18845912 2.40379179 48.22995168 C2.45904998 54.6300797 2.5098266 61.03023209 2.55761719 67.43041992 C2.60675467 74.00160798 2.66309983 80.57270608 2.72303832 87.14380378 C2.77458816 92.82061437 2.82186102 98.49744964 2.86572587 104.17432481 C2.89183515 107.54977206 2.91944078 110.92518844 2.9510994 114.30058861 C2.98518394 118.06389865 3.01226304 121.82719838 3.03759766 125.59057617 C3.04897263 126.68852509 3.0603476 127.786474 3.07206726 128.91769409 C3.14925452 143.24277366 3.14925452 143.24277366 2 149 C1.34 149.33 0.68 149.66 0 150 C0 100.5 0 51 0 0 Z " fill="#D2D2D2" transform="translate(73,221)"/>
<path d="M0 0 C0.598125 0.20625 1.19625 0.4125 1.8125 0.625 C1.16506836 0.91544189 0.51763672 1.20588379 -0.14941406 1.50512695 C-3.47348475 4.96259051 -2.79129953 8.92269976 -2.796875 13.54296875 C-2.81250488 14.40490845 -2.82813477 15.26684814 -2.84423828 16.15490723 C-2.89682898 19.37382533 -2.91510349 22.59323022 -2.9375 25.8125 C-3.02 33.010625 -3.1025 40.20875 -3.1875 47.625 C19.0875 47.13 19.0875 47.13 41.8125 46.625 C41.8125 32.435 41.8125 18.245 41.8125 3.625 C42.4725 3.625 43.1325 3.625 43.8125 3.625 C44.03111187 9.85409017 44.22612982 16.08359442 44.40454102 22.31396484 C44.46807818 24.43457861 44.53707147 26.55503606 44.61157227 28.67529297 C44.71755411 31.71818122 44.80407774 34.76108723 44.88671875 37.8046875 C44.92407639 38.75681122 44.96143402 39.70893494 44.99992371 40.68991089 C45.02017105 41.57067291 45.0404184 42.45143494 45.0612793 43.35888672 C45.08570602 44.13610077 45.11013275 44.91331482 45.13529968 45.71408081 C45.02877579 46.34468414 44.92225189 46.97528748 44.8125 47.625 C41.69971817 49.70018789 41.01235616 49.87645186 37.48046875 49.88378906 C36.60946533 49.89009338 35.73846191 49.89639771 34.84106445 49.90289307 C33.90351318 49.8988446 32.96596191 49.89479614 32 49.890625 C31.03473389 49.89253845 30.06946777 49.8944519 29.07495117 49.89642334 C27.03401428 49.8977844 24.9930687 49.89409345 22.95214844 49.88574219 C19.82467234 49.87504165 16.69777069 49.88564022 13.5703125 49.8984375 C11.5885404 49.89711589 9.60676865 49.89455347 7.625 49.890625 C6.68744873 49.89467346 5.74989746 49.89872192 4.78393555 49.90289307 C3.91293213 49.89658875 3.04192871 49.89028442 2.14453125 49.88378906 C1.37858643 49.88219788 0.6126416 49.88060669 -0.17651367 49.87896729 C-2.1875 49.625 -2.1875 49.625 -5.1875 47.625 C-5.56845093 45.65161133 -5.56845093 45.65161133 -5.57568359 43.20703125 C-5.58514008 42.29268311 -5.59459656 41.37833496 -5.6043396 40.4362793 C-5.59826691 39.44668213 -5.59219421 38.45708496 -5.5859375 37.4375 C-5.58880768 36.42405518 -5.59167786 35.41061035 -5.59463501 34.36645508 C-5.59667887 32.22118573 -5.59112661 30.07589789 -5.57861328 27.93066406 C-5.56256459 24.63824984 -5.57845155 21.34706333 -5.59765625 18.0546875 C-5.59567388 15.97395561 -5.59183032 13.89322449 -5.5859375 11.8125 C-5.59504654 10.32810425 -5.59504654 10.32810425 -5.6043396 8.8137207 C-5.59488312 7.89937256 -5.58542664 6.98502441 -5.57568359 6.04296875 C-5.57329681 5.23625732 -5.57091003 4.4295459 -5.56845093 3.59838867 C-5.37988022 2.62156128 -5.37988022 2.62156128 -5.1875 1.625 C-2.1875 -0.375 -2.1875 -0.375 0 0 Z " fill="#DEDFE0" transform="translate(241.1875,199.375)"/>
<path d="M0 0 C0.66 0.33 1.32 0.66 2 1 C1.57847656 1.60328125 1.15695312 2.2065625 0.72265625 2.828125 C0.17480469 3.62734375 -0.37304688 4.4265625 -0.9375 5.25 C-1.75541016 6.43335938 -1.75541016 6.43335938 -2.58984375 7.640625 C-4.8693104 11.45446948 -5.12905832 14.81573878 -5.18945312 19.21166992 C-5.20617065 20.24921921 -5.22288818 21.28676849 -5.2401123 22.35575867 C-5.25368774 23.46941299 -5.26726318 24.58306732 -5.28125 25.73046875 C-5.29965942 26.87663162 -5.31806885 28.02279449 -5.33703613 29.20368958 C-5.41578123 34.11152761 -5.48368354 39.01950099 -5.55224609 43.92749023 C-5.60380787 47.50772234 -5.66110222 51.08783033 -5.71875 54.66796875 C-5.73232544 55.78769577 -5.74590088 56.90742279 -5.7598877 58.06108093 C-5.77660522 59.08917374 -5.79332275 60.11726654 -5.81054688 61.17651367 C-5.82933899 62.54074715 -5.82933899 62.54074715 -5.84851074 63.93254089 C-6 66 -6 66 -7 67 C-8.34267413 67.08631874 -9.68974322 67.10706473 -11.03515625 67.09765625 C-11.84404297 67.09443359 -12.65292969 67.09121094 -13.48632812 67.08789062 C-14.33646484 67.07951172 -15.18660156 67.07113281 -16.0625 67.0625 C-16.91650391 67.05798828 -17.77050781 67.05347656 -18.65039062 67.04882812 C-20.76695663 67.03700373 -22.88348685 67.01906769 -25 67 C-25.33 66.34 -25.66 65.68 -26 65 C-17.585 64.505 -17.585 64.505 -9 64 C-9.01047363 62.76024414 -9.02094727 61.52048828 -9.03173828 60.24316406 C-9.06826319 55.59133861 -9.09101736 50.93952552 -9.10986328 46.28759766 C-9.11984748 44.28399516 -9.13343955 42.28040695 -9.15087891 40.27685547 C-9.40872242 9.86648831 -9.40872242 9.86648831 -1.25 1.125 C-0.8375 0.75375 -0.425 0.3825 0 0 Z " fill="#E9EAEA" transform="translate(362,16)"/>
<path d="M0 0 C0.66 0 1.32 0 2 0 C2.0493933 6.06891692 2.08571643 12.13771713 2.10986328 18.20678711 C2.11992835 20.271912 2.13358154 22.33702263 2.15087891 24.40209961 C2.17510493 27.36836264 2.18647797 30.33443744 2.1953125 33.30078125 C2.20563507 34.2258699 2.21595764 35.15095856 2.22659302 36.1040802 C2.22681961 37.39507881 2.22681961 37.39507881 2.22705078 38.7121582 C2.231492 39.46938675 2.23593323 40.2266153 2.24050903 41.00679016 C2 43 2 43 0 46 C-1.91091919 46.36076355 -1.91091919 46.36076355 -4.26611328 46.34057617 C-5.14687531 46.34034958 -6.02763733 46.34012299 -6.93508911 46.33988953 C-7.88721283 46.32440567 -8.83933655 46.30892181 -9.8203125 46.29296875 C-10.79410858 46.28872391 -11.76790466 46.28447906 -12.77120972 46.28010559 C-15.88941805 46.26327786 -19.00698617 46.22561811 -22.125 46.1875 C-24.23566777 46.17245846 -26.34634564 46.15876914 -28.45703125 46.14648438 C-33.63824023 46.11336109 -38.81907439 46.06312151 -44 46 C-43.67 45.34 -43.34 44.68 -43 44 C-29.14 44 -15.28 44 -1 44 C-1.03956151 30.64194753 -1.03956151 30.64194753 -1.09008789 17.28393555 C-1.09300838 15.60986393 -1.09555663 13.9357916 -1.09765625 12.26171875 C-1.10277222 11.39180298 -1.10788818 10.52188721 -1.11315918 9.62561035 C-1.11334045 8.37753601 -1.11334045 8.37753601 -1.11352539 7.10424805 C-1.115746 6.38254929 -1.11796661 5.66085052 -1.12025452 4.9172821 C-1 3 -1 3 0 0 Z " fill="#DCDCDE" transform="translate(190,297)"/>
<path d="M0 0 C1.26108078 0.0001133 1.26108078 0.0001133 2.54763794 0.00022888 C3.91020218 0.00797081 3.91020218 0.00797081 5.30029297 0.01586914 C6.22969696 0.01728409 7.15910095 0.01869904 8.1166687 0.02015686 C11.09197171 0.02576486 14.06720011 0.03831871 17.04248047 0.05102539 C19.0568023 0.05603936 21.07112531 0.06060245 23.08544922 0.06469727 C28.02948849 0.07573689 32.97347182 0.0930069 37.91748047 0.11352539 C37.58748047 0.77352539 37.25748047 1.43352539 36.91748047 2.11352539 C35.75176514 2.12810791 34.5860498 2.14269043 33.38500977 2.15771484 C29.06291925 2.21565656 24.741352 2.29288933 20.41967773 2.37597656 C18.54867033 2.40924541 16.67756209 2.43727124 14.80639648 2.45996094 C12.11772663 2.49347128 9.42998249 2.54578404 6.74169922 2.60180664 C5.48530891 2.61139153 5.48530891 2.61139153 4.20353699 2.62117004 C-0.05767037 2.61820235 -0.05767037 2.61820235 -3.80053711 4.3782959 C-5.37751686 6.51281952 -5.47530522 7.67305253 -5.51489258 10.30957031 C-5.53468674 11.1502153 -5.5544809 11.99086029 -5.57487488 12.85697937 C-5.5812648 13.76019424 -5.58765472 14.66340912 -5.59423828 15.59399414 C-5.62116508 16.98597771 -5.62116508 16.98597771 -5.64863586 18.40608215 C-5.70283244 21.37101696 -5.73666453 24.33578994 -5.77001953 27.30102539 C-5.80318435 29.31081358 -5.83767323 31.32058039 -5.87353516 33.33032227 C-5.95856432 38.25794004 -6.02533091 43.18550904 -6.08251953 48.11352539 C-8.76242924 45.43361568 -8.33197942 43.38165041 -8.3604126 39.73843384 C-8.35636414 38.86447968 -8.35231567 37.99052551 -8.34814453 37.09008789 C-8.35005798 36.19236664 -8.35197144 35.29464539 -8.35394287 34.36972046 C-8.35530539 32.46823853 -8.35160429 30.56674732 -8.34326172 28.6652832 C-8.33258804 25.75719196 -8.3431418 22.84972201 -8.35595703 19.94165039 C-8.35463496 18.09529486 -8.35207158 16.24893972 -8.34814453 14.40258789 C-8.35219299 13.53268219 -8.35624146 12.66277649 -8.3604126 11.76651001 C-8.35410828 10.95241669 -8.34780396 10.13832336 -8.34130859 9.29956055 C-8.33971741 8.58611481 -8.33812622 7.87266907 -8.33648682 7.13760376 C-8.03715566 4.75198266 -7.3397399 3.15540988 -6.08251953 1.11352539 C-3.79620459 -0.02963208 -2.53904547 -0.00760193 0 0 Z " fill="#EBEDEC" transform="translate(149.08251953125,292.886474609375)"/>
<path d="M0 0 C4.2358357 -0.02469321 8.47163342 -0.04285671 12.70751953 -0.05493164 C14.1489332 -0.05996474 15.59034176 -0.06679173 17.03173828 -0.07543945 C19.10190085 -0.08754983 21.17199601 -0.09323847 23.2421875 -0.09765625 C24.4885498 -0.10289307 25.73491211 -0.10812988 27.01904297 -0.11352539 C30 0 30 0 32 1 C32.495 12.385 32.495 12.385 33 24 C32.34 24 31.68 24 31 24 C31 31.92 31 39.84 31 48 C30.67 48 30.34 48 30 48 C29.97470049 41.77035385 29.95715451 35.54072088 29.94506836 29.31103516 C29.94003128 27.19058741 29.93320141 25.07014315 29.92456055 22.94970703 C29.91246766 19.90656678 29.90676553 16.86347234 29.90234375 13.8203125 C29.89718246 12.86818878 29.89202118 11.91606506 29.88670349 10.93508911 C29.88659019 9.61394608 29.88659019 9.61394608 29.88647461 8.26611328 C29.884254 7.48889923 29.88203339 6.71168518 29.87974548 5.91091919 C30 4 30 4 31 2 C21.1 2 11.2 2 1 2 C0.67 1.34 0.34 0.68 0 0 Z " fill="#EBECED" transform="translate(159,199)"/>
<path d="M0 0 C0.598125 0.20625 1.19625 0.4125 1.8125 0.625 C1.16506836 0.91544189 0.51763672 1.20588379 -0.14941406 1.50512695 C-3.47338454 4.96248628 -2.79088172 8.92369553 -2.796875 13.54296875 C-2.81341125 14.51534988 -2.82994751 15.48773102 -2.84698486 16.48957825 C-2.89559466 19.59728224 -2.91686476 22.70449647 -2.9375 25.8125 C-2.96564879 27.91864461 -2.99557468 30.02476627 -3.02734375 32.13085938 C-3.10135725 37.29553262 -3.15085263 42.45993189 -3.1875 47.625 C-3.8475 47.625 -4.5075 47.625 -5.1875 47.625 C-5.26339036 41.11058999 -5.31603202 34.5962934 -5.35229492 28.08154297 C-5.36740753 25.86405172 -5.38789826 23.64659047 -5.41381836 21.42919922 C-5.45009293 18.24699511 -5.46720139 15.06518518 -5.48046875 11.8828125 C-5.49595261 10.88694122 -5.51143646 9.89106995 -5.52738953 8.86502075 C-5.52761612 7.94421722 -5.52784271 7.0234137 -5.52807617 6.07470703 C-5.53473801 5.2619632 -5.54139984 4.44921936 -5.54826355 3.61184692 C-5.42921158 2.95618744 -5.31015961 2.30052795 -5.1875 1.625 C-2.1875 -0.375 -2.1875 -0.375 0 0 Z " fill="#ECECEC" transform="translate(241.1875,199.375)"/>
<path d="M0 0 C0.66 0.33 1.32 0.66 2 1 C2 17.17 2 33.34 2 50 C0.68 49.67 -0.64 49.34 -2 49 C-1.505 48.505 -1.505 48.505 -1 48 C-0.8775669 46.49683231 -0.82223715 44.98811833 -0.79467773 43.48022461 C-0.77473251 42.51930405 -0.75478729 41.55838348 -0.73423767 40.56834412 C-0.70916893 39.00117393 -0.70916893 39.00117393 -0.68359375 37.40234375 C-0.66281265 36.33834854 -0.64203156 35.27435333 -0.62062073 34.17811584 C-0.55500746 30.7646456 -0.49618577 27.35109571 -0.4375 23.9375 C-0.39432597 21.62954891 -0.35071206 19.321606 -0.30664062 17.01367188 C-0.19931416 11.34253318 -0.09757008 5.67131448 0 0 Z " fill="#EDEDED" transform="translate(118,32)"/>
<path d="M0 0 C0.33 0 0.66 0 1 0 C1 14.52 1 29.04 1 44 C1.99 44.33 2.98 44.66 4 45 C1.525 45.495 1.525 45.495 -1 46 C-1.02493791 41.05615597 -1.04297138 36.11234952 -1.05493164 31.16845703 C-1.05992396 29.49071616 -1.06672015 27.81297955 -1.07543945 26.13525391 C-1.11988714 17.35552877 -1.12835446 8.72475655 0 0 Z " fill="#DBDCDD" transform="translate(167,36)"/>
<path d="M0 0 C0.99 0.495 0.99 0.495 2 1 C2.33 14.86 2.66 28.72 3 43 C0 41 0 41 -0.36076355 39.20297241 C-0.3507708 38.11709335 -0.3507708 38.11709335 -0.34057617 37.00927734 C-0.34034958 36.18857758 -0.34012299 35.36787781 -0.33988953 34.52230835 C-0.32440567 33.63580597 -0.30892181 32.74930359 -0.29296875 31.8359375 C-0.28872391 30.92872955 -0.28447906 30.02152161 -0.28010559 29.08682251 C-0.26328133 26.18258268 -0.2256226 23.2790309 -0.1875 20.375 C-0.17245799 18.40886417 -0.15876875 16.44271749 -0.14648438 14.4765625 C-0.11336557 9.65077561 -0.06155786 4.82550455 0 0 Z " fill="#E5E7E6" transform="translate(330,206)"/>
<path d="M0 0 C2.95247303 4.42870955 3.10278386 7.11527727 2.94921875 12.30859375 C2.9303511 13.03111832 2.91148346 13.75364288 2.89204407 14.49806213 C2.85014922 16.02718812 2.80541046 17.55623841 2.75805664 19.08520508 C2.68789023 21.42448995 2.63352786 23.76379664 2.58007812 26.10351562 C2.53742597 27.58856977 2.49383717 29.07359738 2.44921875 30.55859375 C2.43453049 31.2586705 2.41984222 31.95874725 2.40470886 32.68003845 C2.27666257 36.30567185 2.066043 37.9009355 0 41 C0 27.47 0 13.94 0 0 Z " fill="#D2D3D4" transform="translate(73,178)"/>
<path d="M0 0 C0.66 0 1.32 0 2 0 C2 7.26 2 14.52 2 22 C1.67 22 1.34 22 1 22 C0.67 23.65 0.34 25.3 0 27 C-0.33 27 -0.66 27 -1 27 C-1.02898816 23.06251542 -1.04679464 19.12505821 -1.0625 15.1875 C-1.07087891 14.06794922 -1.07925781 12.94839844 -1.08789062 11.79492188 C-1.09111328 10.72177734 -1.09433594 9.64863281 -1.09765625 8.54296875 C-1.10289307 7.55321045 -1.10812988 6.56345215 -1.11352539 5.54370117 C-1 3 -1 3 0 0 Z " fill="#D3D3D4" transform="translate(73,383)"/>
<path d="M0 0 C0.33 0 0.66 0 1 0 C1 13.86 1 27.72 1 42 C-1.23926109 39.76073891 -1.92010085 38.18673743 -2.1328125 35.02734375 C-2.11111111 29.22222222 -2.11111111 29.22222222 -1 27 C-0.84588894 24.9692523 -0.75017547 22.93393579 -0.68359375 20.8984375 C-0.64169922 19.68671875 -0.59980469 18.475 -0.55664062 17.2265625 C-0.51732422 15.95554688 -0.47800781 14.68453125 -0.4375 13.375 C-0.39431641 12.09625 -0.35113281 10.8175 -0.30664062 9.5 C-0.20030114 6.33344652 -0.09827167 3.16681247 0 0 Z " fill="#EDEDED" transform="translate(75,141)"/>
<path d="M0 0 C0.66 0 1.32 0 2 0 C1.76228882 0.95845825 1.76228882 0.95845825 1.51977539 1.9362793 C0.83525343 5.97106842 0.76613744 9.93360603 0.68359375 14.01953125 C0.66281265 14.87810226 0.64203156 15.73667328 0.62062073 16.6212616 C0.55547477 19.35159654 0.49640346 22.08202395 0.4375 24.8125 C0.3942815 26.66862918 0.35066616 28.52474916 0.30664062 30.38085938 C0.19982939 34.92047925 0.09846435 39.46019172 0 44 C-0.33 44 -0.66 44 -1 44 C-1.02470049 38.21590487 -1.04286023 32.43184038 -1.05493164 26.64770508 C-1.0599635 24.67960068 -1.06678958 22.71150003 -1.07543945 20.7434082 C-1.08755517 17.91616899 -1.09323976 15.08897916 -1.09765625 12.26171875 C-1.10281754 11.38037766 -1.10797882 10.49903656 -1.11329651 9.59098816 C-1.11340981 8.3600518 -1.11340981 8.3600518 -1.11352539 7.10424805 C-1.115746 6.38254929 -1.11796661 5.66085052 -1.12025452 4.9172821 C-1 3 -1 3 0 0 Z " fill="#E8E9EB" transform="translate(190,297)"/>
<path d="M0 0 C0.99 0.495 0.99 0.495 2 1 C3.10834045 7.34776804 3.37824312 13.66008163 2 20 C1.34 20.66 0.68 21.32 0 22 C0 14.74 0 7.48 0 0 Z " fill="#EBECEE" transform="translate(165,26)"/>
</svg>
