<?xml version="1.0" encoding="UTF-8"?>
<svg version="1.1" xmlns="http://www.w3.org/2000/svg" width="415" height="415">
<path d="M0 0 C136.95 0 273.9 0 415 0 C415 136.95 415 273.9 415 415 C278.05 415 141.1 415 0 415 C0 278.05 0 141.1 0 0 Z " fill="#FEFEFD" transform="translate(0,0)"/>
<path d="M0 0 C4.59945023 3.84904827 8.97870843 7.83304404 13.21069336 12.08129883 C13.78717621 12.65602936 14.36365906 13.23075989 14.95761108 13.82290649 C16.83752297 15.698463 18.7138081 17.57759815 20.58984375 19.45703125 C21.90248767 20.76900087 23.21527994 22.08082207 24.5282135 23.39250183 C27.26563468 26.12845509 30.00125451 28.86619328 32.7355957 31.60522461 C36.24852655 35.12388618 39.76597338 38.63799387 43.28475094 42.15080738 C45.98960112 44.85205628 48.69208028 47.55566711 51.39383125 50.26001549 C52.69093903 51.55779199 53.98879457 52.85482155 55.28739738 54.15110207 C57.09237733 55.95355896 58.89414892 57.75916117 60.69506836 59.56567383 C61.50611275 60.37368187 61.50611275 60.37368187 62.33354187 61.19801331 C66 64.88573067 66 64.88573067 66 66 C60.29896787 67.0677743 55.83148181 67.20384519 50.86999512 63.94262695 C47.43878444 60.98276946 44.34457545 57.69565794 41.234375 54.40625 C40.06590592 53.21536785 38.89473548 52.02713079 37.7210083 50.84143066 C34.65566356 47.73051322 31.62808194 44.5852805 28.60723877 41.43121338 C25.51167443 38.2123514 22.38136937 35.02766667 19.25390625 31.83984375 C13.1349589 25.59263465 7.05552222 19.30870478 1 13 C-6.54780469 19.34721248 -13.55522787 26.18862666 -20.57226562 33.11230469 C-22.11111389 34.62439605 -23.65707975 36.12927683 -25.20996094 37.62695312 C-27.46696697 39.80488296 -29.70016534 42.0049227 -31.9296875 44.2109375 C-32.62440155 44.87265961 -33.3191156 45.53438171 -34.03488159 46.21615601 C-38.52725948 50.72753785 -39.89412796 53.59874504 -40 60 C-39.29875 60.0825 -38.5975 60.165 -37.875 60.25 C-30.77466026 62.10226254 -26.3017518 67.37543348 -22 73 C-21.34064453 73.85851562 -21.34064453 73.85851562 -20.66796875 74.734375 C-16.2016668 81.86783253 -16.8994306 92.03766932 -18.66015625 99.9765625 C-21.33212515 107.44882184 -26.43963505 113.57206725 -33 118 C-35.10546875 118.9140625 -35.10546875 118.9140625 -37.1875 119.625 C-39.82885507 120.43232047 -39.82885507 120.43232047 -42 122 C-44.09881212 122.18263558 -46.20621058 122.26876284 -48.3125 122.3125 C-50.03919922 122.36857422 -50.03919922 122.36857422 -51.80078125 122.42578125 C-56 122 -56 122 -68 118 C-68 135.49 -68 152.98 -68 171 C-61.565 170.01 -61.565 170.01 -55 169 C-51.85605187 168.72366625 -48.7719729 168.49768024 -45.625 168.375 C-44.73562744 168.33777832 -43.84625488 168.30055664 -42.92993164 168.26220703 C-19.67783603 167.43565207 3.78418602 167.42413869 27 169 C27.41958984 167.69289062 27.41958984 167.69289062 27.84765625 166.359375 C28.91578595 163.24550538 30.12806192 160.2686423 31.4375 157.25 C32.29826828 155.16938556 33.15274914 153.08615542 34 151 C34.32742187 150.20722656 34.65484375 149.41445312 34.9921875 148.59765625 C38.98370379 137.4784323 37.72853209 124.27955675 35 113 C32.91358328 115.89522247 32.91358328 115.89522247 31.8125 119.0625 C29.06732982 125.67906402 24.28455293 131.31774231 20 137 C16.37386801 136.43040847 14.74482259 135.07625466 12.25 132.4375 C11.63640625 131.79683594 11.0228125 131.15617188 10.390625 130.49609375 C9.93171875 130.00238281 9.4728125 129.50867188 9 129 C9.886875 128.030625 10.77375 127.06125 11.6875 126.0625 C20.7773438 115.32190627 23.38715931 103.21861954 23.44628906 89.38061523 C23.53202865 86.02878575 23.79608441 84.26801564 25.8515625 81.56640625 C28 80 28 80 30.9375 79.5 C34.86606017 80.14139758 36.1406441 81.21374041 39 84 C40.80117067 86.88540262 42.2191845 89.90605854 43.625 93 C44.01816406 93.85070068 44.41132813 94.70140137 44.81640625 95.57788086 C54.55477575 117.18796216 53.95065544 140.72053214 46.21875 162.85546875 C45.25638383 165.33849684 44.21052504 167.63685294 43 170 C43.92949463 170.04463379 44.85898926 170.08926758 45.81665039 170.13525391 C55.92303912 170.68611582 65.90231666 171.72804962 75.93579102 173.046875 C78.43096035 173.37414226 80.92724301 173.69154738 83.42382812 174.0078125 C94.01106925 175.36791516 104.50566842 177.05294919 115 179 C116.33059497 179.24385933 117.66124197 179.48743497 118.99194336 179.73071289 C131.35728986 182.00172336 143.67606362 184.51604871 156 187 C156 187.33 156 187.66 156 188 C145.79343237 187.53158265 135.65890465 186.81709934 125.4987793 185.7331543 C118.9470597 185.0512028 112.40297912 184.62292587 105.82226562 184.34179688 C103.0556168 184.21568916 100.37725512 184.07828848 97.66127014 183.5146637 C94.6610412 182.93444867 91.74725505 182.70957959 88.69702148 182.51928711 C86.78697075 182.39933632 86.78697075 182.39933632 84.83833313 182.27696228 C83.43261765 182.1932344 82.02686991 182.11004661 80.62109375 182.02734375 C79.89451757 181.98396441 79.1679414 181.94058506 78.41934776 181.89589119 C20.04992157 178.42917843 -38.74429227 176.43237857 -97.125 180.75 C-98.18757019 180.82822998 -99.25014038 180.90645996 -100.34490967 180.98706055 C-113.17300981 181.9731943 -125.83635804 183.6043414 -138.53201294 185.6918335 C-140.08213577 185.94540619 -140.08213577 185.94540619 -141.66357422 186.20410156 C-142.57468964 186.35735901 -143.48580505 186.51061646 -144.42453003 186.66851807 C-146.98103067 186.99755851 -149.4256097 187.05910969 -152 187 C-151.505 186.01 -151.505 186.01 -151 185 C-148.92578125 184.4375 -148.92578125 184.4375 -146.3125 184 C-143.49750346 183.52157874 -140.91529221 182.97126303 -138.20703125 182.05249023 C-118.9761903 175.74127256 -96.21173341 172 -76 172 C-76 153.85 -76 135.7 -76 117 C-78.64 118.32 -81.28 119.64 -84 121 C-91.97587016 123.65862339 -100.84921922 122.50372751 -108.49609375 119.3203125 C-117.33050009 114.66192039 -121.71893114 107.75698331 -125.3125 98.6875 C-127.02431969 89.50592165 -126.72974423 81.21481893 -122 73 C-117.08222593 66.26428102 -112.01970722 61.53022313 -104 59 C-104.04640625 58.10539062 -104.0928125 57.21078125 -104.140625 56.2890625 C-104.46592442 45.39153199 -102.6361266 37.40790263 -95.76953125 28.8203125 C-89.38542121 22.25299401 -82.21811894 18.95485124 -73.125 18.75 C-62.70668655 18.9812326 -55.55913074 21.69025082 -47.91015625 28.99609375 C-44.55480201 32.6259146 -42.69260276 35.00460257 -42 40 C-38.56254401 38.06712238 -35.81219323 36.05832514 -33.03588867 33.26293945 C-32.2954985 32.52239822 -31.55510834 31.78185699 -30.7922821 31.01887512 C-29.61699699 29.82810616 -29.61699699 29.82810616 -28.41796875 28.61328125 C-27.60378983 27.79627243 -26.7896109 26.97926361 -25.95075989 26.13749695 C-23.35826485 23.53383092 -20.77282117 20.92328758 -18.1875 18.3125 C-16.42819521 16.54316146 -14.66843476 14.77427585 -12.90820312 13.00585938 C-8.60017292 8.67580964 -4.29790719 4.34009653 0 0 Z " fill="#FDAB02" transform="translate(207,55)"/>
<path d="M0 0 C3.92856017 0.64139758 5.2031441 1.71374041 8.0625 4.5 C9.86367067 7.38540262 11.2816845 10.40605854 12.6875 13.5 C13.08066406 14.35070068 13.47382813 15.20140137 13.87890625 16.07788086 C23.61727575 37.68796216 23.01315544 61.22053214 15.28125 83.35546875 C14.31888383 85.83849684 13.27302504 88.13685294 12.0625 90.5 C13.45674194 90.56695068 13.45674194 90.56695068 14.87915039 90.63525391 C24.98553912 91.18611582 34.96481666 92.22804962 44.99829102 93.546875 C47.49346035 93.87414226 49.98974301 94.19154738 52.48632812 94.5078125 C63.07356925 95.86791516 73.56816842 97.55294919 84.0625 99.5 C85.39309497 99.74385933 86.72374197 99.98743497 88.05444336 100.23071289 C100.41978986 102.50172336 112.73856362 105.01604871 125.0625 107.5 C125.0625 107.83 125.0625 108.16 125.0625 108.5 C114.85593237 108.03158265 104.72140465 107.31709934 94.5612793 106.2331543 C88.0095597 105.5512028 81.46547912 105.12292587 74.88476562 104.84179688 C72.1181168 104.71568916 69.43975512 104.57828848 66.72377014 104.0146637 C63.7235412 103.43444867 60.80975505 103.20957959 57.75952148 103.01928711 C56.48615433 102.93931992 55.21278717 102.85935272 53.90083313 102.77696228 C52.49511765 102.6932344 51.08936991 102.61004661 49.68359375 102.52734375 C48.95701757 102.48396441 48.2304414 102.44058506 47.48184776 102.39589119 C-10.88757843 98.92917843 -69.68179227 96.93237857 -128.0625 101.25 C-129.65635529 101.36734497 -129.65635529 101.36734497 -131.28240967 101.48706055 C-144.11050981 102.4731943 -156.77385804 104.1043414 -169.46951294 106.1918335 C-171.01963577 106.44540619 -171.01963577 106.44540619 -172.60107422 106.70410156 C-173.96774734 106.93398773 -173.96774734 106.93398773 -175.36203003 107.16851807 C-177.91853067 107.49755851 -180.3631097 107.55910969 -182.9375 107.5 C-182.4425 106.51 -182.4425 106.51 -181.9375 105.5 C-179.86328125 104.9375 -179.86328125 104.9375 -177.25 104.5 C-174.43500346 104.02157874 -171.85279221 103.47126303 -169.14453125 102.55249023 C-149.9136903 96.24127256 -127.14923341 92.5 -106.9375 92.5 C-106.9375 74.02 -106.9375 55.54 -106.9375 36.5 C-105.2875 35.84 -103.6375 35.18 -101.9375 34.5 C-100.4525 35.49 -100.4525 35.49 -98.9375 36.5 C-98.57673645 38.82852173 -98.57673645 38.82852173 -98.59692383 41.77587891 C-98.59715042 42.8768692 -98.59737701 43.9778595 -98.59761047 45.11221313 C-98.61309433 46.30494843 -98.62857819 47.49768372 -98.64453125 48.7265625 C-98.64877609 49.94451508 -98.65302094 51.16246765 -98.65739441 52.41732788 C-98.67423169 56.32010704 -98.71189405 60.22237604 -98.75 64.125 C-98.76504026 66.76561756 -98.77872981 69.40624319 -98.79101562 72.046875 C-98.82415178 78.53142504 -98.87440139 85.01567608 -98.9375 91.5 C-98.05371674 91.36042877 -97.16993347 91.22085754 -96.2593689 91.07705688 C-94.51328842 90.80422379 -94.51328842 90.80422379 -92.73193359 90.52587891 C-91.0040712 90.25464706 -91.0040712 90.25464706 -89.24130249 89.97793579 C-85.01140911 89.36602953 -80.83015189 89.04136831 -76.5625 88.875 C-75.67312744 88.83777832 -74.78375488 88.80055664 -73.86743164 88.76220703 C-50.61533603 87.93565207 -27.15331398 87.92413869 -3.9375 89.5 C-3.51791016 88.19289062 -3.51791016 88.19289062 -3.08984375 86.859375 C-2.02171405 83.74550538 -0.80943808 80.7686423 0.5 77.75 C1.36076828 75.66938556 2.21524914 73.58615542 3.0625 71.5 C3.38992187 70.70722656 3.71734375 69.91445312 4.0546875 69.09765625 C8.04620379 57.9784323 6.79103209 44.77955675 4.0625 33.5 C1.97608328 36.39522247 1.97608328 36.39522247 0.875 39.5625 C-1.87017018 46.17906402 -6.65294707 51.81774231 -10.9375 57.5 C-14.56363199 56.93040847 -16.19267741 55.57625466 -18.6875 52.9375 C-19.30109375 52.29683594 -19.9146875 51.65617187 -20.546875 50.99609375 C-21.00578125 50.50238281 -21.4646875 50.00867188 -21.9375 49.5 C-20.6071875 48.0459375 -20.6071875 48.0459375 -19.25 46.5625 C-10.1601562 35.82190627 -7.55034069 23.71861954 -7.49121094 9.88061523 C-7.40547135 6.52878575 -7.14141559 4.76801564 -5.0859375 2.06640625 C-2.9375 0.5 -2.9375 0.5 0 0 Z " fill="#070707" transform="translate(237.9375,134.5)"/>
<path d="M0 0 C0.66 0.33 1.32 0.66 2 1 C7.50186108 17.57350744 3.72131087 34.51436595 -3 50 C-4.24792481 52.40393141 -5.58404733 54.68811268 -7 57 C-22.36115333 57.14537369 -37.65576567 56.7180376 -53 56 C-53.8305806 51.61265894 -54.19170639 47.40181916 -54.25 42.9375 C-54.27578125 41.75027344 -54.3015625 40.56304687 -54.328125 39.33984375 C-53.78204035 33.78148212 -50.9806069 30.70608229 -47 27 C-48.98 27 -50.96 27 -53 27 C-53 26.34 -53 25.68 -53 25 C-53.99 25 -54.98 25 -56 25 C-57.6875 24 -57.6875 24 -59 22 C-59.25738627 19.28135754 -59.13484986 16.74194724 -59 14 C-58.34 14 -57.68 14 -57 14 C-56.34 12.68 -55.68 11.36 -55 10 C-53.741875 9.95875 -52.48375 9.9175 -51.1875 9.875 C-50.47980469 9.85179687 -49.77210938 9.82859375 -49.04296875 9.8046875 C-47 10 -47 10 -44 12 C-44 12.66 -44 13.32 -44 14 C-43.01 14.33 -42.02 14.66 -41 15 C-40.67 16.98 -40.34 18.96 -40 21 C-38.35 21.33 -36.7 21.66 -35 22 C-34.79375 21.38125 -34.5875 20.7625 -34.375 20.125 C-32.42807358 17.11611372 -30.40470591 16.83380553 -27 16 C-24 16 -24 16 -22.53515625 17.4609375 C-21.80619141 18.40839844 -21.80619141 18.40839844 -21.0625 19.375 C-18.93406423 22.13345276 -17.21864278 23.62356097 -14 25 C-13.74089844 24.43925781 -13.48179687 23.87851563 -13.21484375 23.30078125 C-11.8640713 20.7425659 -10.27130857 18.52103429 -8.5625 16.1875 C-5.73648235 12.20645024 -3.72851817 8.54873202 -2 4 C-1.34711373 2.65986503 -0.68774405 1.32258472 0 0 Z " fill="#F9F9F8" transform="translate(241,167)"/>
<path d="M0 0 C4.11311637 2.68866048 7.4105747 6.33764872 8.7421875 11.1171875 C9.47640675 18.75139907 9.84460238 25.41206129 5.7421875 32.1171875 C2.44540616 35.73925127 -1.6701265 38.69910898 -6.5546875 39.48828125 C-7.36421875 39.51019531 -8.17375 39.53210938 -9.0078125 39.5546875 C-9.80703125 39.59464844 -10.60625 39.63460937 -11.4296875 39.67578125 C-14.2578125 39.1171875 -14.2578125 39.1171875 -22.2578125 34.1171875 C-22.2578125 41.7071875 -22.2578125 49.2971875 -22.2578125 57.1171875 C-24.8978125 57.1171875 -27.5378125 57.1171875 -30.2578125 57.1171875 C-30.2578125 38.3071875 -30.2578125 19.4971875 -30.2578125 0.1171875 C-27.6178125 0.1171875 -24.9778125 0.1171875 -22.2578125 0.1171875 C-21.9278125 1.1071875 -21.5978125 2.0971875 -21.2578125 3.1171875 C-20.5359375 2.4571875 -19.8140625 1.7971875 -19.0703125 1.1171875 C-13.7177873 -2.43841853 -5.85264229 -2.28840339 0 0 Z " fill="#090909" transform="translate(118.2578125,266.8828125)"/>
<path d="M0 0 C17.82 0 35.64 0 54 0 C54 1.98 54 3.96 54 6 C47.73 6 41.46 6 35 6 C35 10.95 35 15.9 35 21 C40.61 21 46.22 21 52 21 C52 22.98 52 24.96 52 27 C46.39 27 40.78 27 35 27 C35 32.28 35 37.56 35 43 C41.27 43 47.54 43 54 43 C54 44.98 54 46.96 54 49 C36.18 49 18.36 49 0 49 C0 47.02 0 45.04 0 43 C6.27 43 12.54 43 19 43 C18.67 38.38 18.34 33.76 18 29 C12.72 28.67 7.44 28.34 2 28 C2 25.69 2 23.38 2 21 C7.61 21 13.22 21 19 21 C19 16.38 19 11.76 19 7 C12.73 7 6.46 7 0 7 C0 4.69 0 2.38 0 0 Z " fill="#F8AB06" transform="translate(222,257)"/>
<path d="M0 0 C1.640625 1.08984375 1.640625 1.08984375 3.828125 3.08984375 C3.828125 1.76984375 3.828125 0.44984375 3.828125 -0.91015625 C6.798125 -0.91015625 9.768125 -0.91015625 12.828125 -0.91015625 C12.828125 11.95984375 12.828125 24.82984375 12.828125 38.08984375 C10.188125 38.08984375 7.548125 38.08984375 4.828125 38.08984375 C4.498125 36.76984375 4.168125 35.44984375 3.828125 34.08984375 C3.11849609 34.63125 3.11849609 34.63125 2.39453125 35.18359375 C-2.05836346 38.30843214 -5.4472801 39.86916996 -10.9375 39.5 C-15.77886902 38.61128716 -19.59751716 37.03142153 -22.74609375 33.1484375 C-27.14636529 26.30216975 -28.06535084 20.18247549 -27.171875 12.08984375 C-26.00964999 8.90023968 -24.43856692 6.60001665 -22.171875 4.08984375 C-21.69878906 3.56261719 -21.22570312 3.03539062 -20.73828125 2.4921875 C-15.31145004 -2.36624743 -6.58781203 -2.76071979 0 0 Z " fill="#0B0B0B" transform="translate(160.171875,266.91015625)"/>
<path d="M0 0 C4.59945023 3.84904827 8.97870843 7.83304404 13.21069336 12.08129883 C13.78717621 12.65602936 14.36365906 13.23075989 14.95761108 13.82290649 C16.83752297 15.698463 18.7138081 17.57759815 20.58984375 19.45703125 C21.90248767 20.76900087 23.21527994 22.08082207 24.5282135 23.39250183 C27.26563468 26.12845509 30.00125451 28.86619328 32.7355957 31.60522461 C36.24852655 35.12388618 39.76597338 38.63799387 43.28475094 42.15080738 C45.98960112 44.85205628 48.69208028 47.55566711 51.39383125 50.26001549 C52.69093903 51.55779199 53.98879457 52.85482155 55.28739738 54.15110207 C57.09237733 55.95355896 58.89414892 57.75916117 60.69506836 59.56567383 C61.23576462 60.10434586 61.77646088 60.64301788 62.33354187 61.19801331 C66 64.88573067 66 64.88573067 66 66 C60.29896787 67.0677743 55.83148181 67.20384519 50.86999512 63.94262695 C47.43878444 60.98276946 44.34457545 57.69565794 41.234375 54.40625 C40.06590592 53.21536785 38.89473548 52.02713079 37.7210083 50.84143066 C34.65566356 47.73051322 31.62808194 44.5852805 28.60723877 41.43121338 C25.51167443 38.2123514 22.38136937 35.02766667 19.25390625 31.83984375 C13.1349589 25.59263465 7.05552222 19.30870478 1 13 C-4.14829744 17.30627256 -8.95752072 21.82311931 -13.68359375 26.5859375 C-14.73414696 27.63861313 -14.73414696 27.63861313 -15.80592346 28.71255493 C-18.01883027 30.93101136 -20.22821416 33.15293815 -22.4375 35.375 C-23.94703314 36.88955466 -25.45679657 38.40387985 -26.96679688 39.91796875 C-30.64719702 43.60933099 -34.32471957 47.30354069 -38 51 C-40 50 -40 50 -40.72593689 48.27980042 C-41.51289571 44.41565016 -41.64255933 42.01794727 -39.49002075 38.60787964 C-37.14527183 35.9858225 -34.68840195 33.5653817 -32.12890625 31.15234375 C-31.21745346 30.25504044 -30.30600067 29.35773712 -29.3669281 28.4332428 C-26.94909355 26.06182773 -24.51204976 23.71445735 -22.06262207 21.37597656 C-19.56471189 18.98071465 -17.09517769 16.55657525 -14.62304688 14.13476562 C-9.77433147 9.39621472 -4.8981995 4.68735254 0 0 Z " fill="#070707" transform="translate(207,55)"/>
<path d="M0 0 C3.25959412 1.96933811 5.05286954 3.54132083 7 6.8125 C7.25 9.625 7.25 9.625 7 11.8125 C4.36 11.8125 1.72 11.8125 -1 11.8125 C-1.103125 11.173125 -1.20625 10.53375 -1.3125 9.875 C-1.539375 9.194375 -1.76625 8.51375 -2 7.8125 C-4.80157448 6.87864184 -6.65447803 6.64895405 -9.5625 6.625 C-10.34753906 6.61082031 -11.13257813 6.59664063 -11.94140625 6.58203125 C-14.2243545 6.62082491 -14.2243545 6.62082491 -16 8.8125 C-16.47901745 12.79868536 -16.47901745 12.79868536 -14.9375 16.35546875 C-11.64623299 18.83055462 -7.63005223 19.64181767 -3.71289062 20.7421875 C1.20343198 22.23824563 4.35649669 24.14151929 8 27.8125 C9.54005798 31.41445379 9.55284443 35.07934967 8.36328125 38.80859375 C5.68071576 44.07185515 1.58784493 46.94988502 -4 48.8125 C-10.68879107 49.53721804 -16.58774551 49.10239757 -22 44.8125 C-24.51390659 41.68787034 -26 38.90927858 -26 34.8125 C-22.94951384 34.52471829 -20.03849167 34.35915488 -17 34.8125 C-15 37.25 -15 37.25 -14 39.8125 C-12.42077594 41.39172406 -10.80556126 41.020159 -8.625 41.0625 C-7.43777344 41.10117187 -7.43777344 41.10117187 -6.2265625 41.140625 C-3.94231924 40.97899422 -3.94231924 40.97899422 -2.22265625 39.52734375 C-0.26420966 36.78051291 -0.81554488 34.07120715 -1 30.8125 C-2.4777022 30.20476026 -3.95726927 29.60155496 -5.4375 29 C-6.34757812 28.63003906 -7.25765625 28.26007813 -8.1953125 27.87890625 C-10.71739003 26.91995477 -13.21773162 26.16700559 -15.8125 25.4375 C-20.32143587 23.93718152 -22.53106438 21.97882886 -25 17.8125 C-26.2102052 13.52383531 -26.56255982 10.14487852 -24.8125 6 C-18.41072495 -1.72628023 -9.68651745 -3.72720345 0 0 Z " fill="#0C0C0C" transform="translate(70,257.1875)"/>
<path d="M0 0 C4.09070975 2.18481089 7.01482981 4.77786746 9.9375 8.375 C9.9375 9.695 9.9375 11.015 9.9375 12.375 C2.92528952 12.9795009 2.92528952 12.9795009 0.17578125 11.296875 C-1.271658 10.02808695 -2.66944086 8.70326569 -4.0625 7.375 C-9.48426354 5.56774549 -15.00693734 5.72787842 -20.4375 7.4375 C-23.87557414 9.97512615 -25.82316754 12.32466767 -27.0625 16.375 C-28.06770071 23.74960334 -27.83938817 29.72993461 -23.44921875 35.88671875 C-21.22819997 38.2704037 -19.56943883 39.32589481 -16.3203125 39.640625 C-14.76957031 39.63289063 -14.76957031 39.63289063 -13.1875 39.625 C-12.15882813 39.63015625 -11.13015625 39.6353125 -10.0703125 39.640625 C-6.93403174 39.36365475 -4.83384509 38.85931364 -2.0625 37.375 C-1.57136719 36.67890625 -1.08023438 35.9828125 -0.57421875 35.265625 C0.9375 33.375 0.9375 33.375 3.41796875 32.984375 C4.31128906 33.03078125 5.20460938 33.0771875 6.125 33.125 C7.02605469 33.16109375 7.92710937 33.1971875 8.85546875 33.234375 C9.54253906 33.28078125 10.22960937 33.3271875 10.9375 33.375 C8.38460292 38.80288864 5.0117327 43.80993369 -0.625 46.3125 C-7.86886423 48.55100699 -17.20096882 48.73340768 -24.21484375 45.62109375 C-29.58805689 41.99729884 -34.24101973 36.63410623 -36.0625 30.375 C-36.38328344 27.55705202 -36.43257518 24.77173419 -36.4375 21.9375 C-36.46199219 21.19951172 -36.48648437 20.46152344 -36.51171875 19.70117188 C-36.54685821 13.11252292 -34.07933567 9.66438104 -29.75 4.75 C-21.2562619 -2.75609414 -10.81525266 -4.37017 0 0 Z " fill="#F6AD0F" transform="translate(320.0625,258.625)"/>
<path d="M0 0 C9.24 0 18.48 0 28 0 C28 2.31 28 4.62 28 7 C21.73 7 15.46 7 9 7 C9 11.62 9 16.24 9 21 C14.61 21 20.22 21 26 21 C26 22.98 26 24.96 26 27 C25 28 25 28 21.40234375 28.09765625 C19.91403133 28.0909822 18.42573568 28.07902183 16.9375 28.0625 C16.17888672 28.05798828 15.42027344 28.05347656 14.63867188 28.04882812 C12.75908129 28.0370068 10.87953101 28.01907078 9 28 C9 32.95 9 37.9 9 43 C14.94 43 20.88 43 27 43 C27 44.98 27 46.96 27 49 C18.09 49 9.18 49 0 49 C0 32.83 0 16.66 0 0 Z " fill="#F9AB05" transform="translate(340,257)"/>
<path d="M0 0 C8.91 0 17.82 0 27 0 C27 1.98 27 3.96 27 6 C20.73 6 14.46 6 8 6 C8 10.95 8 15.9 8 21 C13.61 21 19.22 21 25 21 C25 22.98 25 24.96 25 27 C19.39 27 13.78 27 8 27 C8 32.28 8 37.56 8 43 C14.27 43 20.54 43 27 43 C27 44.98 27 46.96 27 49 C18.09 49 9.18 49 0 49 C0 32.83 0 16.66 0 0 Z " fill="#080502" transform="translate(249,257)"/>
<path d="M0 0 C3.45983899 2.52491926 5.82733197 4.77139524 7.4375 8.80078125 C7.4375 9.79078125 7.4375 10.78078125 7.4375 11.80078125 C4.4675 11.80078125 1.4975 11.80078125 -1.5625 11.80078125 C-2.2225 10.48078125 -2.8825 9.16078125 -3.5625 7.80078125 C-7.26048008 6.56812122 -10.71771703 6.21941286 -14.5625 6.80078125 C-16.99369623 8.67093219 -18.20319173 10.0821647 -19.5625 12.80078125 C-20.12648364 18.8310679 -19.94959746 23.58986208 -16.5625 28.80078125 C-14.19209692 31.17118433 -13.49947247 31.14543918 -10.25 31.23828125 C-5.31099737 31.16749937 -3.96778796 29.29338428 -0.5625 25.80078125 C2.23937902 25.35311261 4.57971766 25.55859631 7.4375 25.80078125 C6.94378759 30.01185767 5.90595029 31.81630845 2.6875 34.55078125 C2.01203125 35.14375 1.3365625 35.73671875 0.640625 36.34765625 C-3.84649326 39.30724489 -9.32245466 39.32078575 -14.5625 38.80078125 C-21.08866073 37.00046105 -24.18497355 33.422436 -27.5625 27.80078125 C-29.48185414 22.04271884 -29.60477043 14.68484635 -27.5 8.92578125 C-21.6596419 -0.49415118 -10.58933989 -4.95568193 0 0 Z " fill="#0B0B0B" transform="translate(209.5625,267.19921875)"/>
<path d="M0 0 C1.8125 0 1.8125 0 4 1 C6.8125 3.8125 6.8125 3.8125 9 7 C8.8828125 9.02734375 8.8828125 9.02734375 8 11 C6.22265625 12.484375 6.22265625 12.484375 4.0625 13.75 C2.99708984 14.39195312 2.99708984 14.39195312 1.91015625 15.046875 C0 16 0 16 -2 16 C-2 16.66 -2 17.32 -2 18 C-4.64738916 19.4606285 -5.89448334 20 -9 20 C-8.79503906 20.59167969 -8.59007812 21.18335938 -8.37890625 21.79296875 C-8.10949219 22.58316406 -7.84007812 23.37335938 -7.5625 24.1875 C-7.29566406 24.96480469 -7.02882812 25.74210937 -6.75390625 26.54296875 C-5.99598089 29.01309856 -5.46470222 31.45992864 -5 34 C-4.18660156 33.98839844 -3.37320313 33.97679687 -2.53515625 33.96484375 C7.01739002 33.88962685 16.47281995 34.35408949 26 35 C26 35.33 26 35.66 26 36 C10.63884667 36.14537369 -4.65576567 35.7180376 -20 35 C-20.8305806 30.61265894 -21.19170639 26.40181916 -21.25 21.9375 C-21.27578125 20.75027344 -21.3015625 19.56304687 -21.328125 18.33984375 C-20.96303481 14.62374722 -20.32786684 12.89734499 -18 10 C-15.4765625 8.26953125 -15.4765625 8.26953125 -12.625 6.8125 C-11.68914062 6.32394531 -10.75328125 5.83539063 -9.7890625 5.33203125 C-7 4 -7 4 -4.2734375 2.94921875 C-1.85533321 2.10871523 -1.85533321 2.10871523 0 0 Z " fill="#FBAB03" transform="translate(208,188)"/>
<path d="M0 0 C3.70390021 2.02666238 5.65363011 3.48044516 8 7 C8.57848123 11.85323218 8.64024604 16.4634095 6.75 21 C3.57451605 24.62912451 2.1203676 25.83469986 -2.8125 26.5625 C-7.2293549 26.42188851 -9.52373578 24.45825373 -12.65234375 21.5078125 C-15.49620722 18.32598264 -15.27405066 15.4121675 -15.21484375 11.3203125 C-14.79776747 6.81588863 -13.18692426 3.98910355 -9.75 1.125 C-6.19289634 -0.33017877 -3.81807842 -0.46888682 0 0 Z " fill="#F5F5F5" transform="translate(111,273)"/>
<path d="M0 0 C3.26864894 2.54228251 5.04530735 4.40935532 5.68359375 8.58984375 C5.69414487 16.95688416 5.69414487 16.95688416 3.5 20.875 C0.08136907 23.72385911 -1.69913981 24.63536071 -6.1875 25.125 C-11.32781978 24.58391371 -13.35799805 22.43000235 -16.5625 18.5625 C-18.25333938 14.55788043 -18.43616642 11.03288488 -17.75 6.75 C-16.12854397 3.56499709 -14.77671736 1.52888904 -11.9375 -0.625 C-7.65437443 -1.84875016 -4.06770435 -1.84895652 0 0 Z " fill="#F5F5F5" transform="translate(158.75,274.25)"/>
<path d="M0 0 C2.875 1.625 2.875 1.625 5 4 C5.69857931 8.19147587 5.19917103 10.52372145 3.5625 14.4375 C0.77533425 17.22466575 0.23653378 17.44648356 -3.5 17.625 C-6.76591444 17.41013721 -7.8100351 17.14247367 -10.5 15.125 C-13.0176921 11.55826952 -13.43025391 9.38858992 -13 5 C-9.37713158 -0.62169238 -6.43127737 -1.67213212 0 0 Z " fill="#0A0A0A" transform="translate(232,116)"/>
<path d="M0 0 C9.24 0 18.48 0 28 0 C28 2.31 28 4.62 28 7 C21.73 7 15.46 7 9 7 C9 11.62 9 16.24 9 21 C14.61 21 20.22 21 26 21 C26 22.98 26 24.96 26 27 C25 28 25 28 21.40234375 28.09765625 C19.91403133 28.0909822 18.42573568 28.07902183 16.9375 28.0625 C16.17888672 28.05798828 15.42027344 28.05347656 14.63867188 28.04882812 C12.75908129 28.0370068 10.87953101 28.01907078 9 28 C9 32.62 9 37.24 9 42 C8.67 42 8.34 42 8 42 C7.97314905 39.52076199 7.95323453 37.0418116 7.9375 34.5625 C7.92493164 33.50192383 7.92493164 33.50192383 7.91210938 32.41992188 C7.90346412 30.61306441 7.94779989 28.80612397 8 27 C9 26 9 26 12.37890625 25.90234375 C13.77347077 25.90901631 15.16801743 25.92097468 16.5625 25.9375 C17.27341797 25.94201172 17.98433594 25.94652344 18.71679688 25.95117188 C20.47790013 25.96299136 22.23896036 25.98092737 24 26 C23.67 25.34 23.34 24.68 23 24 C20.48218962 23.54997081 18.03765026 23.20523374 15.5 22.9375 C8.11803406 22.11803406 8.11803406 22.11803406 7 21 C6.90067608 18.68925832 6.87030382 16.37537058 6.875 14.0625 C6.87242187 12.79535156 6.86984375 11.52820313 6.8671875 10.22265625 C7 7 7 7 8 5 C13.94 5 19.88 5 26 5 C26 4.01 26 3.02 26 2 C17.75 1.67 9.5 1.34 1 1 C1 16.84 1 32.68 1 49 C0.67 49 0.34 49 0 49 C0 32.83 0 16.66 0 0 Z " fill="#F1C253" transform="translate(340,257)"/>
<path d="M0 0 C8.91 0 17.82 0 27 0 C27 16.17 27 32.34 27 49 C18.09 49 9.18 49 0 49 C0 47.02 0 45.04 0 43 C6.27 43 12.54 43 19 43 C18.67 38.38 18.34 33.76 18 29 C12.72 28.67 7.44 28.34 2 28 C2 25.69 2 23.38 2 21 C7.61 21 13.22 21 19 21 C19 21.33 19 21.66 19 22 C13.72 22 8.44 22 3 22 C3 23.65 3 25.3 3 27 C4.82337891 26.98259766 4.82337891 26.98259766 6.68359375 26.96484375 C8.26822764 26.95546722 9.85286318 26.94636687 11.4375 26.9375 C12.23994141 26.92912109 13.04238281 26.92074219 13.86914062 26.91210938 C15.91295221 26.9034857 17.95683902 26.9477185 20 27 C21.75559942 28.75559942 21.13221919 31.03582442 21.13671875 33.37109375 C21.13285156 34.07363281 21.12898438 34.77617187 21.125 35.5 C21.13080078 36.55380859 21.13080078 36.55380859 21.13671875 37.62890625 C21.12661378 42.87338622 21.12661378 42.87338622 20 44 C18.58429877 44.08651611 17.164405 44.10704904 15.74609375 44.09765625 C14.89208984 44.09443359 14.03808594 44.09121094 13.15820312 44.08789062 C12.26037109 44.07951172 11.36253906 44.07113281 10.4375 44.0625 C9.53580078 44.05798828 8.63410156 44.05347656 7.70507812 44.04882812 C5.46998686 44.03700225 3.23502563 44.0205222 1 44 C1 45.32 1 46.64 1 48 C8.92 47.67 16.84 47.34 25 47 C25 32.15 25 17.3 25 2 C17.08 1.67 9.16 1.34 1 1 C1.33 2.32 1.66 3.64 2 5 C7.61 5.33 13.22 5.66 19 6 C19 6.33 19 6.66 19 7 C12.73 7 6.46 7 0 7 C0 4.69 0 2.38 0 0 Z " fill="#E7B649" transform="translate(222,257)"/>
<path d="M0 0 C0.33 0 0.66 0 1 0 C1 2.31 1 4.62 1 7 C2.14339844 6.98839844 3.28679687 6.97679687 4.46484375 6.96484375 C5.95572754 6.95546712 7.44661309 6.94636679 8.9375 6.9375 C10.06961914 6.92493164 10.06961914 6.92493164 11.22460938 6.91210938 C13.14994313 6.90347559 15.07535581 6.94775667 17 7 C18 8 18 8 18.09765625 11.16015625 C18.06510417 14.7734375 18.03255208 18.38671875 18 22 C11.73 22 5.46 22 -1 22 C-1 23.98 -1 25.96 -1 28 C16.82 28 34.64 28 53 28 C53 28.33 53 28.66 53 29 C38.79137177 29.6411959 24.59869535 30.10283896 10.375 30.125 C9.15458008 30.12951172 7.93416016 30.13402344 6.67675781 30.13867188 C5.55366211 30.13673828 4.43056641 30.13480469 3.2734375 30.1328125 C2.27747559 30.13168457 1.28151367 30.13055664 0.25537109 30.12939453 C-2 30 -2 30 -3 29 C-3.23880597 21.47761194 -3.23880597 21.47761194 -2 19 C3.94 19 9.88 19 16 19 C16 15.7 16 12.4 16 9 C10.72 9 5.44 9 0 9 C0 6.03 0 3.06 0 0 Z " fill="#FAF2CE" transform="translate(223,278)"/>
<path d="M0 0 C7.2 -0.48 7.2 -0.48 10.5 1.5 C12.62465211 5.04108684 12.78212398 7.9741197 12 12 C10.5625 14.5625 10.5625 14.5625 8 16 C4.09061476 16.21169956 0.45730541 16.07041017 -2.765625 13.703125 C-4.96116015 10.67384233 -4.17859972 7.63152769 -4 4 C-3.34 4 -2.68 4 -2 4 C-1.34 2.68 -0.68 1.36 0 0 Z " fill="#F4B11C" transform="translate(186,177)"/>
<path d="M0 0 C0.66 0.33 1.32 0.66 2 1 C2.625 4.0625 2.625 4.0625 3 7 C4.65 7.33 6.3 7.66 8 8 C8.309375 7.071875 8.309375 7.071875 8.625 6.125 C10.57192642 3.11611372 12.59529409 2.83380553 16 2 C16.99 2 17.98 2 19 2 C19.33 2.99 19.66 3.98 20 5 C18.68 5.33 17.36 5.66 16 6 C18.58110689 10.58544817 18.58110689 10.58544817 23 13 C23.390625 15.2265625 23.390625 15.2265625 23 18 C20.89665061 19.76900194 19.09929442 21.03182739 16.75 22.375 C16.16347656 22.74238281 15.57695312 23.10976562 14.97265625 23.48828125 C10.63455727 26.07164356 10.63455727 26.07164356 7.578125 25.7265625 C7.05734375 25.48679688 6.5365625 25.24703125 6 25 C6.66 25 7.32 25 8 25 C8 24.34 8 23.68 8 23 C10.1875 21.4921875 10.1875 21.4921875 13 19.875 C13.928125 19.33617187 14.85625 18.79734375 15.8125 18.2421875 C16.534375 17.83226562 17.25625 17.42234375 18 17 C17.30124367 12.75099688 16.55411474 10.64019952 13 8 C9.98188578 8.17753613 9.16264785 8.83735215 7 11 C5.16015625 11.81640625 5.16015625 11.81640625 3.0625 12.5625 C2.37285156 12.81128906 1.68320313 13.06007812 0.97265625 13.31640625 C-0.68085359 13.88940471 -2.33982537 14.44660846 -4 15 C-4 14.34 -4 13.68 -4 13 C-5.98 13 -7.96 13 -10 13 C-10 12.67 -10 12.34 -10 12 C-7.36 11.67 -4.72 11.34 -2 11 C-1.34 7.37 -0.68 3.74 0 0 Z " fill="#FDF4CC" transform="translate(198,181)"/>
<path d="M0 0 C0.66 0 1.32 0 2 0 C0.125 6.875 0.125 6.875 -1 8 C-1.07313567 10.53049402 -1.09247527 13.03304837 -1.0625 15.5625 C-1.05798828 16.27341797 -1.05347656 16.98433594 -1.04882812 17.71679688 C-1.03700864 19.47790013 -1.01907263 21.23896036 -1 23 C2.3 23 5.6 23 9 23 C8.67 22.01 8.34 21.02 8 20 C7.90642308 18.14772748 7.87006091 16.2921282 7.875 14.4375 C7.87113281 12.98150391 7.87113281 12.98150391 7.8671875 11.49609375 C8 9 8 9 9 7 C11.6852464 5.62108968 13.29776859 4.88612464 16.3125 5.375 C16.869375 5.58125 17.42625 5.7875 18 6 C17.34 6 16.68 6 16 6 C16 6.66 16 7.32 16 8 C13.35261084 9.4606285 12.10551666 10 9 10 C9.20496094 10.59167969 9.40992188 11.18335938 9.62109375 11.79296875 C9.89050781 12.58316406 10.15992188 13.37335938 10.4375 14.1875 C10.70433594 14.96480469 10.97117188 15.74210938 11.24609375 16.54296875 C12.00401911 19.01309856 12.53529778 21.45992864 13 24 C13.81339844 23.98839844 14.62679687 23.97679687 15.46484375 23.96484375 C25.01739002 23.88962685 34.47281995 24.35408949 44 25 C44 25.33 44 25.66 44 26 C28.63884667 26.14537369 13.34423433 25.7180376 -2 25 C-2.8305806 20.61265894 -3.19170639 16.40181916 -3.25 11.9375 C-3.27578125 10.75027344 -3.3015625 9.56304687 -3.328125 8.33984375 C-2.97363515 4.73164352 -2.21510585 2.84415291 0 0 Z " fill="#D5BA7A" transform="translate(190,198)"/>
<path d="M0 0 C0.66 0.66 1.32 1.32 2 2 C1.2575 2.556875 0.515 3.11375 -0.25 3.6875 C-3.01491769 5.85455815 -3.01491769 5.85455815 -4.875 8.375 C-7.12209568 11.15082407 -9.53780344 13.24993314 -12.26953125 15.52734375 C-14.65125694 17.55422995 -16.81841151 19.76100129 -19 22 C-25 28 -31 34 -37 40 C-37.04080783 41.99958364 -37.04254356 44.00045254 -37 46 C-32.05 47.98 -32.05 47.98 -27 50 C-27 51.32 -27 52.64 -27 54 C-25.68 54.33 -24.36 54.66 -23 55 C-23.33 55.99 -23.66 56.98 -24 58 C-24.40089844 57.61328125 -24.80179688 57.2265625 -25.21484375 56.828125 C-29.75016436 52.67331881 -34.27749121 50.20595577 -40 48 C-40.67867911 43.77522251 -40.91247976 41.33270825 -38.44726562 37.73217773 C-36.13380588 35.20789464 -33.72901452 32.83077603 -31.25 30.46875 C-30.3621582 29.59222778 -29.47431641 28.71570557 -28.55957031 27.81262207 C-26.20609891 25.49627265 -23.83643445 23.19835852 -21.45751953 20.90820312 C-19.0301173 18.5629341 -16.62546455 16.19458613 -14.21875 13.828125 C-9.49977564 9.19726857 -4.75870104 4.59000432 0 0 Z " fill="#EAEAE9" transform="translate(207,67)"/>
<path d="M0 0 C0 18.15 0 36.3 0 55 C-1.65 55 -3.3 55 -5 55 C-3.02 54.505 -3.02 54.505 -1 54 C-1.33 37.17 -1.66 20.34 -2 3 C-4.31 3.66 -6.62 4.32 -9 5 C-9 5.66 -9 6.32 -9 7 C-11.91765891 7.10806144 -14.83131125 7.18732877 -17.75 7.25 C-18.575 7.28351563 -19.4 7.31703125 -20.25 7.3515625 C-26.42297754 7.45112665 -26.42297754 7.45112665 -29.578125 4.984375 C-30.04734375 4.32953125 -30.5165625 3.6746875 -31 3 C-28 3 -28 3 -26.19921875 3.48046875 C-18.41708614 5.31887663 -10.72723238 4.62605367 -3.70703125 0.875 C-2 0 -2 0 0 0 Z " fill="#D8D3BE" transform="translate(131,172)"/>
<path d="M0 0 C2.97922593 -0.02683987 5.95821295 -0.04676037 8.9375 -0.0625 C9.78763672 -0.07087891 10.63777344 -0.07925781 11.51367188 -0.08789062 C12.32255859 -0.09111328 13.13144531 -0.09433594 13.96484375 -0.09765625 C14.7137085 -0.10289307 15.46257324 -0.10812988 16.23413086 -0.11352539 C18 0 18 0 19 1 C19.07319621 3.69654854 19.09242537 6.36691458 19.0625 9.0625 C19.05798828 9.82111328 19.05347656 10.57972656 19.04882812 11.36132812 C19.0370068 13.24091871 19.01907078 15.12046899 19 17 C18.01 17.33 17.02 17.66 16 18 C16.33 19.32 16.66 20.64 17 22 C11.72 22 6.44 22 1 22 C1 20.35 1 18.7 1 17 C6.28 17 11.56 17 17 17 C17 11.72 17 6.44 17 1 C11.39 1 5.78 1 0 1 C0 0.67 0 0.34 0 0 Z " fill="#F1AE1A" transform="translate(224,262)"/>
<path d="M0 0 C1 2 1 2 0.56640625 3.671875 C-0.21680718 6.89115225 -0.0931263 9.94235945 -0.0625 13.25 C-0.05347656 14.51328125 -0.04445313 15.7765625 -0.03515625 17.078125 C-0.02355469 18.04234375 -0.01195313 19.0065625 0 20 C-0.64066406 20.27972656 -1.28132813 20.55945313 -1.94140625 20.84765625 C-11.45024507 25.25488259 -16.83095527 30.41712467 -21 40 C-21.66012737 41.33658298 -22.32509398 42.67081827 -23 44 C-23 41.36 -23 38.72 -23 36 C-22.34 36 -21.68 36 -21 36 C-20.505 33.03 -20.505 33.03 -20 30 C-19.01 30 -18.02 30 -17 30 C-17 29.01 -17 28.02 -17 27 C-16.34 27 -15.68 27 -15 27 C-15 26.34 -15 25.68 -15 25 C-14.34 25 -13.68 25 -13 25 C-13 24.34 -13 23.68 -13 23 C-11.73160474 22.49384702 -10.46016898 21.99530901 -9.1875 21.5 C-8.47980469 21.2215625 -7.77210937 20.943125 -7.04296875 20.65625 C-5 20 -5 20 -2 20 C-2.10699219 18.72382812 -2.21398437 17.44765625 -2.32421875 16.1328125 C-2.44612746 14.46360099 -2.56717677 12.79432655 -2.6875 11.125 C-2.76033203 10.28324219 -2.83316406 9.44148438 -2.90820312 8.57421875 C-2.96298828 7.76855469 -3.01777344 6.96289062 -3.07421875 6.1328125 C-3.16062622 5.01737061 -3.16062622 5.01737061 -3.2487793 3.87939453 C-3.16668213 3.25919434 -3.08458496 2.63899414 -3 2 C-2.01 1.34 -1.02 0.68 0 0 Z " fill="#FEF4CD" transform="translate(104,94)"/>
<path d="M0 0 C0.66 0.66 1.32 1.32 2 2 C1.51277466 2.41861801 1.02554932 2.83723602 0.52355957 3.26853943 C-6.69345832 9.51910439 -13.48921627 16.1588349 -20.27539062 22.87036133 C-21.76663849 24.33984273 -23.26412735 25.80301575 -24.76757812 27.26000977 C-26.95337661 29.37910436 -29.11901442 31.51705647 -31.28125 33.66015625 C-31.9561145 34.30719009 -32.630979 34.95422394 -33.32629395 35.62086487 C-37.06108782 39.31949564 -37.06108782 39.31949564 -38.48242188 44.27124023 C-38.05429402 47.08085242 -38.05429402 47.08085242 -37 50 C-37.99 50 -38.98 50 -40 50 C-41.01699765 46.89022443 -41.40073928 44.26076985 -41 41 C-38.5967947 37.16677452 -35.40755977 34.24338835 -32.12890625 31.15234375 C-31.21745346 30.25504044 -30.30600067 29.35773712 -29.3669281 28.4332428 C-26.94909355 26.06182773 -24.51204976 23.71445735 -22.06262207 21.37597656 C-19.56471189 18.98071465 -17.09517769 16.55657525 -14.62304688 14.13476562 C-9.77433147 9.39621472 -4.8981995 4.68735254 0 0 Z " fill="#0B0B0B" transform="translate(207,55)"/>
<path d="M0 0 C1.0828125 1.11375 1.0828125 1.11375 2.1875 2.25 C8.59026872 8.51048497 13.57031481 11.25336744 22.5703125 11.17578125 C23.33085937 11.15902344 24.09140625 11.14226562 24.875 11.125 C25.65875 11.11597656 26.4425 11.10695313 27.25 11.09765625 C29.16680055 11.07428063 31.08344191 11.03841653 33 11 C33 11.66 33 12.32 33 13 C27.74281279 16.50479147 21.11830718 15.51677047 15 15 C9.57043532 13.4849631 5.54199879 10.37541028 2 6 C0.6875 2.6875 0.6875 2.6875 0 0 Z " fill="#FDF3CC" transform="translate(286,294)"/>
<path d="M0 0 C6.27 0 12.54 0 19 0 C16 3 16 3 12.64453125 3.07421875 C11.37996094 2.94660156 10.11539062 2.81898438 8.8125 2.6875 C7.54019531 2.56761719 6.26789063 2.44773437 4.95703125 2.32421875 C3.98121094 2.21722656 3.00539063 2.11023438 2 2 C2 4.97 2 7.94 2 11 C6.95 11.33 11.9 11.66 17 12 C17 12.66 17 13.32 17 14 C11.39 14 5.78 14 0 14 C0 9.38 0 4.76 0 0 Z " fill="#FEF7D5" transform="translate(349,264)"/>
<path d="M0 0 C0.67417969 0.49113281 1.34835937 0.98226563 2.04296875 1.48828125 C5.70384916 3.35982777 8.22538733 3.30209194 12.3125 3.1875 C13.56675781 3.16042969 14.82101562 3.13335937 16.11328125 3.10546875 C17.06589844 3.07066406 18.01851563 3.03585937 19 3 C17.29171079 5.10633718 16.47851584 5.93801608 13.73828125 6.29296875 C12.93777344 6.25816406 12.13726562 6.22335937 11.3125 6.1875 C10.50425781 6.16042969 9.69601562 6.13335937 8.86328125 6.10546875 C8.24839844 6.07066406 7.63351562 6.03585937 7 6 C6.67 7.32 6.34 8.64 6 10 C-0.38520354 9.84036991 -3.66008365 6.21875117 -8 2 C-6.68 1.67 -5.36 1.34 -4 1 C-3.67 1.99 -3.34 2.98 -3 4 C-2.34 3.67 -1.68 3.34 -1 3 C-0.67 2.01 -0.34 1.02 0 0 Z " fill="#F1B327" transform="translate(296,295)"/>
<path d="M0 0 C6.27 0 12.54 0 19 0 C19 4.62 19 9.24 19 14 C13.39 14 7.78 14 2 14 C2.33 13.34 2.66 12.68 3 12 C7.62 12 12.24 12 17 12 C17 8.7 17 5.4 17 2 C11.72 2 6.44 2 1 2 C0.67 1.34 0.34 0.68 0 0 Z " fill="#FEF6CF" transform="translate(222,264)"/>
<path d="M0 0 C3.71599191 -0.20086443 4.77208445 -0.1519437 8 2 C8 2.66 8 3.32 8 4 C8.99 3.67 9.98 3.34 11 3 C11.350625 3.474375 11.70125 3.94875 12.0625 4.4375 C17.06210663 8.46944083 25.91370812 7.23760299 32 7 C34.00920153 6.72756589 36.01820725 6.42849573 38 6 C36.68881848 8.62236304 35.72576862 8.95512203 33 10 C23.8856297 11.01009774 15.30119827 9.99687324 7 6 C6.47792969 5.45988281 5.95585937 4.91976562 5.41796875 4.36328125 C3.847256 2.53795398 3.847256 2.53795398 0 3 C0 2.01 0 1.02 0 0 Z " fill="#ECB639" transform="translate(132,167)"/>
<path d="M0 0 C1.32 0.33 2.64 0.66 4 1 C4 1.66 4 2.32 4 3 C4.515625 3.12375 5.03125 3.2475 5.5625 3.375 C7.45442161 3.86010811 9.3265566 4.42267735 11.1875 5.015625 C18.72431149 6.96160502 27.75079042 7.67529133 34.8125 3.9375 C35.864375 3.298125 36.91625 2.65875 38 2 C38.66 2.33 39.32 2.66 40 3 C30.66655543 8.49026151 22.79218845 10.9601168 11.84765625 8.20703125 C7.4379993 6.66217157 3.54412045 5.1184986 0 2 C0 1.34 0 0.68 0 0 Z " fill="#EBB63C" transform="translate(92,168)"/>
<path d="M0 0 C0.99 0.495 0.99 0.495 2 1 C2 15.52 2 30.04 2 45 C4.46120841 46.23060421 6.25776866 46.2057723 9.0078125 46.31640625 C10.48701172 46.37924805 10.48701172 46.37924805 11.99609375 46.44335938 C13.02863281 46.48267578 14.06117188 46.52199219 15.125 46.5625 C16.68541016 46.62727539 16.68541016 46.62727539 18.27734375 46.69335938 C20.85142528 46.7996288 23.42560508 46.90166583 26 47 C26 47.33 26 47.66 26 48 C17.42 48 8.84 48 0 48 C0 32.16 0 16.32 0 0 Z " fill="#E9B02F" transform="translate(341,258)"/>
<path d="M0 0 C0 0.66 0 1.32 0 2 C-1.09054688 1.67515625 -1.09054688 1.67515625 -2.203125 1.34375 C-12.48204266 -1.50271951 -21.74336274 -2.15588839 -32 1 C-31.67 0.01 -31.34 -0.98 -31 -2 C-20.87750433 -6.55512305 -9.61722045 -5.38564345 0 0 Z " fill="#FEF4C8" transform="translate(152,76)"/>
<path d="M0 0 C3.98851075 1.65696752 7.01922599 3.30021143 9.12890625 7.23828125 C7.11412386 6.23540751 5.10722895 5.22672564 3.12109375 4.16796875 C-2.57879406 1.32854124 -7.52523539 0.20618512 -13.87109375 1.23828125 C-17.75691399 2.6093538 -20.94969702 4.51610544 -24.18359375 7.05078125 C-24.74046875 7.44265625 -25.29734375 7.83453125 -25.87109375 8.23828125 C-26.86109375 7.90828125 -27.85109375 7.57828125 -28.87109375 7.23828125 C-20.90618731 -1.42941105 -11.32958644 -3.00580865 0 0 Z " fill="#EAB53B" transform="translate(317.87109375,257.76171875)"/>
<path d="M0 0 C0.66 0.33 1.32 0.66 2 1 C1.54625 1.680625 1.0925 2.36125 0.625 3.0625 C-4.49667985 12.32092127 -2.64202184 20.31258659 0 30 C-3.68004052 26.56529552 -5.73410909 24.11593189 -6.37109375 19.046875 C-6.52072627 11.61806068 -5.90992243 6.73092585 -1 1 C-0.67 0.67 -0.34 0.34 0 0 Z " fill="#FDF1C5" transform="translate(298,266)"/>
<path d="M0 0 C3.3 0 6.6 0 10 0 C10.04254356 1.99954746 10.04080783 4.00041636 10 6 C9 7 9 7 5.40234375 7.09765625 C3.91403133 7.0909822 2.42573568 7.07902183 0.9375 7.0625 C0.17888672 7.05798828 -0.57972656 7.05347656 -1.36132812 7.04882812 C-3.24091871 7.0370068 -5.12046899 7.01907078 -7 7 C-7 11.62 -7 16.24 -7 21 C-7.33 21 -7.66 21 -8 21 C-8.02685095 18.52076199 -8.04676547 16.0418116 -8.0625 13.5625 C-8.07506836 12.50192383 -8.07506836 12.50192383 -8.08789062 11.41992188 C-8.09653588 9.61306441 -8.05220011 7.80612397 -8 6 C-7 5 -7 5 -3.62109375 4.90234375 C-2.22652923 4.90901631 -0.83198257 4.92097468 0.5625 4.9375 C1.27341797 4.94201172 1.98433594 4.94652344 2.71679688 4.95117188 C4.47790013 4.96299136 6.23896036 4.98092737 8 5 C8 3.68 8 2.36 8 1 C5.36 1 2.72 1 0 1 C0 0.67 0 0.34 0 0 Z " fill="#ECC057" transform="translate(356,278)"/>
<path d="M0 0 C0.66 0.33 1.32 0.66 2 1 C-0.54544246 4.9242238 -3.02769724 7.01075088 -7.50390625 8.5 C-12.58718675 9.51824711 -17.85479814 9.56116224 -23 9 C-23.66 8.34 -24.32 7.68 -25 7 C-24.04738281 6.96261719 -23.09476563 6.92523438 -22.11328125 6.88671875 C-20.85902344 6.82097656 -19.60476562 6.75523437 -18.3125 6.6875 C-16.45044922 6.60048828 -16.45044922 6.60048828 -14.55078125 6.51171875 C-10.89308996 5.98459272 -9.00221823 5.07031275 -6 3 C-4.33859237 2.32033324 -2.67299959 1.65061095 -1 1 C-0.67 0.67 -0.34 0.34 0 0 Z " fill="#FDF5CE" transform="translate(176,170)"/>
<path d="M0 0 C0.66 0 1.32 0 2 0 C1.95875 0.9075 1.9175 1.815 1.875 2.75 C2.64375337 6.13339655 2.64375337 6.13339655 5.29296875 7.2890625 C7.84068244 8.28802499 10.38541352 9.19332178 13 10 C13 11.32 13 12.64 13 14 C14.32 14.33 15.64 14.66 17 15 C16.67 15.99 16.34 16.98 16 18 C15.59910156 17.61328125 15.19820312 17.2265625 14.78515625 16.828125 C10.24983564 12.67331881 5.72250879 10.20595577 0 8 C0 5.36 0 2.72 0 0 Z " fill="#FEF4CB" transform="translate(167,107)"/>
<path d="M0 0 C1.99788438 0.34578768 3.99759451 0.68143549 6 1 C6 1.33 6 1.66 6 2 C-2.99346642 3.07462534 -11.98279868 4.14121892 -21 5 C-20.67 4.34 -20.34 3.68 -20 3 C-17.92578125 2.4375 -17.92578125 2.4375 -15.3125 2 C-12.24543912 1.45309185 -9.57821843 0.85159537 -6.625 -0.1875 C-3.73718095 -1.08134875 -2.7896577 -0.95894483 0 0 Z " fill="#2F2F2E" transform="translate(76,237)"/>
<path d="M0 0 C1.5 1.3125 1.5 1.3125 3 3 C3 3.99 3 4.98 3 6 C3.66 6.33 4.32 6.66 5 7 C6.2906127 13.38572718 6.0835853 19.61888657 5 26 C4.34 26 3.68 26 3 26 C2.98018066 25.44014404 2.96036133 24.88028809 2.93994141 24.3034668 C2.84462217 21.76434146 2.73497247 19.22603112 2.625 16.6875 C2.5940625 15.80642578 2.563125 14.92535156 2.53125 14.01757812 C2.49257812 13.17001953 2.45390625 12.32246094 2.4140625 11.44921875 C2.3826416 10.66893311 2.3512207 9.88864746 2.31884766 9.0847168 C2.10412111 6.69844232 2.10412111 6.69844232 0 4 C0 2.68 0 1.36 0 0 Z " fill="#E7AD2D" transform="translate(162,89)"/>
<path d="M0 0 C3.96 0 7.92 0 12 0 C12 0.33 12 0.66 12 1 C10.98679687 1.02126953 10.98679687 1.02126953 9.953125 1.04296875 C4.13528777 1.19235829 4.13528777 1.19235829 -0.375 4.5 C-0.91125 5.325 -1.4475 6.15 -2 7 C-5.27254547 8.21700103 -8.59946039 8.19850499 -12.0625 8.25 C-13.62677734 8.28867187 -13.62677734 8.28867187 -15.22265625 8.328125 C-18 8 -18 8 -19.87109375 6.484375 C-20.24363281 5.99453125 -20.61617188 5.5046875 -21 5 C-20.11957031 5.0721875 -19.23914063 5.144375 -18.33203125 5.21875 C-16.58986328 5.35796875 -16.58986328 5.35796875 -14.8125 5.5 C-13.66394531 5.5928125 -12.51539063 5.685625 -11.33203125 5.78125 C-8.53927574 5.9645962 -5.79680188 6.04213637 -3 6 C-3 5.01 -3 4.02 -3 3 C-2.01 3 -1.02 3 0 3 C0 2.01 0 1.02 0 0 Z " fill="#FDEEB8" transform="translate(319,291)"/>
<path d="M0 0 C6.27 0 12.54 0 19 0 C19 0.99 19 1.98 19 3 C19.639375 3.12375 20.27875 3.2475 20.9375 3.375 C21.9584375 3.684375 21.9584375 3.684375 23 4 C23.33 4.66 23.66 5.32 24 6 C22.824375 5.525625 21.64875 5.05125 20.4375 4.5625 C13.81468273 2.31244029 6.93094945 2.26481889 0 2 C0 1.34 0 0.68 0 0 Z " fill="#FCEEBB" transform="translate(300,255)"/>
<path d="M0 0 C0.33 0 0.66 0 1 0 C1.33 4.95 1.66 9.9 2 15 C0.35 15.66 -1.3 16.32 -3 17 C-3 17.66 -3 18.32 -3 19 C-4.28650706 19.69710731 -5.57940665 20.38242876 -6.875 21.0625 C-7.95394531 21.63677734 -7.95394531 21.63677734 -9.0546875 22.22265625 C-9.69664063 22.47917969 -10.33859375 22.73570313 -11 23 C-11.66 22.67 -12.32 22.34 -13 22 C-11.96909707 21.03009724 -10.92459988 20.07463799 -9.875 19.125 C-9.00488281 18.32449219 -9.00488281 18.32449219 -8.1171875 17.5078125 C-6 16 -6 16 0 14 C0 9.38 0 4.76 0 0 Z " fill="#ECB841" transform="translate(103,100)"/>
<path d="M0 0 C8.33993141 0.0422275 15.37157242 0.39168651 22.4609375 5.265625 C21.4709375 5.760625 21.4709375 5.760625 20.4609375 6.265625 C19.12502441 5.60414299 17.7921236 4.93656895 16.4609375 4.265625 C14.05146613 3.81528039 14.05146613 3.81528039 11.4765625 3.6328125 C10.07470703 3.50712891 10.07470703 3.50712891 8.64453125 3.37890625 C7.67644531 3.30027344 6.70835937 3.22164063 5.7109375 3.140625 C4.23560547 3.01107422 4.23560547 3.01107422 2.73046875 2.87890625 C0.30782147 2.66721862 -2.11521917 2.46306221 -4.5390625 2.265625 C-2.5390625 0.265625 -2.5390625 0.265625 0 0 Z " fill="#EDB536" transform="translate(130.5390625,73.734375)"/>
<path d="M0 0 C0.33 0 0.66 0 1 0 C1.10957031 0.90621094 1.21914062 1.81242188 1.33203125 2.74609375 C2.25700022 9.8525627 3.45742463 16.29684675 6 23 C2.51341049 21.44020996 1.21482184 20.50125096 -0.3125 16.9375 C-1.30649312 11.2446303 -1.84713825 5.54141475 0 0 Z " fill="#FEF4CA" transform="translate(80,140)"/>
<path d="M0 0 C0.99 0.33 1.98 0.66 3 1 C2.67402832 1.57073242 2.34805664 2.14146484 2.01220703 2.72949219 C0.92596204 5.16607646 0.7668973 6.68281107 0.8046875 9.328125 C0.81113281 10.12734375 0.81757813 10.9265625 0.82421875 11.75 C0.84935547 12.9875 0.84935547 12.9875 0.875 14.25 C0.88853516 15.51070312 0.88853516 15.51070312 0.90234375 16.796875 C0.92584183 18.86470604 0.96171092 20.93238995 1 23 C-1.62029246 20.71617544 -1.97096317 20.27163486 -2.36328125 16.6015625 C-2.33814453 14.63316406 -2.33814453 14.63316406 -2.3125 12.625 C-2.30863281 11.31789062 -2.30476562 10.01078125 -2.30078125 8.6640625 C-2.02465863 5.3003869 -1.45859605 3.01017034 0 0 Z " fill="#FDEFBC" transform="translate(187,198)"/>
<path d="M0 0 C1.58473048 0.08015255 3.16906283 0.1767325 4.75 0.3125 C3.40843569 3.22029249 1.88892965 5.5642899 -0.1875 8 C-0.69152344 8.60199219 -1.19554687 9.20398438 -1.71484375 9.82421875 C-3.25 11.3125 -3.25 11.3125 -6.25 12.3125 C-5.19446046 9.76161277 -4.45089325 8.45860418 -2.1875 6.8125 C0.0665808 5.06740519 0.36851514 4.07826527 0.75 1.3125 C-2.49208567 1.66299575 -3.86527704 1.87471181 -6.0625 4.375 C-6.6503125 5.3340625 -6.6503125 5.3340625 -7.25 6.3125 C-7.91 5.9825 -8.57 5.6525 -9.25 5.3125 C-6.77450837 0.81160612 -4.94506959 -0.03502174 0 0 Z " fill="#EAB53C" transform="translate(326.25,291.6875)"/>
<path d="M0 0 C0.66 0 1.32 0 2 0 C2 6.6 2 13.2 2 20 C1.01 20 0.02 20 -1 20 C-0.67 13.4 -0.34 6.8 0 0 Z " fill="#FEF7D3" transform="translate(189,136)"/>
<path d="M0 0 C2.125 0.375 2.125 0.375 4 1 C3.46375 1.226875 2.9275 1.45375 2.375 1.6875 C-0.21449432 3.01037482 -0.21449432 3.01037482 -2.875 5.5 C-5.73130367 7.93795617 -8.280717 9.19146022 -12 10 C-14.1796875 9.5390625 -14.1796875 9.5390625 -16 9 C-11.40626937 6.37787053 -6.92714678 3.94099722 -2 2 C-1.34 1.34 -0.68 0.68 0 0 Z " fill="#EDB73A" transform="translate(208,188)"/>
<path d="M0 0 C0 0.66 0 1.32 0 2 C-0.99 2 -1.98 2 -3 2 C-2.67 2.99 -2.34 3.98 -2 5 C-0.68 5 0.64 5 2 5 C1.17830062 8.40418314 0.10747484 11.67757548 -1 15 C-5.59225513 5.58997722 -5.59225513 5.58997722 -5 1 C-2 0 -2 0 0 0 Z " fill="#FEF9DA" transform="translate(204,207)"/>
<path d="M0 0 C0.66 0 1.32 0 2 0 C2 0.66 2 1.32 2 2 C2.66 2 3.32 2 4 2 C3.67 3.65 3.34 5.3 3 7 C-0.96 7 -4.92 7 -9 7 C-8.67 5.68 -8.34 4.36 -8 3 C-7.67 3.33 -7.34 3.66 -7 4 C-5.65252916 4.23075082 -4.29622435 4.41153063 -2.9375 4.5625 C-1.638125 4.706875 -0.33875 4.85125 1 5 C0.67 3.35 0.34 1.7 0 0 Z " fill="#FCEFC3" transform="translate(329,266)"/>
<path d="M0 0 C3.3125 0.25 3.3125 0.25 7 1 C8.6875 3 8.6875 3 10 5 C12.09415804 5.79623822 12.09415804 5.79623822 14 6 C14 4.35 14 2.7 14 1 C14.99 1.66 15.98 2.32 17 3 C17 4.32 17 5.64 17 7 C10.01685362 7.60199538 10.01685362 7.60199538 7.23828125 5.95703125 C5.77210129 4.6976676 4.38267253 3.35051736 3 2 C2.01 1.34 1.02 0.68 0 0 Z " fill="#EBB843" transform="translate(313,264)"/>
<path d="M0 0 C0.33 0 0.66 0 1 0 C0.70535939 3.83032799 0.46954688 6.35234913 -1.8125 9.5 C-2.534375 9.995 -3.25625 10.49 -4 11 C-6.13671875 10.59375 -6.13671875 10.59375 -8 10 C-7.50628906 9.44570313 -7.01257813 8.89140625 -6.50390625 8.3203125 C-5.86324219 7.59585937 -5.22257812 6.87140625 -4.5625 6.125 C-3.92441406 5.40570313 -3.28632813 4.68640625 -2.62890625 3.9453125 C-0.94985535 2.09249509 -0.94985535 2.09249509 0 0 Z " fill="#FDF2C9" transform="translate(331,292)"/>
<path d="M0 0 C3.96 0 7.92 0 12 0 C12 0.99 12 1.98 12 3 C12.66 3 13.32 3 14 3 C13.67 3.99 13.34 4.98 13 6 C13 5.34 13 4.68 13 4 C8.87990318 2.62663439 4.00270935 1.99864533 0 4 C0 2.68 0 1.36 0 0 Z " fill="#FEF4CE" transform="translate(184,175)"/>
<path d="M0 0 C-0.66 0 -1.32 0 -2 0 C-2 0.66 -2 1.32 -2 2 C-4.64738916 3.4606285 -5.89448334 4 -9 4 C-8.67 6.97 -8.34 9.94 -8 13 C-10.44576827 9.33134759 -10.23607254 7.32799657 -10 3 C-9 1 -9 1 -6.6875 -0.1875 C-3.88010429 -1.03624754 -2.698065 -0.99928333 0 0 Z " fill="#EDB73C" transform="translate(208,204)"/>
<path d="M0 0 C0.66 0.33 1.32 0.66 2 1 C2.33 1.99 2.66 2.98 3 4 C1.68 4.33 0.36 4.66 -1 5 C-0.67 5.99 -0.34 6.98 0 8 C-1.32 7.67 -2.64 7.34 -4 7 C-4 6.34 -4 5.68 -4 5 C-5.32 4.67 -6.64 4.34 -8 4 C-6.865625 3.525625 -5.73125 3.05125 -4.5625 2.5625 C-1.24259834 1.36377917 -1.24259834 1.36377917 0 0 Z " fill="#F3F1E1" transform="translate(215,182)"/>
<path d="M0 0 C0.99 0 1.98 0 3 0 C3 0.66 3 1.32 3 2 C2.34 2 1.68 2 1 2 C1 4.64 1 7.28 1 10 C1.99 10.33 2.98 10.66 4 11 C4 11.66 4 12.32 4 13 C4.99 13.33 5.98 13.66 7 14 C5.68 14 4.36 14 3 14 C3 13.34 3 12.68 3 12 C1.68 11.67 0.36 11.34 -1 11 C-0.67 7.37 -0.34 3.74 0 0 Z " fill="#FCF1C8" transform="translate(181,179)"/>
<path d="M0 0 C0 0.33 0 0.66 0 1 C-0.56847656 1.10957031 -1.13695312 1.21914062 -1.72265625 1.33203125 C-6.8349278 2.38179653 -11.24665447 3.86584486 -16 6 C-16.66 6 -17.32 6 -18 6 C-17.67 5.01 -17.34 4.02 -17 3 C-11.6420393 0.78196857 -5.79857107 -0.47015441 0 0 Z " fill="#FEF8DD" transform="translate(138,71)"/>
<path d="M0 0 C1.0828125 1.11375 1.0828125 1.11375 2.1875 2.25 C4.68799795 4.69493133 7.25154408 6.84580482 10 9 C10.66 9.66 11.32 10.32 12 11 C9.8125 11.3125 9.8125 11.3125 7 11 C2.96041065 7.80590609 1.268848 4.96004219 0 0 Z " fill="#FDF1C4" transform="translate(286,294)"/>
<path d="M0 0 C-4.625 3 -4.625 3 -8 3 C-8.66 4.32 -9.32 5.64 -10 7 C-11.32 6.67 -12.64 6.34 -14 6 C-12.70982586 5.01886757 -11.41780894 4.04015801 -10.125 3.0625 C-9.04605469 2.24458984 -9.04605469 2.24458984 -7.9453125 1.41015625 C-4.79663879 -0.87231606 -3.68795134 -1.1063854 0 0 Z " fill="#EBB943" transform="translate(126,77)"/>
<path d="M0 0 C-1.36125 0.6496875 -1.36125 0.6496875 -2.75 1.3125 C-5.93777831 2.83388114 -5.93777831 2.83388114 -8.1875 4.75 C-8.785625 5.1625 -9.38375 5.575 -10 6 C-10.99 5.67 -11.98 5.34 -13 5 C-10.36460913 1.97705165 -8.73182256 0.20089247 -4.8125 -0.875 C-2 -1 -2 -1 0 0 Z " fill="#EFB226" transform="translate(302,260)"/>
<path d="M0 0 C2.74999027 3.22824944 3.10429689 4.52148447 4 9 C0.04 9 -3.92 9 -8 9 C-8 8.67 -8 8.34 -8 8 C-3.545 7.505 -3.545 7.505 1 7 C0.67 4.69 0.34 2.38 0 0 Z " fill="#DDA530" transform="translate(198,214)"/>
<path d="M0 0 C-1.44626119 3.81287042 -3.30194812 5.32707177 -7 7 C-9.3125 6.6875 -9.3125 6.6875 -11 6 C-10.34 6 -9.68 6 -9 6 C-9 5.34 -9 4.68 -9 4 C-2.25 0 -2.25 0 0 0 Z " fill="#FCEFBF" transform="translate(215,200)"/>
<path d="M0 0 C1.4552777 2.9105554 0.63516661 4.95849052 0.0625 8.125 C-0.13214844 9.22070312 -0.32679687 10.31640625 -0.52734375 11.4453125 C-0.68332031 12.28835937 -0.83929688 13.13140625 -1 14 C-3.39772819 9.73949493 -3.39028453 6.83952815 -3 2 C-2.01 1.34 -1.02 0.68 0 0 Z " fill="#FEF8D6" transform="translate(104,94)"/>
<path d="M0 0 C0.99 0.33 1.98 0.66 3 1 C2.67 1.66 2.34 2.32 2 3 C1.84876169 4.5195764 1.75118307 6.04472502 1.68359375 7.5703125 C1.64169922 8.46621094 1.59980469 9.36210937 1.55664062 10.28515625 C1.51732422 11.22230469 1.47800781 12.15945313 1.4375 13.125 C1.39431641 14.06988281 1.35113281 15.01476562 1.30664062 15.98828125 C1.20040928 18.32537092 1.09836824 20.6625683 1 23 C0.67 23 0.34 23 0 23 C0 15.41 0 7.82 0 0 Z " fill="#EAEAEA" transform="translate(96,301)"/>
<path d="M0 0 C0.99 0 1.98 0 3 0 C3 1.32 3 2.64 3 4 C-3.27 4 -9.54 4 -16 4 C-16 3.67 -16 3.34 -16 3 C-8.08 2.505 -8.08 2.505 0 2 C0 1.34 0 0.68 0 0 Z " fill="#F2AC14" transform="translate(364,301)"/>
<path d="M0 0 C-2 1.5 -2 1.5 -4 3 C-4.70125 3.556875 -5.4025 4.11375 -6.125 4.6875 C-8 6 -8 6 -10 6 C-10.33 6.99 -10.66 7.98 -11 9 C-11.33 7.68 -11.66 6.36 -12 5 C-11.01 5 -10.02 5 -9 5 C-9 4.01 -9 3.02 -9 2 C-5.5647952 -0.29013653 -4.014669 -0.17842973 0 0 Z " fill="#FEF4CC" transform="translate(300,257)"/>
<path d="M0 0 C1.5625 1.25 1.5625 1.25 3 3 C3.125 4.9375 3.125 4.9375 2 7 C-0.25337647 8.57575013 -2.53675619 9.74598497 -5 11 C-4.67 10.01 -4.34 9.02 -4 8 C-1.9375 7.3125 -1.9375 7.3125 0 7 C0 4.69 0 2.38 0 0 Z " fill="#EAB438" transform="translate(214,192)"/>
<path d="M0 0 C0.33 0.66 0.66 1.32 1 2 C3.35599235 2.46751788 3.35599235 2.46751788 6.0625 2.625 C7.44115234 2.73714844 7.44115234 2.73714844 8.84765625 2.8515625 C9.55792969 2.90054688 10.26820313 2.94953125 11 3 C10.34 4.32 9.68 5.64 9 7 C8.34 7 7.68 7 7 7 C7 6.01 7 5.02 7 4 C4.69 3.67 2.38 3.34 0 3 C0 2.01 0 1.02 0 0 Z " fill="#FEFBE2" transform="translate(183,191)"/>
<path d="M0 0 C2.25 -0.25 2.25 -0.25 5 0 C7.3125 2 7.3125 2 9 4 C5.88772805 4 3.05847848 3.54372951 0 3 C0 2.01 0 1.02 0 0 Z " fill="#E0A423" transform="translate(132,167)"/>
<path d="M0 0 C0.66 0 1.32 0 2 0 C2.309375 1.11375 2.61875 2.2275 2.9375 3.375 C3.82326483 6.7945155 3.82326483 6.7945155 5 9 C3.35 8.67 1.7 8.34 0 8 C0 5.36 0 2.72 0 0 Z " fill="#FBE9AD" transform="translate(167,107)"/>
<path d="M0 0 C1.37780724 2.75561448 0.92023755 4.09771234 0 7 C-2.0625 8.8125 -2.0625 8.8125 -4 10 C-3.5205537 5.78087253 -2.83374881 3.20336822 0 0 Z " fill="#F0C253" transform="translate(288,266)"/>
<path d="M0 0 C1.32 0.33 2.64 0.66 4 1 C4 1.99 4 2.98 4 4 C1.69 4 -0.62 4 -3 4 C-2.01 2.68 -1.02 1.36 0 0 Z " fill="#FDFCEA" transform="translate(300,266)"/>
<path d="M0 0 C0.33 0.66 0.66 1.32 1 2 C-2.41176471 8.70588235 -2.41176471 8.70588235 -5 10 C-3.14285714 2.42857143 -3.14285714 2.42857143 0 0 Z " fill="#EBB73E" transform="translate(89,123)"/>
<path d="M0 0 C4.51478398 0.53115106 7.34666857 2.36620292 11 5 C8 6 8 6 5.95703125 5.0390625 C5.24933594 4.57242188 4.54164063 4.10578125 3.8125 3.625 C3.09707031 3.16351563 2.38164062 2.70203125 1.64453125 2.2265625 C1.10183594 1.82179688 0.55914062 1.41703125 0 1 C0 0.67 0 0.34 0 0 Z " fill="#EAB334" transform="translate(167,115)"/>
<path d="M0 0 C5.445 1.485 5.445 1.485 11 3 C11 3.33 11 3.66 11 4 C7.7 3.67 4.4 3.34 1 3 C0.67 2.01 0.34 1.02 0 0 Z " fill="#FEF5C9" transform="translate(140,173)"/>
<path d="M0 0 C2.31 1.65 4.62 3.3 7 5 C5 6 5 6 3.0546875 5.44140625 C2.33539063 5.15136719 1.61609375 4.86132812 0.875 4.5625 C0.15054688 4.27503906 -0.57390625 3.98757812 -1.3203125 3.69140625 C-2.15175781 3.34916016 -2.15175781 3.34916016 -3 3 C-2.01 2.01 -1.02 1.02 0 0 Z " fill="#EDBB47" transform="translate(142,170)"/>
<path d="M0 0 C0.6875 1.625 0.6875 1.625 1 4 C-0.4375 7.25 -0.4375 7.25 -2 10 C-2.6875 8.375 -2.6875 8.375 -3 6 C-1.5625 2.75 -1.5625 2.75 0 0 Z " fill="#EDBA43" transform="translate(107,90)"/>
<path d="M0 0 C0.33 0.66 0.66 1.32 1 2 C0.06421005 4.35981813 -0.93347808 6.69631264 -2 9 C-2.33 9 -2.66 9 -3 9 C-3 6.36 -3 3.72 -3 1 C-2.01 0.67 -1.02 0.34 0 0 Z " fill="#FDF1C1" transform="translate(84,129)"/>
<path d="M0 0 C0.33 0 0.66 0 1 0 C1.66 3.3 2.32 6.6 3 10 C2.01 10 1.02 10 0 10 C-0.19412181 8.52168779 -0.38012131 7.04230684 -0.5625 5.5625 C-0.66691406 4.73878906 -0.77132812 3.91507812 -0.87890625 3.06640625 C-0.91886719 2.38449219 -0.95882812 1.70257813 -1 1 C-0.67 0.67 -0.34 0.34 0 0 Z " fill="#381F09" transform="translate(167,95)"/>
</svg>
